<svg width="28" height="20" fill="none" xmlns="http://www.w3.org/2000/svg"><rect x=".25" y=".25" width="27.5" height="19.5" rx="1.75" fill="#fff" stroke="#F5F5F5" stroke-width=".5"/><mask id="mask0_481_8898" style="mask-type:alpha" maskUnits="userSpaceOnUse" x="0" y="0" width="28" height="20"><rect x=".25" y=".25" width="27.5" height="19.5" rx="1.75" fill="#fff" stroke="#fff" stroke-width=".5"/></mask><g mask="url(#mask0_481_8898)" fill="#FF3131"><path d="M20 0h8v20h-8z"/><path fill-rule="evenodd" clip-rule="evenodd" d="M0 20h8V0H0v20zM16.113 9.222a.333.333 0 01-.563-.302L16 6.667l-1.333.666-.666-2-.667 2-1.333-.666.45 2.253a.333.333 0 01-.562.302l-.32-.32a.333.333 0 00-.47 0l-.432.431-1.333-.666.667 1.333-.431.431a.333.333 0 000 .471l1.764 1.765h2l.333 2h.667l.333-2h2l1.765-1.765a.333.333 0 000-.471L18 10l.666-1.333-1.333.666-.431-.43a.333.333 0 00-.471 0l-.32.319z"/></g></svg>