<svg width="28" height="20" fill="none" xmlns="http://www.w3.org/2000/svg"><rect x=".25" y=".25" width="27.5" height="19.5" rx="1.75" fill="#fff" stroke="#F5F5F5" stroke-width=".5"/><mask id="mask0_509_800" style="mask-type:alpha" maskUnits="userSpaceOnUse" x="0" y="0" width="28" height="20"><rect x=".25" y=".25" width="27.5" height="19.5" rx="1.75" fill="#fff" stroke="#fff" stroke-width=".5"/></mask><g mask="url(#mask0_509_800)"><path fill-rule="evenodd" clip-rule="evenodd" d="M2 0a2 2 0 00-2 2v6h8V0H2zm10 0v8h16V2a2 2 0 00-2-2H12zm16 12H12v8h14a2 2 0 002-2v-6zM8 20v-8H0v6a2 2 0 002 2h6z" fill="#EF264D"/></g></svg>