<svg width="28" height="20" viewBox="0 0 28 20" fill="none" xmlns="http://www.w3.org/2000/svg">
<rect width="28" height="20" rx="2" fill="white"/>
<mask id="mask0_509_407" style="mask-type:alpha" maskUnits="userSpaceOnUse" x="0" y="0" width="28" height="20">
<rect width="28" height="20" rx="2" fill="white"/>
</mask>
<g mask="url(#mask0_509_407)">
<rect width="28" height="20" fill="#FF2936"/>
<path fill-rule="evenodd" clip-rule="evenodd" d="M0 20H10.6667V0H0V20Z" fill="#128415"/>
<path d="M10.6667 13.3334C12.5076 13.3334 14 11.841 14 10C14 8.15909 12.5076 6.66671 10.6667 6.66671C8.82572 6.66671 7.33333 8.15909 7.33333 10C7.33333 11.841 8.82572 13.3334 10.6667 13.3334Z" stroke="#FAF94F" stroke-width="1.33333"/>
<path fill-rule="evenodd" clip-rule="evenodd" d="M9.33398 8.33333C9.33398 8.14924 9.48322 8 9.66732 8H11.6673C11.8514 8 12.0007 8.14924 12.0007 8.33333V10.6667C12.0007 11.403 11.4037 12 10.6673 12C9.93094 12 9.33398 11.403 9.33398 10.6667V8.33333Z" fill="white"/>
<path fill-rule="evenodd" clip-rule="evenodd" d="M10.6667 10.6666C11.0349 10.6666 11.3333 9.70148 11.3333 9.33329C11.3333 8.9651 11.0349 8.66663 10.6667 8.66663C10.2985 8.66663 10 8.9651 10 9.33329C10 9.70148 10.2985 10.6666 10.6667 10.6666Z" fill="#1D50B5"/>
</g>
</svg>
