<svg width="28" height="20" fill="none" xmlns="http://www.w3.org/2000/svg"><rect width="28" height="20" rx="2" fill="#fff"/><mask id="mask0_509_407" style="mask-type:alpha" maskUnits="userSpaceOnUse" x="0" y="0" width="28" height="20"><rect width="28" height="20" rx="2" fill="#fff"/></mask><g mask="url(#mask0_509_407)"><path fill="#FF2936" d="M0 0h28v20H0z"/><path fill-rule="evenodd" clip-rule="evenodd" d="M0 20h10.667V0H0v20z" fill="#128415"/><path d="M10.667 13.333a3.333 3.333 0 100-6.666 3.333 3.333 0 000 6.666z" stroke="#FAF94F" stroke-width="1.333"/><path fill-rule="evenodd" clip-rule="evenodd" d="M9.334 8.333c0-.184.15-.333.333-.333h2c.184 0 .334.15.334.333v2.334a1.333 1.333 0 01-2.667 0V8.333z" fill="#fff"/><path fill-rule="evenodd" clip-rule="evenodd" d="M10.667 10.667c.368 0 .666-.966.666-1.334a.667.667 0 10-1.333 0c0 .368.299 1.334.667 1.334z" fill="#1D50B5"/></g></svg>