<svg width="28" height="20" fill="none" xmlns="http://www.w3.org/2000/svg"><rect width="28" height="20" rx="2" fill="#fff"/><mask id="mask0_509_123" style="mask-type:alpha" maskUnits="userSpaceOnUse" x="0" y="0" width="28" height="20"><rect width="28" height="20" rx="2" fill="#fff"/></mask><g mask="url(#mask0_509_123)"><path fill-rule="evenodd" clip-rule="evenodd" d="M0 5.333h28V0H0v5.333zM0 20h28v-5.333H0V20z" fill="#DD172C"/><path fill-rule="evenodd" clip-rule="evenodd" d="M0 14.667h28V5.333H0v9.334z" fill="#FFD133"/><path fill-rule="evenodd" clip-rule="evenodd" d="M7.334 9.333h1.333V10H7.334v-.667z" fill="#FFEDB1"/><path d="M6.058 9.361A.333.333 0 016.391 9h1.884c.195 0 .348.167.332.361l-.171 2.055a1 1 0 01-.997.917h-.213a1 1 0 01-.996-.917l-.172-2.055z" stroke="#A41517" stroke-width=".667"/><path fill-rule="evenodd" clip-rule="evenodd" d="M6 10h2.667v.667H8L7.333 12l-.666-1.333H6V10z" fill="#A41517"/><rect x="4" y="8" width="1.333" height="4.667" rx=".667" fill="#A41517"/><rect x="9.334" y="8" width="1.333" height="4.667" rx=".667" fill="#A41517"/><path d="M6 7.733c0-.589.478-1.066 1.067-1.066H7.6c.59 0 1.067.477 1.067 1.066 0 .148-.12.267-.267.267H6.267A.267.267 0 016 7.733z" fill="#A41517"/></g></svg>