<svg width="28" height="20" fill="none" xmlns="http://www.w3.org/2000/svg"><rect width="28" height="20" rx="2" fill="#fff"/><mask id="mask0_509_444" style="mask-type:alpha" maskUnits="userSpaceOnUse" x="0" y="0" width="28" height="20"><rect width="28" height="20" rx="2" fill="#fff"/></mask><g mask="url(#mask0_509_444)"><path fill-rule="evenodd" clip-rule="evenodd" d="M28 0H0v1.333h28V0zm0 2.667H0V4h28V2.667zM0 5.333h28v1.334H0V5.333zM28 8H0v1.333h28V8zM0 10.667h28V12H0v-1.333zm28 2.666H0v1.334h28v-1.334zM0 16h28v1.333H0V16zm28 2.667H0V20h28v-1.333z" fill="#D02F44"/><path fill="#46467F" d="M0 0h12v9.333H0z"/><g filter="url(#filter0_d_509_444)"><path fill-rule="evenodd" clip-rule="evenodd" d="M2.667 2a.667.667 0 11-1.333 0 .667.667 0 011.333 0zm2.667 0a.667.667 0 11-1.333 0 .667.667 0 011.333 0zm2 .667a.667.667 0 100-1.334.667.667 0 000 1.334zM10.667 2a.667.667 0 11-1.333 0 .667.667 0 011.333 0zM3.334 4a.667.667 0 100-1.333.667.667 0 000 1.333zm3.333-.667a.667.667 0 11-1.333 0 .667.667 0 011.333 0zm2 .667a.667.667 0 100-1.333.667.667 0 000 1.333zm2 .667a.667.667 0 11-1.333 0 .667.667 0 011.333 0zm-3.333.666a.667.667 0 100-1.333.667.667 0 000 1.333zm-2-.666a.667.667 0 11-1.333 0 .667.667 0 011.333 0zm-3.333.666A.667.667 0 102 4a.667.667 0 000 1.333zM4 6a.667.667 0 11-1.334 0A.667.667 0 014 6zm2 .667a.667.667 0 100-1.334.667.667 0 000 1.334zM9.334 6a.667.667 0 11-1.333 0 .667.667 0 011.333 0zm.667 2a.667.667 0 100-1.333A.667.667 0 0010 8zm-2-.667a.667.667 0 11-1.334 0 .667.667 0 011.334 0zM4.667 8a.667.667 0 100-1.333.667.667 0 000 1.333zm-2-.667a.667.667 0 11-1.333 0 .667.667 0 011.333 0z" fill="url(#paint0_linear_509_444)"/></g></g><defs><linearGradient id="paint0_linear_509_444" x1="1.334" y1="1.333" x2="1.334" y2="8" gradientUnits="userSpaceOnUse"><stop stop-color="#fff"/><stop offset="1" stop-color="#F0F0F0"/></linearGradient><filter id="filter0_d_509_444" x="1.334" y="1.333" width="9.334" height="7.667" filterUnits="userSpaceOnUse" color-interpolation-filters="sRGB"><feFlood flood-opacity="0" result="BackgroundImageFix"/><feColorMatrix in="SourceAlpha" values="0 0 0 0 0 0 0 0 0 0 0 0 0 0 0 0 0 0 127 0" result="hardAlpha"/><feOffset dy="1"/><feColorMatrix values="0 0 0 0 0 0 0 0 0 0 0 0 0 0 0 0 0 0 0.06 0"/><feBlend in2="BackgroundImageFix" result="effect1_dropShadow_509_444"/><feBlend in="SourceGraphic" in2="effect1_dropShadow_509_444" result="shape"/></filter></defs></svg>