<svg width="24" height="24" viewBox="0 0 24 24" fill="none" xmlns="http://www.w3.org/2000/svg">
<circle cx="12" cy="12" r="12" fill="#6A7FEC"/>
<g clip-path="url(#clip0_2282_8622)">
<path d="M16.0566 15.0189L17.4226 16.4107C16.1167 17.9055 14.5016 18.6529 12.5772 18.6529C10.67 18.6529 9.08066 18.043 7.80918 16.823C6.55488 15.5859 5.92773 14.031 5.92773 12.1581C5.92773 10.2681 6.57206 8.7045 7.86072 7.46738C9.14938 6.21309 10.7731 5.58594 12.7319 5.58594C14.6563 5.58594 16.28 6.30759 17.603 7.75089L16.2628 9.21996C15.6614 8.63577 15.0944 8.23199 14.5618 8.00862C14.0291 7.78525 13.402 7.67357 12.6803 7.67357C11.3916 7.67357 10.3092 8.08594 9.43289 8.91068C8.57378 9.73542 8.14423 10.7835 8.14423 12.055C8.14423 13.3093 8.57378 14.3746 9.43289 15.2509C10.292 16.1272 11.3143 16.5653 12.4999 16.5653C13.2215 16.5653 13.8401 16.445 14.3556 16.2045C14.8882 15.9639 15.4552 15.5687 16.0566 15.0189Z" fill="white"/>
</g>
<defs>
<clipPath id="clip0_2282_8622">
<rect width="13" height="14" fill="white" transform="translate(5 5.5)"/>
</clipPath>
</defs>
</svg>
