<svg width="65" height="64" viewBox="0 0 65 64" fill="none" xmlns="http://www.w3.org/2000/svg">
<path d="M32.5 30.666C34.6097 30.666 36.672 30.0404 38.4261 28.8684C40.1802 27.6963 41.5474 26.0304 42.3547 24.0813C43.1621 22.1322 43.3733 19.9875 42.9617 17.9184C42.5501 15.8493 41.5342 13.9486 40.0425 12.4569C38.5507 10.9651 36.6501 9.94922 34.581 9.53764C32.5118 9.12607 30.3671 9.3373 28.418 10.1446C26.469 10.952 24.8031 12.3191 23.631 14.0733C22.4589 15.8274 21.8333 17.8897 21.8333 19.9994C21.8333 22.8283 22.9571 25.5414 24.9575 27.5418C26.9579 29.5422 29.671 30.666 32.5 30.666ZM32.5 14.666C33.5548 14.666 34.586 14.9788 35.463 15.5648C36.3401 16.1509 37.0237 16.9838 37.4274 17.9584C37.831 18.9329 37.9366 20.0053 37.7309 21.0398C37.5251 22.0744 37.0171 23.0247 36.2712 23.7706C35.5254 24.5165 34.575 25.0244 33.5405 25.2302C32.5059 25.436 31.4336 25.3304 30.459 24.9267C29.4845 24.523 28.6515 23.8395 28.0655 22.9624C27.4795 22.0853 27.1667 21.0542 27.1667 19.9994C27.1667 18.5849 27.7286 17.2283 28.7288 16.2281C29.729 15.2279 31.0855 14.666 32.5 14.666Z" fill="#2CA5F5"/>
<path d="M48.5 54.6673C49.2072 54.6673 49.8855 54.3864 50.3856 53.8863C50.8857 53.3862 51.1667 52.7079 51.1667 52.0007C51.1624 47.7585 49.4754 43.6913 46.4757 40.6916C43.476 37.692 39.4088 36.0049 35.1667 36.0007H29.8333C25.5912 36.0049 21.524 37.692 18.5243 40.6916C15.5246 43.6913 13.8376 47.7585 13.8333 52.0007C13.8333 52.7079 14.1143 53.3862 14.6144 53.8863C15.1145 54.3864 15.7928 54.6673 16.5 54.6673C17.2072 54.6673 17.8855 54.3864 18.3856 53.8863C18.8857 53.3862 19.1667 52.7079 19.1667 52.0007C19.1667 49.1717 20.2905 46.4586 22.2909 44.4582C24.2912 42.4578 27.0044 41.334 29.8333 41.334H35.1667C37.9956 41.334 40.7088 42.4578 42.7091 44.4582C44.7095 46.4586 45.8333 49.1717 45.8333 52.0007C45.8333 52.7079 46.1143 53.3862 46.6144 53.8863C47.1145 54.3864 47.7928 54.6673 48.5 54.6673Z" fill="#2CA5F5"/>
<path d="M51.1667 0H13.8333C10.2971 0 6.90573 1.40476 4.40524 3.90524C1.90476 6.40573 0.5 9.79711 0.5 13.3333V50.6667C0.5 52.4176 0.844877 54.1514 1.51494 55.7691C2.185 57.3868 3.16713 58.8566 4.40524 60.0948C6.90573 62.5952 10.2971 64 13.8333 64H51.1667C52.9176 64 54.6514 63.6551 56.2691 62.9851C57.8868 62.315 59.3566 61.3329 60.5948 60.0948C61.8329 58.8566 62.815 57.3868 63.4851 55.7691C64.1551 54.1514 64.5 52.4176 64.5 50.6667V13.3333C64.5 11.5824 64.1551 9.84856 63.4851 8.23089C62.815 6.61321 61.8329 5.14336 60.5948 3.90524C59.3566 2.66713 57.8868 1.685 56.2691 1.01494C54.6514 0.344877 52.9176 0 51.1667 0ZM59.1667 50.6667C59.1667 52.7884 58.3238 54.8232 56.8235 56.3235C55.3232 57.8238 53.2884 58.6667 51.1667 58.6667H13.8333C11.7116 58.6667 9.67677 57.8238 8.17648 56.3235C6.67619 54.8232 5.83333 52.7884 5.83333 50.6667V13.3333C5.83333 11.2116 6.67619 9.17677 8.17648 7.67648C9.67677 6.17619 11.7116 5.33333 13.8333 5.33333H51.1667C53.2884 5.33333 55.3232 6.17619 56.8235 7.67648C58.3238 9.17677 59.1667 11.2116 59.1667 13.3333V50.6667Z" fill="#2CA5F5"/>
</svg>
