<svg width="65" height="64" viewBox="0 0 65 64" fill="none" xmlns="http://www.w3.org/2000/svg">
<path fill-rule="evenodd" clip-rule="evenodd" d="M48.352 26.4261C46.8171 27.4516 45.0126 27.999 43.1667 27.999C40.6913 27.999 38.3173 27.0157 36.567 25.2654C34.8167 23.515 33.8333 21.1411 33.8333 18.6657C33.8333 16.8197 34.3807 15.0152 35.4063 13.4804C36.4318 11.9455 37.8895 10.7492 39.595 10.0428C41.3004 9.3364 43.177 9.15157 44.9875 9.5117C46.798 9.87183 48.461 10.7607 49.7663 12.066C51.0716 13.3713 51.9605 15.0344 52.3207 16.8449C52.6808 18.6553 52.496 20.532 51.7895 22.2374C51.0831 23.9429 49.8869 25.4005 48.352 26.4261ZM45.3889 15.3398C44.7312 14.9003 43.9578 14.6657 43.1667 14.6657C42.1058 14.6657 41.0884 15.0871 40.3382 15.8373C39.5881 16.5874 39.1667 17.6048 39.1667 18.6657C39.1667 19.4568 39.4013 20.2302 39.8408 20.888C40.2803 21.5458 40.905 22.0585 41.6359 22.3612C42.3668 22.664 43.1711 22.7432 43.947 22.5888C44.723 22.4345 45.4357 22.0535 45.9951 21.4941C46.5545 20.9347 46.9355 20.222 47.0898 19.4461C47.2442 18.6701 47.1649 17.8659 46.8622 17.135C46.5594 16.4041 46.0467 15.7793 45.3889 15.3398Z" fill="#2CA5F5"/>
<path fill-rule="evenodd" clip-rule="evenodd" d="M13.8333 0H51.1667C54.7016 0.00423429 58.0905 1.41035 60.5901 3.90992C63.0897 6.40949 64.4958 9.79841 64.5 13.3333V50.6667C64.4958 54.2016 63.0897 57.5905 60.5901 60.0901C58.0905 62.5897 54.7016 63.9958 51.1667 64H13.8333C10.2984 63.9958 6.90949 62.5897 4.40992 60.0901C1.91035 57.5905 0.504234 54.2016 0.5 50.6667V13.3333C0.504234 9.79841 1.91035 6.40949 4.40992 3.90992C6.90949 1.41035 10.2984 0.00423429 13.8333 0ZM51.1667 5.33333H13.8333C11.7116 5.33333 9.67677 6.17619 8.17648 7.67648C6.67619 9.17677 5.83333 11.2116 5.83333 13.3333V38.896L15.0733 29.6587C16.3115 28.4202 17.7815 27.4377 19.3994 26.7675C21.0173 26.0972 22.7514 25.7522 24.5027 25.7522C26.2539 25.7522 27.988 26.0972 29.6059 26.7675C31.2238 27.4377 32.6938 28.4202 33.932 29.6587L58.3667 54.0933C58.8886 53.0261 59.1621 51.8546 59.1667 50.6667V13.3333C59.1667 11.2116 58.3238 9.17677 56.8235 7.67648C55.3232 6.17619 53.2884 5.33333 51.1667 5.33333ZM8.17648 56.3235C9.67677 57.8238 11.7116 58.6667 13.8333 58.6667H51.1667C52.3546 58.6621 53.5261 58.3886 54.5933 57.8667L30.1587 33.4293C29.4157 32.6859 28.5336 32.0962 27.5627 31.6938C26.5917 31.2915 25.551 31.0844 24.5 31.0844C23.449 31.0844 22.4083 31.2915 21.4373 31.6938C20.4664 32.0962 19.5843 32.6859 18.8413 33.4293L5.83333 46.4373V50.6667C5.83333 52.7884 6.67619 54.8232 8.17648 56.3235Z" fill="#2CA5F5"/>
</svg>
