<svg width="152" height="59" fill="none" xmlns="http://www.w3.org/2000/svg"><path d="M5.974 5.08C-1.482 9.749-.755 19.752 1.717 27.777c1.614 5.24 6.216 8.781 11.558 10.017 12.34 2.855 36.773 7.65 62.024 7.735 35.594.122 72.848-9.322 74.019-9.906 2.357-1.174 2.762-12.718 2.67-18.344C151.841 3.502 140.705.908 128.861 1.31c-5.947.202-11.739 1.804-17.584 2.925-.286.055-.568.107-.845.157-7.307 1.307-14.49-1.143-21.766-2.613C72.687-1.45 62.567 4.396 60.66 5.08c-1.841.661-5.738.276-7.457 0L38.841 2.054C32.181.37 16.285-1.377 5.974 5.08z" fill="#F5F5F5"/><path d="M151.488 17.284v.003c.046 2.8-.032 7.072-.414 10.782-.191 1.858-.456 3.555-.813 4.851-.179.649-.376 1.178-.588 1.572-.216.402-.418.603-.576.683l-.035.014-.115.04a12.32 12.32 0 01-.402.123c-.34.1-.813.23-1.41.386-1.195.312-2.88.727-4.983 1.21a332.67 332.67 0 01-17.021 3.4c-13.893 2.416-32.074 4.742-49.83 4.681-25.198-.086-49.59-4.87-61.913-7.722-5.21-1.205-9.643-4.643-11.193-9.678C.969 23.651.189 19.218.62 15.223c.43-3.98 2.056-7.488 5.62-9.72 5.047-3.16 11.497-4.33 17.55-4.489 6.047-.158 11.64.693 14.929 1.524l.01.002.009.002L53.1 5.57l.012.002.012.002c.877.14 2.302.308 3.745.357 1.422.049 2.941-.014 3.96-.38a17.54 17.54 0 001.041-.443c1.463-.653 4.005-1.788 7.633-2.659C74.208 1.32 80.658.671 88.567 2.27c1.514.306 3.024.655 4.54 1.005l.89.205c1.811.416 3.63.822 5.454 1.14 3.647.638 7.334.933 11.069.265.279-.05.563-.103.852-.158 1.516-.291 3.02-.612 4.519-.931 4.328-.924 8.608-1.836 12.987-1.985 5.9-.2 11.533.352 15.695 2.607 2.07 1.122 3.774 2.663 4.971 4.747 1.199 2.086 1.908 4.744 1.944 8.12z" stroke="#C7C7CC" stroke-opacity=".6"/><path d="M6.767 30.67c1.547-1.027 2.369 4.097 2.522 6.788l.7 9.906c-.276.917-1.141 2.678-2.393 2.385-1.566-.367-2.578-4.862-2.762-8.072-.184-3.21 0-9.723 1.933-11.007z" fill="#fff" stroke="#80C9F9" stroke-width="1.5"/><path d="M14.392 33.52l.937 1.278.737 13.208c-5.223 6.538-7.59-2.947-6.75-11.273.2-1.99.499-3.826.766-5.237.532-2.809 2.62-.281 4.31 2.024zm9.683 7.443v-3.735c0-3.77.626-8.504 4.327-9.218 6.947-1.34 8.136 10.497 7.695 17.559l-.237 3.813c-.135 1.34-1.994 3.598-3.11 4.748a.993.993 0 01-.717.296.995.995 0 01-.429-.095c-2.694-1.28-4.565-3.288-5.78-5.179-1.542-2.399-1.749-5.337-1.749-8.189z" fill="#fff" stroke="#80C9F9" stroke-width="1.5"/><path d="M53.848 37.641c-.031-2.544-1.007-4.676-2.36-6.335-3.217-3.944-9.445-4.033-12.608-.045-1.705 2.15-3.021 5.118-3.021 8.765v13.758c-.03.856.786 2.39 3.498 2.66 1.857.185 5.294.246 8.243.266 2.474.016 6.063-.086 6.063-2.559l-.091-8.163.276-8.347zm-34.744-9.264c.884-.147 3.683 2.507 4.971 3.853l1.29 16.143c-3.389 4.109-5.156 4.647-5.617 4.402-1.749-.795-5.155-4.567-4.787-13.3.46-10.914 3.038-10.914 4.143-11.098z" fill="#fff" stroke="#80C9F9" stroke-width="1.5"/><path d="M73.01 30.22c4.97 5.097 4.417 15.436 3.452 24.848-1.381 3.302-16.296 2.385-19.334 2.11-2.855-.259-3.498-3.56-3.498-6.427V41.77c-.135-3.411.074-9.26 4.872-12.463 4.359-2.91 10.851-2.839 14.509.913zm74.431.45c-1.546-1.027-2.368 4.097-2.522 6.788l-.7 9.906c.276.917 1.142 2.678 2.394 2.385 1.565-.367 2.578-4.862 2.762-8.072.184-3.21 0-9.723-1.934-11.007z" fill="#fff" stroke="#80C9F9" stroke-width="1.5"/><path d="M139.816 33.52l-.937 1.278-.736 13.208c5.222 6.538 7.59-2.947 6.75-11.273a62.168 62.168 0 00-.766-5.237c-.532-2.809-2.62-.281-4.311 2.024zm-9.683 7.443v-3.735c0-3.77-.626-8.504-4.327-9.218-6.947-1.34-8.135 10.497-7.695 17.559l.238 3.813c.134 1.34 1.994 3.598 3.11 4.748a.995.995 0 00.716.296.999.999 0 00.429-.095c2.695-1.28 4.566-3.288 5.781-5.179 1.541-2.399 1.748-5.337 1.748-8.189z" fill="#fff" stroke="#80C9F9" stroke-width="1.5"/><path d="M100.361 37.641c.031-2.544 1.006-4.676 2.36-6.335 3.217-3.944 9.445-4.033 12.607-.045 1.706 2.15 3.022 5.118 3.022 8.765v13.758c.03.856-.786 2.39-3.499 2.66-1.856.185-5.294.246-8.243.266-2.473.016-6.063-.086-6.063-2.559l.092-8.163-.276-8.347zm34.744-9.264c-.884-.147-3.683 2.507-4.972 3.853l-1.289 16.143c3.388 4.109 5.156 4.647 5.616 4.402 1.749-.795 5.156-4.567 4.788-13.3-.461-10.914-3.039-10.914-4.143-11.098z" fill="#fff" stroke="#80C9F9" stroke-width="1.5"/><path d="M81.2 30.22c-4.968 5.097-4.416 15.436-3.45 24.848 1.38 3.302 16.295 2.385 19.333 2.11 2.855-.259 3.498-3.56 3.498-6.427V41.77c.134-3.411-.074-9.26-4.873-12.463-4.358-2.91-10.85-2.839-14.508.913z" fill="#fff" stroke="#80C9F9" stroke-width="1.5"/></svg>