<svg width="152" height="104" fill="none" xmlns="http://www.w3.org/2000/svg"><path d="M5.974 4.733C-1.482 9.402-.755 19.404 1.717 27.43c1.614 5.24 6.216 8.781 11.558 10.017 12.34 2.855 36.773 7.649 62.024 7.735 35.594.122 72.848-9.322 74.019-9.906 2.357-1.174 2.762-12.719 2.67-18.344C151.841 3.155 140.705.56 128.861.963c-5.947.202-11.739 1.804-17.584 2.925-.286.055-.568.107-.845.156-7.307 1.308-14.49-1.142-21.766-2.612-15.979-3.229-26.099 2.617-28.006 3.3-1.841.66-5.738.276-7.457 0L38.841 1.707C32.181.024 16.285-1.724 5.974 4.733z" fill="#F5F5F5"/><path d="M151.488 16.937v.003c.046 2.8-.032 7.072-.414 10.782-.191 1.857-.456 3.555-.813 4.85-.179.65-.376 1.18-.588 1.572-.216.402-.418.604-.576.684l-.035.014-.115.04a12.32 12.32 0 01-.402.123c-.34.1-.813.23-1.41.386-1.195.312-2.88.727-4.983 1.209a332.561 332.561 0 01-17.021 3.4c-13.893 2.416-32.074 4.742-49.83 4.681-25.198-.086-49.59-4.87-61.913-7.722-5.21-1.205-9.643-4.644-11.193-9.678C.969 23.304.189 18.87.62 14.876c.43-3.98 2.056-7.488 5.62-9.72 5.047-3.16 11.497-4.33 17.55-4.49 6.047-.157 11.64.694 14.93 1.524l.01.003.009.002L53.1 5.222l.012.002.012.002c.877.14 2.302.308 3.745.357 1.422.048 2.941-.014 3.96-.38a17.55 17.55 0 001.041-.443c1.463-.653 4.005-1.788 7.633-2.659C74.208.973 80.658.324 88.567 1.922c1.514.306 3.024.655 4.54 1.004l.89.206c1.811.416 3.63.822 5.454 1.14 3.647.638 7.334.933 11.069.265.279-.05.563-.103.852-.158 1.516-.291 3.02-.612 4.519-.932 4.328-.923 8.608-1.835 12.987-1.984 5.9-.2 11.533.352 15.695 2.607 2.07 1.121 3.774 2.663 4.971 4.747 1.199 2.086 1.908 4.743 1.944 8.12z" stroke="#C7C7CC" stroke-opacity=".6"/><path d="M6.767 30.323c1.547-1.027 2.369 4.097 2.522 6.788l.7 9.906c-.276.917-1.141 2.678-2.393 2.384-1.566-.366-2.578-4.86-2.762-8.071-.184-3.21 0-9.723 1.933-11.007z" fill="#fff" stroke="#80C9F9" stroke-width="1.5"/><path d="M14.392 33.173l.937 1.278.737 13.208c-5.223 6.538-7.59-2.947-6.75-11.273.2-1.991.499-3.827.766-5.237.532-2.809 2.62-.281 4.31 2.024zm9.683 7.443v-3.735c0-3.77.626-8.504 4.327-9.218 6.947-1.34 8.136 10.497 7.695 17.558l-.237 3.814c-.135 1.34-1.994 3.598-3.11 4.748a.993.993 0 01-.717.296.995.995 0 01-.429-.095c-2.694-1.28-4.565-3.288-5.78-5.18-1.542-2.398-1.749-5.337-1.749-8.188z" fill="#fff" stroke="#80C9F9" stroke-width="1.5"/><path d="M53.848 37.294c-.031-2.544-1.007-4.676-2.36-6.335-3.217-3.944-9.445-4.033-12.608-.045-1.705 2.15-3.021 5.117-3.021 8.765v13.758c-.03.856.786 2.39 3.498 2.66 1.857.185 5.294.246 8.243.265 2.474.017 6.063-.085 6.063-2.558l-.091-8.163.276-8.347zM19.104 28.03c.884-.147 3.683 2.507 4.971 3.852l1.29 16.143c-3.389 4.11-5.156 4.648-5.617 4.403-1.749-.795-5.155-4.568-4.787-13.3.46-10.915 3.038-10.915 4.143-11.098z" fill="#fff" stroke="#80C9F9" stroke-width="1.5"/><path d="M73.01 29.872c4.97 5.098 4.417 15.437 3.452 24.85-1.381 3.301-16.296 2.384-19.334 2.109-2.855-.259-3.498-3.56-3.498-6.427v-8.983c-.135-3.41.074-9.26 4.872-12.463 4.359-2.908 10.851-2.838 14.509.914zm74.431.451c-1.546-1.027-2.368 4.097-2.522 6.788l-.7 9.906c.276.917 1.142 2.678 2.394 2.384 1.565-.366 2.578-4.86 2.762-8.071.184-3.21 0-9.723-1.934-11.007z" fill="#fff" stroke="#80C9F9" stroke-width="1.5"/><path d="M139.816 33.173l-.937 1.278-.736 13.208c5.222 6.538 7.59-2.947 6.75-11.273a62.174 62.174 0 00-.766-5.237c-.532-2.809-2.62-.281-4.311 2.024zm-9.683 7.443v-3.735c0-3.77-.626-8.504-4.327-9.218-6.947-1.34-8.135 10.497-7.695 17.558l.238 3.814c.134 1.34 1.994 3.598 3.11 4.748a.995.995 0 00.716.296.999.999 0 00.429-.095c2.695-1.28 4.566-3.288 5.781-5.18 1.541-2.398 1.748-5.337 1.748-8.188z" fill="#fff" stroke="#80C9F9" stroke-width="1.5"/><path d="M100.361 37.294c.031-2.544 1.006-4.676 2.36-6.335 3.217-3.944 9.445-4.033 12.607-.045 1.706 2.15 3.022 5.117 3.022 8.765v13.758c.03.856-.786 2.39-3.499 2.66-1.856.185-5.294.246-8.243.265-2.473.017-6.063-.085-6.063-2.558l.092-8.163-.276-8.347zm34.744-9.264c-.884-.147-3.683 2.507-4.972 3.852l-1.289 16.143c3.388 4.11 5.156 4.648 5.616 4.403 1.749-.795 5.156-4.568 4.788-13.3-.461-10.915-3.039-10.915-4.143-11.098z" fill="#fff" stroke="#80C9F9" stroke-width="1.5"/><path d="M81.2 29.872c-4.968 5.098-4.416 15.437-3.45 24.85 1.38 3.301 16.295 2.384 19.333 2.109 2.855-.259 3.498-3.56 3.498-6.427v-8.983c.134-3.41-.074-9.26-4.873-12.463-4.358-2.908-10.85-2.838-14.508.914z" fill="#fff" stroke="#80C9F9" stroke-width="1.5"/><path d="M109.816 101.653c40.588 2.342 36.224-25.903 33.487-31.992-1.353-3.012-33.901-3.468-66.745-3.15-27.295.263-54.795 1.062-64.766 1.373-2.53.079-4.566 1.41-4.681 3.937-.228 4.962.747 13.683 4.656 20.441a7.04 7.04 0 002.83 2.713c9.801 5.127 24.424 4.872 30.842 4.037 8.746-2.201 15.867 4.636 24.06 4.636 6.63.825 13.87-.967 20.683-3.26 5.004-1.684 13.133-.25 17.447.895.708.188 1.455.327 2.187.37z" fill="#F5F5F5"/><path d="M69.561 103.152l-.03-.004h-.032c-3.413 0-6.631-1.219-9.967-2.482a191.7 191.7 0 00-1.683-.631c-3.9-1.435-7.983-2.643-12.503-1.515-3.178.411-8.389.68-14.018.211-5.652-.47-11.683-1.68-16.499-4.2a6.54 6.54 0 01-2.629-2.52c-3.846-6.648-4.815-15.265-4.59-20.167.051-1.12.521-1.949 1.245-2.516.736-.577 1.766-.907 2.952-.944 9.97-.311 37.466-1.11 64.755-1.374 16.42-.158 32.76-.124 45.159.327 6.202.225 11.407.554 15.14 1.013 1.869.23 3.351.49 4.4.78.525.145.922.293 1.198.438.292.154.374.266.388.298.655 1.456 1.429 4.3 1.587 7.715.157 3.41-.303 7.35-2.078 11.02-3.519 7.28-12.332 13.717-32.511 12.552a10.565 10.565 0 01-2.088-.353c-2.178-.578-5.317-1.23-8.547-1.523-3.218-.294-6.585-.239-9.187.637-6.801 2.289-13.952 4.048-20.462 3.238z" stroke="#C7C7CC" stroke-opacity=".6"/><path d="M10.547 71.954c.856-.043 1.588-.83 2.123-1.705.677-1.108.774-2.446.68-3.741l-.593-8.037a21.686 21.686 0 00-2.093-.784c-2.494-.778-4.316 1.146-4.032 3.743.518 4.739 2.53 10.593 3.915 10.524z" fill="#fff" stroke="#80C9F9" stroke-width="1.5"/><path d="M14.071 58.363c.192.005.387.016.585.034 3.828.334 6.04 4.169 6.074 8.012l.011 1.25c.016 1.767-1.408 4.501-2.867 5.5-2.035 1.392-3.117-.416-3.851-2.77-1.323-4.242-1.574-8.13-1.476-10.51.035-.847.676-1.538 1.524-1.516z" fill="#fff" stroke="#80C9F9" stroke-width="1.5"/><path d="M21.679 60.065c2.112-.114 3.805-.092 5.134.008 2.65.2 3.988 2.46 3.988 5.12v3.487c0 1.432-.306 2.86-1.205 3.976-1.709 2.12-4.517 4.665-5.424 4.526-.823-.126-2.111-3.013-2.886-5.046a8.44 8.44 0 01-.47-1.886c-.71-5.303-.645-8.066-.399-9.305.117-.59.662-.847 1.262-.88z" fill="#fff" stroke="#80C9F9" stroke-width="1.5"/><path d="M37.522 77.565c3.023-2.41 5.15-6.829 5.431-9.28l-.092-7.063c0-.252-5.987-.364-10.196-.313a1.934 1.934 0 00-1.915 1.902c-.04 2.122-.057 5.358.05 8.776.07 2.205.629 3.876 1.323 5.086 1.11 1.932 3.657 2.28 5.399.892z" fill="#fff" stroke="#80C9F9" stroke-width="1.5"/><path d="M45.142 60.82c4.127-.38 9.332-.154 12.556.423a.963.963 0 01.782.994l-.246 6.507c0 1.01-.185 2.316-.436 3.598-.537 2.742-2 5.229-4.395 6.668-.145.087-.291.173-.438.258-3.064 1.775-6.976 1.086-8.208-2.234-1.528-4.116-2.003-9.585-2.03-13.512-.01-1.4 1.02-2.574 2.415-2.703z" fill="#fff" stroke="#80C9F9" stroke-width="1.5"/><path d="M68.995 82.838c7.763-3.444 7.172-12.194 6.825-21.432-.022-.62-7.702-1.048-12.933-.77-2.95.157-4.76 2.473-4.743 5.426.065 11.534 4.376 15.943 7.678 17.056 1.04.35 2.17.165 3.172-.28zm72.458-10.884c-.856-.043-1.588-.83-2.123-1.705-.677-1.108-.774-2.446-.679-3.741l.592-8.037a21.82 21.82 0 012.093-.784c2.494-.778 4.316 1.146 4.032 3.743-.518 4.739-2.53 10.593-3.915 10.524z" fill="#fff" stroke="#80C9F9" stroke-width="1.5"/><path d="M137.925 58.363a9.48 9.48 0 00-.584.034c-3.829.334-6.04 4.169-6.074 8.012l-.011 1.25c-.016 1.767 1.408 4.501 2.867 5.5 2.035 1.392 3.117-.416 3.851-2.77 1.322-4.242 1.574-8.13 1.476-10.51-.035-.847-.677-1.538-1.525-1.516z" fill="#fff" stroke="#80C9F9" stroke-width="1.5"/><path d="M130.319 60.065c-2.112-.114-3.805-.092-5.133.008-2.652.2-3.989 2.46-3.989 5.12v3.487c.001 1.432.306 2.86 1.205 3.976 1.709 2.12 4.517 4.665 5.424 4.526.823-.126 2.111-3.013 2.886-5.046a8.398 8.398 0 00.471-1.886c.71-5.303.644-8.066.398-9.305-.117-.59-.662-.847-1.262-.88z" fill="#fff" stroke="#80C9F9" stroke-width="1.5"/><path d="M114.476 77.565c-3.023-2.41-5.15-6.829-5.432-9.28l.093-7.063c0-.252 5.986-.364 10.196-.313a1.933 1.933 0 011.914 1.902c.041 2.122.057 5.358-.05 8.776-.069 2.205-.628 3.876-1.323 5.086-1.109 1.932-3.657 2.28-5.398.892z" fill="#fff" stroke="#80C9F9" stroke-width="1.5"/><path d="M106.856 60.82c-4.127-.38-9.333-.154-12.556.423a.962.962 0 00-.783.994l.247 6.507c0 1.01.184 2.316.435 3.598.538 2.742 2.001 5.229 4.396 6.668.145.087.29.173.437.258 3.065 1.775 6.977 1.086 8.209-2.234 1.528-4.116 2.002-9.585 2.03-13.512.01-1.4-1.02-2.574-2.415-2.703z" fill="#fff" stroke="#80C9F9" stroke-width="1.5"/><path d="M83.004 82.838c-7.764-3.444-7.172-12.194-6.826-21.432.023-.62 7.702-1.048 12.934-.77 2.95.157 4.76 2.473 4.743 5.426-.066 11.534-4.377 15.943-7.678 17.056-1.04.35-2.17.165-3.173-.28z" fill="#fff" stroke="#80C9F9" stroke-width="1.5"/></svg>