<svg width="142" height="48" fill="none" xmlns="http://www.w3.org/2000/svg"><path d="M104.816 45.147c40.588 2.343 36.224-25.902 33.487-31.991-1.353-3.012-33.901-3.468-66.745-3.15-27.295.263-54.795 1.062-64.766 1.373-2.53.079-4.566 1.41-4.681 3.937-.228 4.961.747 13.683 4.656 20.441a7.04 7.04 0 002.83 2.712c9.801 5.128 24.424 4.873 30.842 4.038 8.746-2.201 15.867 4.636 24.06 4.636 6.63.825 13.87-.967 20.683-3.26 5.004-1.684 13.133-.25 17.447.895.708.188 1.455.327 2.187.37z" fill="#F5F5F5"/><path d="M64.561 46.646l-.03-.003h-.032c-3.413 0-6.631-1.219-9.967-2.482-.557-.21-1.118-.423-1.683-.631-3.9-1.435-7.983-2.643-12.503-1.515-3.178.411-8.389.68-14.018.21-5.652-.47-11.683-1.679-16.499-4.199a6.54 6.54 0 01-2.629-2.52C3.354 28.859 2.385 20.242 2.61 15.34c.051-1.12.521-1.949 1.245-2.516.736-.577 1.766-.907 2.952-.944 9.97-.311 37.466-1.11 64.755-1.374 16.42-.159 32.76-.124 45.159.327 6.202.225 11.407.554 15.14 1.013 1.869.23 3.351.49 4.4.78.525.145.922.293 1.198.438.292.154.374.266.388.298.655 1.456 1.429 4.3 1.587 7.715.157 3.41-.303 7.35-2.078 11.02-3.519 7.28-12.332 13.717-32.511 12.552a10.64 10.64 0 01-2.088-.353c-2.178-.579-5.317-1.23-8.547-1.524-3.218-.293-6.585-.238-9.187.638-6.801 2.289-13.952 4.048-20.462 3.237z" stroke="#C7C7CC" stroke-opacity=".6"/><path d="M5.547 15.449c.856-.043 1.588-.83 2.123-1.705.677-1.108.774-2.447.68-3.741l-.593-8.037a21.69 21.69 0 00-2.093-.784C3.17.404 1.348 2.327 1.632 4.925c.518 4.739 2.53 10.593 3.915 10.524z" fill="#fff" stroke="#80C9F9" stroke-width="1.5"/><path d="M9.071 1.858c.192.005.387.016.585.033 3.828.335 6.04 4.17 6.074 8.012l.011 1.25c.016 1.768-1.408 4.502-2.867 5.5-2.036 1.393-3.117-.415-3.851-2.77C7.7 9.642 7.449 5.754 7.547 3.374c.035-.847.677-1.538 1.524-1.516z" fill="#fff" stroke="#80C9F9" stroke-width="1.5"/><path d="M16.679 3.56c2.112-.115 3.805-.092 5.134.008 2.65.2 3.988 2.46 3.988 5.12v3.487c0 1.432-.306 2.86-1.205 3.976-1.709 2.12-4.517 4.665-5.424 4.526-.823-.126-2.111-3.013-2.886-5.046a8.44 8.44 0 01-.47-1.886c-.71-5.303-.645-8.067-.399-9.305.117-.59.662-.847 1.262-.88z" fill="#fff" stroke="#80C9F9" stroke-width="1.5"/><path d="M32.522 21.06c3.023-2.41 5.15-6.829 5.431-9.28l-.092-7.063c0-.252-5.987-.365-10.196-.313a1.934 1.934 0 00-1.915 1.902c-.04 2.122-.057 5.358.05 8.776.07 2.205.629 3.876 1.323 5.086 1.11 1.932 3.657 2.28 5.399.892z" fill="#fff" stroke="#80C9F9" stroke-width="1.5"/><path d="M40.142 4.314c4.127-.38 9.332-.153 12.556.424a.963.963 0 01.782.994l-.246 6.507c0 1.01-.185 2.316-.436 3.598-.537 2.742-2 5.229-4.395 6.668-.145.087-.291.173-.438.258-3.064 1.775-6.976 1.086-8.208-2.234-1.528-4.116-2.003-9.585-2.03-13.512-.01-1.4 1.02-2.574 2.415-2.703z" fill="#fff" stroke="#80C9F9" stroke-width="1.5"/><path d="M63.995 26.333c7.763-3.444 7.172-12.194 6.825-21.432-.022-.62-7.702-1.048-12.933-.77-2.95.157-4.76 2.473-4.743 5.426.065 11.534 4.376 15.943 7.678 17.056 1.04.35 2.17.165 3.172-.28zm72.458-10.884c-.856-.043-1.588-.83-2.123-1.705-.677-1.108-.774-2.447-.679-3.741l.592-8.037c.777-.335 1.473-.59 2.093-.784 2.494-.778 4.316 1.145 4.032 3.743-.518 4.739-2.53 10.593-3.915 10.524z" fill="#fff" stroke="#80C9F9" stroke-width="1.5"/><path d="M132.925 1.858a9.48 9.48 0 00-.584.033c-3.829.335-6.04 4.17-6.074 8.012l-.011 1.25c-.016 1.768 1.408 4.502 2.867 5.5 2.035 1.393 3.117-.415 3.851-2.77 1.322-4.241 1.574-8.129 1.476-10.509-.035-.847-.677-1.538-1.525-1.516z" fill="#fff" stroke="#80C9F9" stroke-width="1.5"/><path d="M125.319 3.56c-2.112-.115-3.805-.092-5.133.008-2.652.2-3.989 2.46-3.989 5.12v3.487c.001 1.432.306 2.86 1.205 3.976 1.709 2.12 4.517 4.665 5.424 4.526.823-.126 2.111-3.013 2.886-5.046a8.398 8.398 0 00.471-1.886c.71-5.303.644-8.067.398-9.305-.117-.59-.662-.847-1.262-.88z" fill="#fff" stroke="#80C9F9" stroke-width="1.5"/><path d="M109.476 21.06c-3.023-2.41-5.15-6.829-5.432-9.28l.093-7.063c0-.252 5.986-.365 10.196-.313a1.933 1.933 0 011.914 1.902c.041 2.122.057 5.358-.05 8.776-.069 2.205-.628 3.876-1.323 5.086-1.109 1.932-3.657 2.28-5.398.892z" fill="#fff" stroke="#80C9F9" stroke-width="1.5"/><path d="M101.856 4.314c-4.127-.38-9.333-.153-12.556.424a.962.962 0 00-.783.994l.247 6.507c0 1.01.184 2.316.435 3.598.538 2.742 2.001 5.228 4.396 6.668.145.087.29.173.437.258 3.065 1.775 6.977 1.086 8.209-2.234 1.528-4.116 2.002-9.585 2.03-13.512.01-1.4-1.02-2.574-2.415-2.703z" fill="#fff" stroke="#80C9F9" stroke-width="1.5"/><path d="M78.004 26.333c-7.764-3.444-7.172-12.194-6.826-21.432.023-.62 7.702-1.048 12.934-.77 2.95.157 4.76 2.473 4.743 5.426-.066 11.534-4.377 15.943-7.678 17.056-1.04.35-2.17.165-3.173-.28z" fill="#fff" stroke="#80C9F9" stroke-width="1.5"/></svg>