<svg width="65" height="64" viewBox="0 0 65 64" fill="none" xmlns="http://www.w3.org/2000/svg">
<path d="M42.9165 63.9968C40.8605 63.9947 38.8893 63.1769 37.4355 61.7229C35.9816 60.2689 35.164 58.2975 35.1618 56.2412V40.0022C35.1618 39.2951 34.881 38.617 34.3811 38.117C33.8811 37.617 33.2031 37.3361 32.4961 37.3361C31.7891 37.3361 31.1111 37.617 30.6111 38.117C30.1112 38.617 29.8304 39.2951 29.8304 40.0022V56.2412C29.8305 57.9436 29.2707 59.5988 28.2373 60.9516C27.2039 62.3044 25.7544 63.2797 24.112 63.7272C22.4697 64.1747 20.7258 64.0695 19.1491 63.4278C17.5725 62.7861 16.2506 61.6436 15.3873 60.1764C9.00022 49.2348 0.507164 32.7478 0.507164 16.0075C0.426718 13.8852 0.785398 11.7692 1.56073 9.79203C2.33606 7.81485 3.51133 6.01912 5.0129 4.51736C6.51447 3.01561 8.30997 1.84019 10.2869 1.06477C12.2638 0.28934 14.3796 -0.0693841 16.5016 0.0110717C20.0444 0.0124345 23.5654 0.565608 26.938 1.65071C28.7282 2.27163 30.6022 2.61771 32.4961 2.67715C34.39 2.61771 36.2639 2.27163 38.0542 1.65071C41.4267 0.565269 44.9477 0.0120873 48.4906 0.0110717C50.6126 -0.0693841 52.7283 0.28934 54.7053 1.06477C56.6822 1.84019 58.4777 3.01561 59.9793 4.51736C61.4809 6.01912 62.6561 7.81485 63.4315 9.79203C64.2068 11.7692 64.5655 13.8852 64.485 16.0075C64.485 32.7451 55.992 49.2321 49.6048 60.1764C48.9189 61.3403 47.9411 62.305 46.7681 62.9751C45.595 63.6452 44.2674 63.9974 42.9165 63.9968ZM32.4961 32.004C34.6171 32.004 36.6512 32.8466 38.151 34.3466C39.6508 35.8465 40.4933 37.8809 40.4933 40.0022V56.2412C40.4943 56.7715 40.6687 57.2869 40.99 57.7087C41.3114 58.1305 41.7619 58.4355 42.2728 58.5773C42.7837 58.719 43.3269 58.6896 43.8196 58.4935C44.3122 58.2975 44.7272 57.9456 45.0011 57.4916C51.0763 47.0779 59.1535 31.4521 59.1535 16.0075C59.2098 14.592 58.9726 13.1801 58.4566 11.8608C57.9407 10.5414 57.1572 9.3432 56.1556 8.34147C55.154 7.33975 53.956 6.55623 52.6368 6.04022C51.3176 5.52422 49.9059 5.28691 48.4906 5.34322C45.4498 5.34165 42.4282 5.82402 39.539 6.77223C37.2667 7.53574 34.8925 7.95277 32.4961 8.00929C30.0997 7.95301 27.7254 7.53598 25.4532 6.77223C22.564 5.82428 19.5424 5.34192 16.5016 5.34322C5.95861 5.34322 5.83865 15.5729 5.83865 16.0075C5.83865 31.4547 13.9159 47.0806 19.9938 57.4916C20.267 57.9463 20.6817 58.299 21.1744 58.4955C21.6671 58.692 22.2106 58.7216 22.7217 58.5798C23.2328 58.4379 23.6834 58.1324 24.0044 57.71C24.3253 57.2877 24.499 56.7717 24.4989 56.2412V40.0022C24.4989 37.8809 25.3414 35.8465 26.8412 34.3466C28.341 32.8466 30.3751 32.004 32.4961 32.004Z" fill="#2CA5F5"/>
</svg>
