<svg width="64" height="65" viewBox="0 0 64 65" fill="none" xmlns="http://www.w3.org/2000/svg">
<path d="M50.6667 64.5H13.3333C9.79841 64.4958 6.40949 63.0897 3.90992 60.5901C1.41035 58.0905 0.00423429 54.7016 0 51.1667L0 13.8333C0.00423429 10.2984 1.41035 6.90949 3.90992 4.40992C6.40949 1.91035 9.79841 0.504234 13.3333 0.5L50.6667 0.5C54.2016 0.504234 57.5905 1.91035 60.0901 4.40992C62.5897 6.90949 63.9958 10.2984 64 13.8333V51.1667C63.9958 54.7016 62.5897 58.0905 60.0901 60.5901C57.5905 63.0897 54.2016 64.4958 50.6667 64.5ZM13.3333 5.83333C11.2116 5.83333 9.17677 6.67619 7.67648 8.17648C6.17619 9.67677 5.33333 11.7116 5.33333 13.8333V51.1667C5.33333 53.2884 6.17619 55.3232 7.67648 56.8235C9.17677 58.3238 11.2116 59.1667 13.3333 59.1667H50.6667C52.7884 59.1667 54.8232 58.3238 56.3235 56.8235C57.8238 55.3232 58.6667 53.2884 58.6667 51.1667V13.8333C58.6667 11.7116 57.8238 9.67677 56.3235 8.17648C54.8232 6.67619 52.7884 5.83333 50.6667 5.83333H13.3333ZM24.912 45.8467C23.8003 45.8429 22.7094 45.5458 21.7493 44.9853C20.8009 44.4425 20.0137 43.6575 19.4684 42.7105C18.923 41.7636 18.6389 40.6888 18.6453 39.596V25.404C18.6444 24.3111 18.931 23.2371 19.4762 22.2899C20.0215 21.3426 20.8062 20.5555 21.7518 20.0073C22.6973 19.4592 23.7704 19.1693 24.8634 19.1669C25.9563 19.1644 27.0307 19.4494 27.9787 19.9933L42.0533 27.02C43.031 27.5478 43.8497 28.3274 44.4246 29.2781C44.9996 30.2288 45.3098 31.316 45.3231 32.4269C45.3364 33.5378 45.0524 34.6321 44.5004 35.5963C43.9485 36.5605 43.1487 37.3596 42.184 37.9107L27.848 45.076C26.9539 45.586 25.9413 45.8518 24.912 45.8467ZM24.8453 24.5133C24.6984 24.5133 24.554 24.5519 24.4267 24.6253C24.2884 24.7023 24.1736 24.8154 24.0947 24.9525C24.0158 25.0897 23.9757 25.2458 23.9787 25.404V39.596C23.9796 39.7519 24.021 39.9048 24.0989 40.0399C24.1768 40.1749 24.2885 40.2873 24.423 40.3661C24.5575 40.4449 24.7101 40.4874 24.866 40.4894C25.0219 40.4913 25.1756 40.4527 25.312 40.3773L39.648 33.2093C39.7548 33.1258 39.8397 33.0177 39.8954 32.8941C39.9511 32.7705 39.9761 32.6353 39.968 32.5C39.9713 32.3414 39.9311 32.1849 39.8516 32.0476C39.7722 31.9103 39.6565 31.7974 39.5173 31.7213L25.4533 24.6947C25.27 24.5822 25.0604 24.5197 24.8453 24.5133Z" fill="#2CA5F5"/>
</svg>
