<svg width="65" height="64" viewBox="0 0 65 64" fill="none" xmlns="http://www.w3.org/2000/svg">
<path fill-rule="evenodd" clip-rule="evenodd" d="M11.4896 27.815V13.783C11.4905 13.6624 11.5078 13.0976 11.959 12.6296C12.4306 12.1404 13.0271 12.1185 13.1402 12.1165H17.0468L17.0628 12.1272C20.1703 12.1272 22.6895 14.6463 22.6895 17.7538C22.6895 20.8613 20.1703 23.3804 17.0628 23.3804H14.8228V27.815C14.8228 28.7354 14.0766 29.4816 13.1562 29.4816C12.2358 29.4816 11.4896 28.7355 11.4896 27.815ZM14.8282 20.0364H17.0468C18.3135 20.0358 19.342 19.0086 19.3413 17.742C19.3407 16.4754 18.3135 15.4491 17.0468 15.4498H14.8122L14.8282 20.0364Z" fill="#2CA5F5"/>
<path fill-rule="evenodd" clip-rule="evenodd" d="M27.0775 29.276C26.1591 29.276 25.4139 28.533 25.4109 27.6147L25.3815 13.9988C25.3815 13.0774 26.1267 12.3298 27.0481 12.3268H30.8961C35.1787 12.3268 38.0587 15.7348 38.0587 20.8014C38.0587 25.6227 35.1255 29.1747 31.0401 29.244C29.9361 29.276 27.0775 29.276 27.0775 29.276ZM34.7362 20.8013C34.7362 18.3266 33.7309 15.6599 30.9069 15.6599L28.7256 15.6601L28.739 25.9347C29.1225 25.9321 29.5249 25.9267 29.8991 25.9216C30.3209 25.9159 30.7069 25.9107 30.9896 25.9107C33.5789 25.8679 34.7362 23.2761 34.7362 20.8013Z" fill="#2CA5F5"/>
<path d="M44.082 27.8346V23.0346H47.386C47.828 23.0346 48.252 22.8591 48.5645 22.5465C48.8771 22.2339 49.0527 21.81 49.0527 21.368C49.0527 20.926 48.8771 20.502 48.5645 20.1895C48.252 19.8769 47.828 19.7013 47.386 19.7013H44.082V16.6667H47.7833C48.2254 16.6667 48.6493 16.4911 48.9618 16.1785C49.2744 15.8659 49.45 15.442 49.45 15C49.45 14.558 49.2744 14.134 48.9618 13.8215C48.6493 13.5089 48.2254 13.3333 47.7833 13.3333H42.4153C41.9733 13.3333 41.5494 13.5089 41.2368 13.8215C40.9243 14.134 40.7487 14.558 40.7487 15V27.8346C40.7487 28.2767 40.9243 28.7006 41.2368 29.0132C41.5494 29.3257 41.9733 29.5013 42.4153 29.5013C42.8574 29.5013 43.2813 29.3257 43.5939 29.0132C43.9064 28.7006 44.082 28.2767 44.082 27.8346Z" fill="#2CA5F5"/>
<path fill-rule="evenodd" clip-rule="evenodd" d="M51.1666 0H13.8334C6.47325 0.00887499 0.508875 5.97325 0.5 13.3334V50.6667C0.508875 58.0267 6.47325 63.9912 13.8334 63.9999H44.0813C47.6197 64.0101 51.0151 62.6043 53.5107 60.0959L60.5933 53.008C63.102 50.5135 64.5087 47.1191 64.5 43.5813V13.3334C64.4912 5.97325 58.5267 0.00887499 51.1666 0ZM5.83337 50.6666V13.3334C5.83337 8.91512 9.41512 5.33337 13.8334 5.33337H51.1667C55.585 5.33337 59.1667 8.91512 59.1667 13.3334V40H48.5C44.0817 40 40.5 43.5817 40.5 48V58.6666H13.8334C9.41499 58.6666 5.83337 55.085 5.83337 50.6666ZM49.74 56.3253C48.668 57.3947 47.3125 58.1349 45.8333 58.4587V48C45.8333 46.5272 47.0272 45.3333 48.5 45.3333H58.9666C58.6367 46.8093 57.8973 48.1625 56.8332 49.2373L49.74 56.3253Z" fill="#2CA5F5"/>
</svg>
