<svg width="24" height="24" viewBox="0 0 24 24" fill="none" xmlns="http://www.w3.org/2000/svg">
<path d="M21 16.0017V7.99736C20.9997 7.73537 20.9308 7.47804 20.8001 7.25098C20.6694 7.02391 20.4815 6.83503 20.2552 6.70314L13.1302 2.55658C12.7869 2.35672 12.3968 2.25143 11.9995 2.25143C11.6023 2.25143 11.2122 2.35672 10.8689 2.55658L3.74484 6.70314C3.51848 6.83503 3.33061 7.02391 3.19993 7.25098C3.06925 7.47804 3.00032 7.73537 3 7.99736V16.0017C3.00016 16.2639 3.06901 16.5214 3.1997 16.7486C3.33038 16.9759 3.51834 17.1649 3.74484 17.2969L10.8698 21.4435C11.2132 21.643 11.6033 21.7482 12.0005 21.7482C12.3976 21.7482 12.7877 21.643 13.1311 21.4435L20.2561 17.2969C20.4824 17.1648 20.6702 16.9757 20.8007 16.7485C20.9312 16.5212 20.9999 16.2638 21 16.0017Z" stroke="#111111" stroke-width="1.5" stroke-linecap="round" stroke-linejoin="round"/>
<path d="M3.23438 7.21829L12 12.3745M12 12.3745L20.7656 7.21829M12 12.3745V21.7495" stroke="#111111" stroke-width="1.5" stroke-linecap="round" stroke-linejoin="round"/>
</svg>
