<svg width="24" height="24" viewBox="0 0 24 24" fill="none" xmlns="http://www.w3.org/2000/svg">
<g clip-path="url(#clip0_2201_21767)">
<path d="M23.8423 6.97453C23.8423 4.86516 22.2907 3.16828 20.3735 3.16828C17.7767 3.04687 15.1282 3 12.4217 3H11.5779C8.87792 3 6.2248 3.04687 3.62792 3.16875C1.71542 3.16875 0.163859 4.875 0.163859 6.98437C0.0466718 8.65266 -0.00301573 10.3214 -0.000203231 11.9902C-0.00489073 13.6589 0.0482343 15.3292 0.159172 17.0011C0.159172 19.1105 1.71073 20.8214 3.62323 20.8214C6.35136 20.948 9.1498 21.0042 11.9951 20.9995C14.8451 21.0089 17.6357 20.9495 20.367 20.8214C22.2842 20.8214 23.8357 19.1105 23.8357 17.0011C23.9482 15.3277 23.9998 13.6589 23.9951 11.9855C24.0057 10.3167 23.9548 8.64641 23.8423 6.97453ZM9.70292 16.5886V7.37766L16.4998 11.9808L9.70292 16.5886Z" fill="#8E8E93"/>
</g>
<defs>
<clipPath id="clip0_2201_21767">
<rect width="24" height="24" fill="white"/>
</clipPath>
</defs>
</svg>
