<svg width="24" height="24" viewBox="0 0 24 24" fill="none" xmlns="http://www.w3.org/2000/svg">
<path d="M22.0007 4.64059L18.8132 19.5469C18.5632 20.6094 17.9851 20.8906 17.0788 20.3906L12.2507 16.8281L9.9069 19.0781C9.5944 19.3906 9.26627 19.5469 8.92253 19.5469L9.29753 14.625L18.2507 6.56247C18.4694 6.34372 18.4694 6.21872 18.2507 6.18747C18.0632 6.12497 17.8601 6.17185 17.6413 6.32809L6.57877 13.3125L1.79753 11.8125C1.26628 11.6562 1.01628 11.4218 1.04753 11.1093C1.07878 10.7968 1.4069 10.5312 2.0319 10.3125L20.6413 3.09372C21.1101 2.93747 21.4851 2.99997 21.7663 3.28122C22.0476 3.53122 22.1257 3.98434 22.0007 4.64059Z" fill="#8E8E93"/>
</svg>
