<svg width="361" height="363" fill="none" xmlns="http://www.w3.org/2000/svg"><path d="M318.646 311.517c-7.39 7.779-14.375 12.789-19.895 16.751-64.901 46.566-141.697 32.993-158.017 29.678-24.102-4.896-70.689-14.358-104.368-53.967-50.952-59.924-43.022-154.335-3.5-216.656 7.23-11.399 45.42-74.67 123.037-84.817 46.976-6.14 101.735 6.245 141.391 39.468 83.245 69.737 77.319 210.621 21.352 269.543z" fill="url(#paint0_linear_154:996)"/><path d="M222.103 37.794L38.13 45.757a19.079 19.079 0 00-18.253 18.916L17.84 331.994a14.069 14.069 0 0014.421 14.171l211.027-5.297a13.346 13.346 0 009.425-4.235 13.345 13.345 0 003.581-9.692l-11.617-268.45a21.656 21.656 0 00-14.222-19.41 21.654 21.654 0 00-8.352-1.287z" fill="url(#paint1_linear_154:996)"/><path d="M212.278 337.674a.513.513 0 01-.536-.482.509.509 0 01.482-.536l23.58-1.326c7.333-.413 13.042-6.719 12.724-14.058l-1.541-35.623a.511.511 0 01.482-.531.508.508 0 01.531.487l1.543 35.623c.341 7.893-5.798 14.675-13.686 15.119l-23.58 1.327h.001zm34.768-62.572a.507.507 0 01-.531-.487l-.25-5.768a.505.505 0 01.132-.365.507.507 0 01.882.319l.25 5.77a.51.51 0 01-.483.531z" fill="#fff"/><path d="M221.443 35.656c-24.976 4.495-110.914 18.772-182.58 16.38a5.817 5.817 0 00-6.021 5.753L30.2 326.326a6.696 6.696 0 006.587 6.761c30.119.477 154.138 1.994 198.068-4.538a5.3 5.3 0 004.513-5.445L228.842 41.615a6.284 6.284 0 00-2.34-4.667 6.29 6.29 0 00-5.059-1.292z" fill="url(#paint2_linear_154:996)"/><path opacity=".24" d="M219.054 42.722C195.02 47.047 112.316 60.788 43.347 58.486a5.597 5.597 0 00-5.794 5.535l-2.54 258.427a6.44 6.44 0 006.338 6.506c28.984.459 148.333 1.918 190.609-4.368a5.098 5.098 0 004.343-5.243L226.174 48.457a6.062 6.062 0 00-2.252-4.492 6.066 6.066 0 00-4.868-1.243z" fill="#fff"/><path d="M117.89 32.117l20.794-2.756.925-19.224a8.125 8.125 0 00-6.132-8.28c-4.12-1.025-9.902-.865-16.347 4.045-12.641 9.631.76 26.215.76 26.215zm3.658-16.145a5.212 5.212 0 018.728-4.057 5.208 5.208 0 01-3.298 9.042 5.207 5.207 0 01-5.43-4.985z" fill="url(#paint3_linear_154:996)"/><path d="M136.178 21.927a1.035 1.035 0 01-.984-1.083l.148-3.062a1.036 1.036 0 012.066.098l-.146 3.062a1.039 1.039 0 01-1.084.985zm.288-6a1.037 1.037 0 01-.983-1.082l.112-2.325a6.21 6.21 0 00-4.677-6.321 14.097 14.097 0 00-6.897.017 1.038 1.038 0 01-.505-2.009 16.152 16.152 0 017.901-.017 8.28 8.28 0 016.244 8.428l-.111 2.324a1.04 1.04 0 01-1.084.985z" fill="#BDD0FB"/><path d="M167.709 40.501l-.416-9.626a5.882 5.882 0 00-6.33-5.608l-66.272 5.146a5.72 5.72 0 00-5.276 5.608l-.154 9.273 78.448-4.793z" fill="url(#paint4_linear_154:996)"/><path d="M145.307 29.584l-2.852.13a.509.509 0 01-.048-1.018l2.852-.13a.512.512 0 01.527.484.509.509 0 01-.477.534h-.002zm19.054 8.502a1.038 1.038 0 00.637-1.001l-.169-3.89a5.995 5.995 0 00-6.24-5.733l-10.501.456a1.038 1.038 0 10.09 2.074l10.494-.455a3.926 3.926 0 014.088 3.75l.168 3.889a1.037 1.037 0 001.433.91z" fill="#BDD0FB"/><path d="M188.353 36.078L72.291 41.099a8.588 8.588 0 00-8.146 7.48l-.074.572a7.375 7.375 0 007.634 8.31l119.073-5.154a4.8 4.8 0 004.353-3.312c.2-.617.273-1.269.214-1.915l-.487-5.316a6.261 6.261 0 00-6.505-5.686z" fill="url(#paint5_linear_154:996)"/><path opacity=".61" d="M137.056 291.665l94.644-1.236c1.872-.024 3.265-1.283 3.112-2.809l-.03-.292c-.154-1.522-1.792-2.734-3.658-2.709l-94.329 1.269c-1.842.024-3.283 1.27-3.218 2.783l.012.29c.069 1.513 1.619 2.725 3.467 2.704zm95.581 8.138l-95.163 1.183c-1.858.023-3.311 1.288-3.241 2.828l.012.295c.066 1.544 1.629 2.778 3.494 2.756l95.493-1.149c1.889-.022 3.293-1.296 3.136-2.852l-.03-.297c-.165-1.552-1.819-2.787-3.701-2.764zm-96.257-39.192l94.644-1.235c1.872-.025 3.265-1.284 3.112-2.81l-.03-.29c-.154-1.524-1.792-2.736-3.657-2.711l-94.331 1.269c-1.841.026-3.281 1.271-3.216 2.785l.011.288c.069 1.517 1.618 2.729 3.467 2.704zm95.582 8.142l-95.163 1.184c-1.858.023-3.31 1.289-3.241 2.829l.013.293c.066 1.544 1.63 2.78 3.501 2.756l95.493-1.148c1.889-.022 3.293-1.297 3.136-2.853l-.031-.295c-.172-1.553-1.825-2.789-3.708-2.766z" fill="#fff"/><path d="M155.766 73.033c.021 1.62-.821 2.955-1.88 2.982l-104.12 2.463c-1.167.028-2.134-1.33-2.166-3.03v-.26c-.033-1.703.886-3.103 2.052-3.127l104.164-2.167c1.059-.022 1.933 1.275 1.953 2.897l-.003.242zm61.5 14.347c.02 1.618-1.316 2.961-2.982 3L50.062 94.196c-1.837.043-3.358-1.297-3.397-3v-.26c-.04-1.7 1.426-3.111 3.258-3.149l164.285-3.519c1.672-.036 3.041 1.249 3.06 2.867l-.002.245zm-114.571 77.221s1.009-3.4 3.362-3.749c2.353-.348 4.357-.695 5.026 1.672.669 2.366 0 5.077-4.356 5.445-4.356.368-4.032-3.368-4.032-3.368zm4.368-11.548s2.347-1.018 3.017 1.012c.67 2.031.669 4.399-1.675 5.762-2.344 1.362-5.037 1.037-5.705-2.016-.668-3.053 2.344-4.416 4.363-4.758z" fill="#fff"/><path d="M101.011 151.362c-.665-1.112-1.349-4.076.674-5.433 2.641-1.771 4.036-2.368 5.378-1.009 1.342 1.359 2.86 5.218.671 7.116-2.349 2.037-5.229 1.827-6.723-.674zm.283-6.535a1.993 1.993 0 01-1.578-.442 2.245 2.245 0 01-.73-1.179c-.337-1.36 2.024-3.731 4.044-4.408 2.02-.677 4.328 1.678 2.69 3.74-1.235 1.561-2.188 1.975-4.426 2.289zm-4.333-5.371s-1.015-2.385.338-4.08c1.352-1.694 2.363-2.707 4.048-2.017 1.686.69 3.371 3.073 1.347 4.761-2.023 1.688-4.382 3.045-5.733 1.336zm-2.177-4.39a1.188 1.188 0 01-.814-.724 4.29 4.29 0 01.275-3.79c1.328-2.334 1.992-2.992 3.65-1.978 1.659 1.013 2.32 2.018 1.99 3.016-.331.999-1.99 2.658-2.983 3.321-.638.424-1.545.299-2.118.155zm-4.463-9.233s.707-1.769 2.825-.331c2.119 1.438 2.819 1.795 2.114 2.853-.706 1.057-2.114 3.529-4.232 3.16-2.119-.368-2.12-3.565-.707-5.682z" fill="#fff"/><path d="M85.764 129.862c-1.023 0-1.364-.692-1.705-2.061-.34-1.369-.34-4.105 0-4.785.341-.681 1.705-.326 3.067.029 1.361.356 2.722.708 2.722 1.39 0 .682-.614 5.446-4.084 5.427zm-20.968 34.943s-1.037-3.437-3.463-3.77c-2.426-.333-4.514-.673-5.21 1.747-.697 2.419 0 5.178 4.517 5.493 4.516.315 4.156-3.47 4.156-3.47zm-4.505-11.693s-2.43-1.037-3.126 1.038c-.694 2.074-.694 4.487 1.738 5.859 2.432 1.371 5.2 1.013 5.892-2.087.693-3.099-2.423-4.463-4.504-4.81z" fill="#fff"/><path d="M66.523 151.384c.681-1.127 1.381-4.125-.69-5.502-2.717-1.806-4.15-2.417-5.542-1.037-1.392 1.379-2.962 5.307-.694 7.238 2.429 2.06 5.393 1.838 6.926-.699zm-.291-6.612a2.058 2.058 0 001.616-.442c.37-.307.63-.724.746-1.189.345-1.373-2.075-3.787-4.149-4.483-2.074-.697-4.462 1.672-2.77 3.779 1.278 1.58 2.258 2 4.557 2.335zm4.43-5.408s1.037-2.399-.343-4.122c-1.381-1.724-2.414-2.762-4.141-2.085-1.727.677-3.46 3.079-1.382 4.808 2.077 1.73 4.488 3.112 5.866 1.399zm2.216-4.412a1.196 1.196 0 00.828-.722 4.305 4.305 0 00-.28-3.822c-1.35-2.367-2.026-3.047-3.716-2.048-1.69.998-2.37 2.007-2.032 3.022.338 1.015 2.032 2.711 3.047 3.39.648.434 1.571.319 2.153.18zm4.518-9.231s-.713-1.787-2.852-.381c-2.14 1.407-2.863 1.762-2.146 2.838.717 1.076 2.146 3.585 4.289 3.241 2.143-.343 2.135-3.547.709-5.698z" fill="#fff"/><path d="M81.982 129.83c1.024 0 1.365-.674 1.707-2.04.343-1.365.342-4.098 0-4.784-.34-.685-1.707-.359-3.075-.029-1.368.329-2.738.658-2.738 1.343 0 .684.617 5.485 4.106 5.51zm20.713 44.922s1.009 3.385 3.362 3.699c2.353.314 4.357.631 5.026-1.744.669-2.375 0-5.077-4.356-5.38-4.356-.304-4.032 3.425-4.032 3.425zm4.368 11.485s2.347.984 3.017-1.057c.67-2.041.669-4.408-1.675-5.737-2.344-1.329-5.037-.963-5.705 2.099-.668 3.062 2.344 4.382 4.363 4.695z" fill="#fff"/><path d="M101.011 188.014c-.665 1.123-1.349 4.097.674 5.425 2.641 1.733 4.036 2.309 5.378.931 1.342-1.379 2.86-5.26.671-7.131-2.349-1.998-5.229-1.747-6.723.775zm.283 6.533a2.016 2.016 0 00-.839.063 2.013 2.013 0 00-.739.403c-.36.31-.616.725-.73 1.187-.337 1.365 2.024 3.703 4.044 4.345 2.02.641 4.328-1.742 2.69-3.78-1.235-1.537-2.188-1.935-4.426-2.218zm-4.333 5.43s-1.015 2.4.338 4.075c1.352 1.675 2.363 2.672 4.048 1.957 1.686-.714 3.371-3.122 1.347-4.78-2.023-1.658-4.382-2.978-5.733-1.252zm-2.178 4.425a1.211 1.211 0 00-.814.736 4.28 4.28 0 00.275 3.786c1.329 2.31 1.993 2.964 3.65 1.925 1.659-1.038 2.32-2.052 1.99-3.047-.331-.994-1.99-2.628-2.982-3.276-.638-.415-1.546-.277-2.119-.124zm-4.462 9.298s.707 1.757 2.825.289c2.119-1.467 2.819-1.835 2.114-2.882-.706-1.046-2.114-3.5-4.232-3.098-2.119.402-2.12 3.594-.707 5.691z" fill="#fff"/><path d="M85.764 209.742c-1.023.022-1.364.713-1.705 2.087-.34 1.375-.34 4.11 0 4.784.341.675 1.705.301 3.067-.072 1.361-.374 2.722-.748 2.722-1.426 0-.678-.614-5.447-4.084-5.373zm-20.968-34.645s-1.037 3.453-3.463 3.822c-2.426.37-4.514.737-5.21-1.671-.697-2.408 0-5.178 4.517-5.558 4.516-.38 4.156 3.407 4.156 3.407zm-4.505 11.759s-2.43 1.067-3.126-.993c-.694-2.06-.694-4.478 1.738-5.885 2.432-1.406 5.2-1.089 5.892 2.002.693 3.091-2.423 4.504-4.504 4.876z" fill="#fff"/><path d="M66.523 188.494c.681 1.116 1.381 4.105-.69 5.513-2.717 1.844-4.15 2.477-5.542 1.121-1.392-1.356-2.962-5.265-.694-7.228 2.429-2.099 5.393-1.921 6.926.594zm-.291 6.622a2.034 2.034 0 011.617.419c.369.301.63.714.745 1.177.345 1.368-2.075 3.817-4.149 4.538-2.074.721-4.462-1.607-2.77-3.738 1.278-1.6 2.258-2.034 4.557-2.396zm4.43 5.338s1.037 2.384-.343 4.128c-1.381 1.744-2.414 2.796-4.141 2.144-1.727-.652-3.46-3.028-1.382-4.789 2.077-1.761 4.488-3.175 5.866-1.483zm2.216 4.38a1.163 1.163 0 01.828.71 4.312 4.312 0 01-.28 3.825c-1.35 2.388-2.026 3.076-3.716 2.103-1.69-.974-2.37-1.972-2.032-2.993.338-1.02 2.032-2.739 3.047-3.434.648-.444 1.571-.342 2.153-.211zm4.518 9.171s-.713 1.799-2.852.423c-2.14-1.377-2.863-1.72-2.146-2.807.717-1.088 2.146-3.616 4.289-3.305 2.143.311 2.135 3.512.709 5.689z" fill="#fff"/><path d="M81.982 209.824c1.024-.022 1.365.654 1.707 2.015.343 1.36.342 4.092 0 4.784-.34.691-1.707.388-3.075.073s-2.738-.618-2.738-1.303c0-.684.617-5.493 4.106-5.569z" fill="#fff"/><path opacity=".86" d="M50.584 226.629a4.642 4.642 0 01-4.637-4.642V115.73a3.958 3.958 0 013.67-3.934h.019l66.242-1.829a6.626 6.626 0 016.809 6.62l.049 99.757a8.095 8.095 0 01-7.854 8.126l-64.138 2.155-.16.004zm-.916-113.962a3.084 3.084 0 00-2.852 3.066v106.256a3.77 3.77 0 003.905 3.767l64.138-2.155a7.227 7.227 0 007.014-7.26l-.05-99.755a5.744 5.744 0 00-1.743-4.125 5.754 5.754 0 00-4.173-1.626l-66.239 1.832z" fill="#fff"/><path opacity=".9" d="M134.266 159.499l83.124-1.027c1.644-.021 2.864-1.277 2.722-2.803l-.027-.29c-.139-1.524-1.58-2.74-3.218-2.723l-82.846 1.062c-1.618.02-2.879 1.263-2.82 2.776l.012.289c.066 1.52 1.43 2.737 3.053 2.716zm83.962 8.351l-83.579.973c-1.631.018-2.904 1.281-2.843 2.821l.011.295c.061 1.544 1.438 2.782 3.074 2.764l83.866-.939c1.659-.018 2.888-1.296 2.747-2.852l-.027-.296c-.138-1.545-1.595-2.783-3.249-2.766zm-83.692 24.774l83.123-1.028c1.644-.021 2.864-1.276 2.723-2.802l-.027-.291c-.139-1.522-1.581-2.739-3.218-2.723l-82.846 1.061c-1.618.02-2.88 1.262-2.82 2.777l.011.289c.067 1.522 1.436 2.737 3.054 2.717zm83.963 8.352l-83.578.973c-1.631.019-2.905 1.282-2.844 2.822l.012.295c.061 1.542 1.438 2.781 3.074 2.762l83.865-.937c1.66-.018 2.889-1.297 2.747-2.852l-.027-.296c-.141-1.547-1.596-2.786-3.249-2.767zm-84.895-72.527l83.124-1.027c1.643-.021 2.863-1.277 2.722-2.803l-.027-.29c-.139-1.524-1.579-2.74-3.218-2.723l-82.846 1.062c-1.617.021-2.88 1.263-2.82 2.776l.012.289c.066 1.521 1.43 2.737 3.053 2.716zm83.963 8.352l-83.578.97c-1.632.019-2.905 1.281-2.844 2.821l.011.294c.061 1.544 1.438 2.783 3.076 2.764l83.864-.938c1.659-.018 2.889-1.297 2.747-2.852l-.026-.296c-.141-1.543-1.597-2.781-3.25-2.763z" fill="#fff"/><path d="M300.332 353.591H78.206c-3.431 0-6.214-4.358-6.214-9.732v-40.412c0-9.614 4.977-17.408 11.116-17.408 19.383-4.758 38.506-4.148 57.33 2.322 23.019-4.331 46.077-4.331 69.175 0 25.088-7.335 53.947-6.761 84.648-2.322 5.42 0 9.816 6.882 9.816 15.372v46.325c-.006 3.233-1.679 5.855-3.745 5.855z" fill="url(#paint6_linear_154:996)"/><path d="M145.884 275.935s.715 52.234-10.588 56.278c-.921.331-1.732.328-2.447.049-8.05-3.111-4.149-41.407-14.854-43.998h-11.592c-11.658 2.807-5.994 47.988-17.3 43.952a5.334 5.334 0 01-1.792-1.119l-.115-.105c-9.315-8.897-8.68-55.057-8.68-55.057-9.716-15.667-7.218-36.913-7.218-36.913-.885-13.137 15.235-24.128 24.595-18.402 5.748 3.517 12.187 4.965 16.305 5.563 3.409-.494 8.403-1.57 13.279-3.919a33.406 33.406 0 003.034-1.647c9.36-5.725 25.48 5.265 24.595 18.404 0-.003 2.501 21.248-7.222 36.914z" fill="#fff"/><path opacity=".2" d="M145.883 275.935s.716 52.234-10.587 56.278c-.922.331-1.732.331-2.448.052 9.103-7.665 3.737-47.592 1.086-52.734-2.675-5.186 4.965-14.746 8.114-33.042 3.15-18.296-16.571-24.231-16.571-24.231a33.334 33.334 0 003.033-1.641c9.361-5.725 25.48 5.265 24.596 18.404 0-.003 2.501 21.248-7.223 36.914z" fill="url(#paint7_linear_154:996)"/><path opacity=".3" d="M108.934 288.264h-2.523c-11.659 2.807-5.994 47.987-17.3 43.951a5.315 5.315 0 01-1.793-1.118c9.313 3.682 8.443-32.632 9.972-38.636 1.528-6.004 11.644-4.197 11.644-4.197z" fill="url(#paint8_linear_154:996)"/><path d="M221.219 278.044s.716 52.235-10.587 56.278c-.922.331-1.732.328-2.448.05-8.05-3.112-4.148-41.408-14.854-43.998h-11.592c-11.656 2.807-5.993 47.987-17.299 43.951a5.303 5.303 0 01-1.791-1.118l-.116-.106c-9.315-8.897-8.679-55.057-8.679-55.057-9.716-15.667-7.219-36.911-7.219-36.911-.885-13.139 15.234-24.129 24.595-18.403 5.747 3.516 12.187 4.965 16.306 5.562 3.407-.494 8.401-1.57 13.279-3.918a33.947 33.947 0 003.03-1.644c9.36-5.726 25.48 5.264 24.594 18.403 0-.005 2.496 21.245-7.219 36.911z" fill="#fff"/><path opacity=".2" d="M221.219 278.044s.716 52.235-10.587 56.278c-.922.331-1.732.331-2.448.052 9.103-7.665 3.737-47.592 1.085-52.734-2.674-5.186 4.966-14.746 8.116-33.042 3.151-18.296-16.572-24.229-16.572-24.229a33.673 33.673 0 003.03-1.644c9.361-5.727 25.48 5.265 24.595 18.403 0 0 2.496 21.25-7.219 36.916z" fill="url(#paint9_linear_154:996)"/><path opacity=".3" d="M184.26 290.368h-2.523c-11.656 2.807-5.993 47.988-17.299 43.952a5.317 5.317 0 01-1.792-1.118c9.313 3.681 8.442-32.633 9.972-38.635 1.53-6.003 11.642-4.199 11.642-4.199z" fill="url(#paint10_linear_154:996)"/><path d="M296.565 275.935s.716 52.234-10.587 56.278c-.922.331-1.732.328-2.448.049-8.05-3.111-4.148-41.407-14.854-43.998h-11.592c-11.658 2.807-5.993 47.988-17.299 43.952a5.335 5.335 0 01-1.792-1.119l-.115-.105c-9.315-8.897-8.679-55.057-8.679-55.057-9.717-15.667-7.22-36.912-7.22-36.912-.884-13.138 15.235-24.129 24.596-18.403 5.747 3.517 12.187 4.965 16.306 5.563 3.407-.494 8.401-1.57 13.277-3.919a33.663 33.663 0 003.03-1.643c9.362-5.727 25.482 5.264 24.596 18.402 0-.005 2.495 21.246-7.219 36.912z" fill="#fff"/><path opacity=".2" d="M296.565 275.935s.716 52.234-10.587 56.278c-.922.331-1.732.33-2.448.052 9.103-7.665 3.737-47.592 1.085-52.734-2.674-5.186 4.966-14.746 8.115-33.042 3.149-18.297-16.572-24.231-16.572-24.231a33.405 33.405 0 003.03-1.642c9.362-5.727 25.481 5.263 24.596 18.402 0 0 2.494 21.251-7.219 36.917z" fill="url(#paint11_linear_154:996)"/><path opacity=".3" d="M259.607 288.264h-2.523c-11.658 2.807-5.994 47.987-17.299 43.951a5.307 5.307 0 01-1.792-1.118c9.312 3.682 8.442-32.632 9.97-38.636 1.529-6.004 11.644-4.197 11.644-4.197z" fill="url(#paint12_linear_154:996)"/><path d="M109.756 250.429l-9.479.259c-3.288.092-5.963 2.644-5.963 5.705v14.067c0 3.055 2.67 5.428 5.963 5.3l9.479-.37c3.249-.129 5.877-2.684 5.877-5.704v-13.934c0-3.034-2.628-5.414-5.877-5.323z" fill="url(#paint13_linear_154:996)"/><path d="M108.131 255.537l-6.223.186c-1.789.055-3.241 1.447-3.241 3.112v8.893c0 1.663 1.452 2.958 3.241 2.892l6.223-.228c1.777-.065 3.214-1.46 3.214-3.112v-8.844c0-1.656-1.437-2.954-3.214-2.899z" fill="url(#paint14_linear_154:996)"/><path d="M187.313 248.265l-8.834.246c-3.064.086-5.553 2.546-5.553 5.496v13.578c0 2.95 2.489 5.243 5.553 5.124l8.834-.345c3.03-.118 5.48-2.583 5.48-5.506v-13.454c0-2.924-2.45-5.225-5.48-5.139z" fill="url(#paint15_linear_154:996)"/><path d="M185.799 253.194l-5.795.175c-1.669.051-3.023 1.392-3.023 2.999v8.589c0 1.607 1.354 2.859 3.023 2.797l5.795-.213c1.657-.061 2.997-1.405 2.997-3.003v-8.537c.002-1.603-1.34-2.856-2.997-2.807z" fill="url(#paint16_linear_154:996)"/><path d="M256.532 246.333l-8.279.231c-2.871.08-5.203 2.463-5.203 5.315v13.143a4.955 4.955 0 005.203 4.967l8.279-.323a5.38 5.38 0 005.137-5.325v-13.028a4.964 4.964 0 00-3.18-4.653 4.968 4.968 0 00-1.957-.327z" fill="url(#paint17_linear_154:996)"/><path d="M255.112 251.104l-5.431.164a2.927 2.927 0 00-2.831 2.9v8.309a2.702 2.702 0 002.831 2.711l5.431-.2a2.933 2.933 0 002.81-2.904v-8.265a2.711 2.711 0 00-.825-1.958 2.716 2.716 0 00-1.985-.757z" fill="url(#paint18_linear_154:996)"/><path d="M111.46 250.429l-9.479.259c-3.286.092-5.963 2.644-5.963 5.705v14.067c0 3.055 2.672 5.428 5.963 5.3l9.479-.37c3.25-.129 5.878-2.684 5.878-5.704v-13.934c0-3.034-2.628-5.414-5.878-5.323zm77.559-2.164l-8.835.246c-3.063.086-5.553 2.546-5.553 5.496v13.578c0 2.95 2.49 5.243 5.553 5.124l8.835-.345c3.03-.118 5.479-2.583 5.479-5.506v-13.454c.004-2.924-2.449-5.225-5.479-5.139zm69.217-1.932l-8.279.231c-2.869.08-5.203 2.463-5.203 5.316v13.142a4.955 4.955 0 005.203 4.967l8.279-.323a5.38 5.38 0 005.137-5.325v-13.028a4.964 4.964 0 00-3.18-4.653 4.95 4.95 0 00-1.957-.327z" fill="#7D97F4"/><path d="M106.761 264.69l-.095-3.223c.792-.023 79.967-2.342 147.364-4.927l.129 3.222c-67.417 2.585-146.606 4.905-147.398 4.928z" fill="#7D97F4"/><path d="M109.841 255.537l-6.223.186c-1.79.055-3.241 1.447-3.241 3.112v8.893c0 1.663 1.452 2.958 3.241 2.892l6.223-.228c1.777-.065 3.216-1.46 3.216-3.112v-8.844c-.005-1.656-1.445-2.954-3.216-2.899z" fill="url(#paint19_linear_154:996)"/><path d="M187.501 253.194l-5.797.175c-1.667.051-3.02 1.392-3.02 2.999v8.589c0 1.607 1.353 2.859 3.02 2.797l5.797-.213c1.656-.061 2.996-1.405 2.996-3.003v-8.537c.004-1.603-1.336-2.856-2.996-2.807z" fill="url(#paint20_linear_154:996)"/><path d="M256.819 251.104l-5.433.163a2.924 2.924 0 00-1.998.882 2.925 2.925 0 00-.833 2.019v8.309a2.698 2.698 0 002.831 2.711l5.433-.2a2.932 2.932 0 002.808-2.904v-8.265a2.711 2.711 0 00-.825-1.957 2.69 2.69 0 00-1.983-.758z" fill="url(#paint21_linear_154:996)"/><path d="M280.211 154.34c.027.021.05.046.068.075l.286.012c.031.043.341.118.341.204l-.273.092c0 .093-.13.21-.103.339l-.063.056c.32 1.899 2.061 7.098 3.967 13.829.019.055.014.116.032.172 4.279 15.099 10.446 37.825 12.309 48.348 0 0 3.297 1.636 8.427 2.446h.013c7.414 1.621 18.603 3.112 29.013.379 0 0 5.595-45.667-1.183-85.24 0 0-17.783-4.434-36.978-5.643-.098 0-.197.338-.295.331-1.548-.086-3.103.208-4.657.208h-1.776c-.797 0-2.233.28-3.911.989-.049.018-.148-.157-.148-.13a1.023 1.023 0 00-.019-.146s-.289.13-.419.185c-.192.081-.389.161-.592.26a1.192 1.192 0 01-.13.062c-.019.013-.044.015-.062.028-.13.068-.259.13-.407.203a.587.587 0 00-.081.036c-.159.08-.32.166-.487.253-.025.011.105.024.08.043-.19.098-.438.203-.635.308-.197.105-.314.191-.327.296l-.024-.161a6.348 6.348 0 00-.284.161l-.025.011a20.952 20.952 0 00-3.009 2.11s0 .013-.013.019c-.013.007-.031.043-.043.061-4.307 7.148-6.302 18.849 1.408 19.804z" fill="url(#paint22_linear_154:996)"/><path d="M235.292 166.178c19.346-2.047 28.427-16.951 35.617-26.429 9.493-12.512 19.974-10.351 19.974-10.351l-6.415 27.615c-14.352 22.872-34.883 23.958-48.685 21.345a24.503 24.503 0 01-.491-12.18z" fill="#7D97F4"/><path d="M206.236 161.874l7.037 1.717c8.578 2.584 15.817 3.241 22.02 2.593a24.484 24.484 0 00.491 12.175c-8.785-1.663-14.845-4.827-14.845-4.827-16.155-4.71-14.703-11.658-14.703-11.658z" fill="#7D97F4"/><path d="M190.307 175.305a4.704 4.704 0 011.905-3.606l11.221-8.298s-.228-1.656-3.349-2.01c-3.121-.354-3.284-3.704-3.284-3.704s4.335.759 10.739 2.088c3.661.76 6.223 3.112 7.737 4.998l-2.122 5.081c-7.12 4.329-14.82 6.804-22.948 7.933l.101-2.482z" fill="url(#paint23_linear_154:996)"/><path d="M289.146 129.249h.19c.018 0 .031 0 .049-.013l-.239.013z" fill="url(#paint24_linear_154:996)"/><path d="M285.257 129.04l.024.012v-.025a.024.024 0 01-.011.009.02.02 0 01-.013.004z" fill="url(#paint25_linear_154:996)"/><path d="M296.601 344.405s1.005 5.685 1.498 11.313a3.873 3.873 0 01-.958 2.894 3.874 3.874 0 01-2.752 1.308c-7.495.311-23.526.918-29.278.662a1.262 1.262 0 01-1.11-1.729 2.82 2.82 0 011.444-1.52l26.481-12.171 4.675-.757z" fill="url(#paint26_linear_154:996)"/><path d="M297.424 341.062l-.807 6.8s-4.638 2.16-7.806-.273l1.921-7.578 6.692 1.051z" fill="url(#paint27_linear_154:996)"/><path d="M296.818 213.218c.348 1.775 1.871 88.619-7.412 127.536a1.318 1.318 0 00.778 1.537c1.426.582 4.214 1.426 7.559 1.536.504.016.999-.135 1.408-.43.409-.296.707-.719.85-1.202 2.652-9.03 15.367-54.27 17.026-97.486 1.853-48.291 0-1.644 0-1.644l-1.087-29.851-19.122.004z" fill="url(#paint28_linear_154:996)"/><path d="M327.062 347.372s1.599 2.87 3.147 10.501a2.372 2.372 0 01-1.145 2.534 2.354 2.354 0 01-.937.299c-2.474.244-6.284.556-9.335.535a2.346 2.346 0 01-1.755-.793 2.349 2.349 0 01-.579-1.837c.339-2.784 1.391-7.351 4.646-10.911l5.958-.328z" fill="url(#paint29_linear_154:996)"/><path d="M328.466 338.625l-1.885 10.284s-1.864 1.386-5.552.381l.9-11.065 6.537.4z" fill="url(#paint30_linear_154:996)"/><path d="M333.56 215.882c7.591 45.82-1.648 113.247-4.763 126.444a2.058 2.058 0 01-1.662 1.563c-1.391.231-3.681.419-5.938-.237a1.882 1.882 0 01-1.356-1.737c-.419-10.669.334-76.169-6.742-102.055a5.874 5.874 0 00-2.268-3.241l-13.729-9.762-1.053-15.778 37.511 4.803z" fill="url(#paint31_linear_154:996)"/><path d="M324.312 157.068l8.727-22.03s21.252 14.439 24.748 32.747c-4.019.297-11.324 1.34-18.475 4.952-1.572-8.647-15-15.669-15-15.669z" fill="#91B3FA"/><path d="M308.228 110.592l7.237 20.936a.753.753 0 01-.343.908c-1.973 1.09-9.083 4.245-17.652-1.188a3.562 3.562 0 01-1.635-2.537l-2.344-18.12 14.737.001z" fill="url(#paint32_linear_154:996)"/><path d="M321.968 132.681l-8.638-7.337-12.924 31.55 9.424 125.372 29.424.88a.757.757 0 00.726-.476.743.743 0 00.052-.302l-4.111-120.612s-.113-26.059-2.882-26.715c-2.769-.656-11.071-2.36-11.071-2.36z" fill="#91B3FA"/><path d="M280.849 154.427l.053.204-.273.092-.103.339.603.056 3.015 24.893v.011l9.609 103.863c.025.21-.234.389-.074.518.161.13.191.179.389.149l15.842-2.294-4.667-62.346-.028-.092-4.684-64.566-4.234-25.93v-.011l-.778-3.991-4.346 3.76h-.097l-1.242.067-.519.025c-.789.21-4.033 1.426-4.033 1.426s-1.133.506-1.675.765a.805.805 0 00-.064.036c-.16.081-.313.167-.479.253-.025.013.119.025.094.044-.333.184-.639.389-.639.604v.012l-1.621 21.988v.076l-.049.049z" fill="#7D97F4"/><path d="M295.494 156.639v3.069l-11.347-.682v-3.41l11.347 1.023z" fill="url(#paint33_linear_154:996)"/><path d="M301.104 164.155a.323.323 0 00.146-.037l9.928-5.332a.305.305 0 00.16-.227l1.361-9.157 3.621-.648a.31.31 0 00.241-.213l3.831-12.446a.308.308 0 10-.59-.182l-3.775 12.265-3.655.648a.307.307 0 00-.251.259l-1.371 9.224-9.792 5.262a.308.308 0 00.146.58v.004z" fill="url(#paint34_linear_154:996)"/><path d="M298.74 161.09a.248.248 0 00.116-.031.24.24 0 00.108-.14.229.229 0 00-.023-.176l-5.21-9.133.859-5.163a.232.232 0 00-.02-.14.23.23 0 00-.099-.101l-4.192-2.231 1.065-14.849a.234.234 0 00-.214-.248.234.234 0 00-.248.214l-1.075 14.999a.23.23 0 00.122.222l4.178 2.223-.847 5.079a.237.237 0 00.028.152l5.251 9.205a.25.25 0 00.085.086c.035.02.075.031.116.032z" fill="url(#paint35_linear_154:996)"/><path d="M305.714 177.153s23.855 13.484 31.911 1.971c1.672-2.391 2.074-4.767 1.659-7.032 7.153-3.612 14.46-4.656 18.475-4.952 1.054 5.52.497 11.39-2.746 17.323-14.103 25.8-52.457-1.426-52.457-1.426l3.158-5.884z" fill="#91B3FA"/><path d="M308.581 194.214l-13.022-45.477a1.321 1.321 0 00-1.121-.955 568.31 568.31 0 00-17.091-1.716c-9.507-.804-20.549-1.456-27.147-.908a1.333 1.333 0 00-1.225 1.288c-.006.217.041.432.137.627 3.752 7.591 19.188 38.47 26.915 48.585a1.33 1.33 0 001.074.527l30.208-.28a1.34 1.34 0 001.054-.531 1.326 1.326 0 00.218-1.16z" fill="url(#paint36_linear_154:996)"/><path d="M275.998 142.123l-9.442-1.572a.666.666 0 00-.626.227.679.679 0 00-.129.653l.935 2.833a.686.686 0 00.553.459l9.086 1.213a.678.678 0 00.75-.826l-.579-2.472a.677.677 0 00-.548-.515z" fill="url(#paint37_linear_154:996)"/><path d="M283.066 150.116l-.778-4.051a.934.934 0 00-.825-.755l-19.069-1.936a.935.935 0 00-.8.316.94.94 0 00-.206.836l1.214 5.048a.93.93 0 00.863.716l18.635.939a.934.934 0 00.951-.693.945.945 0 00.015-.42z" fill="url(#paint38_linear_154:996)"/><path d="M305.434 183.226s1.815-7.459 1.082-10.105c-.732-2.646-2.149-6.049-6.871-5.293-4.722.755-10.299 2.747-10.299 2.747s.281 3.447 3.872 2.334l-2.227 1.723s.319 2.76 3.353 1.286l-2.075 2.284s1.303 2.268 3.535.813c2.231-1.455 3.3 5.11 9.63 4.211z" fill="url(#paint39_linear_154:996)"/><path d="M328.171 183.85c2.217 0 4.252-.328 5.8-1.179a.298.298 0 00.155-.184c.013-.039.017-.081.013-.122a.308.308 0 00-.465-.234c-6.353 3.49-22.051-2.486-22.209-2.547-.042-.015-3.092-1.075-4.182-3.202a.306.306 0 00-.408-.12.308.308 0 00-.141.401c1.205 2.352 4.386 3.455 4.521 3.501.497.189 9.679 3.686 16.916 3.686z" fill="url(#paint40_linear_154:996)"/><path d="M336.781 195.605c.166 0 .302 0 .308-.169.007-.168-.129-.247-.298-.259-18.121-.623-28.435-8.886-28.537-8.97a.308.308 0 00-.434.059c-.108.13-.089.205.042.313.104.085 10.581 9.021 28.912 9.021l.007.005z" fill="url(#paint41_linear_154:996)"/><path d="M289.114 90.747s-3.492 12.698-2.949 19.02c.543 6.321-.221 10.588 7.213 10.814 7.435.225 13.03-4.263 15.446-10.987 0 0 3.809-10.372 2.081-14.148-1.729-3.777-21.791-4.699-21.791-4.699z" fill="url(#paint42_linear_154:996)"/><path d="M318.743 91.452c-1.583-.985-2.614-.648-3.217-.147a.496.496 0 01-.547.06c-.016-.186-1.217-13.165-18.911-10.882a4.566 4.566 0 01-4.554-2.273c-2.093-3.685-6.06-9.101-9.058-3.81-4.262 7.53-5.527 17.407 6.548 19.448a35.22 35.22 0 002.158.296c4.984 1.229 10.661 1.617 12.766 2.147 3.514.885.829 9.064.829 9.064l.917-.13 1.955-.28c.284-.04.56.28.584.567l.453 5.586a.534.534 0 00.45.485c.893.097 3.212.009 6.776-2.606 3.483-2.557 1.815-3.854.745-4.35a.49.49 0 01-.136-.778c4.757-5.18 4.995-10.678 2.242-12.397z" fill="url(#paint43_linear_154:996)"/><path d="M305.646 106.637s.891-7.92 4.621-6.27c3.731 1.65-.552 8.816-3.263 9.49l-1.358-3.22z" fill="url(#paint44_linear_154:996)"/><path d="M285.869 91.46a.247.247 0 00.199-.32.251.251 0 00-.081-.117c-2.544-2.012-3.94-4.338-4.149-6.913-.37-4.48 3.004-8.248 3.038-8.286a.248.248 0 00-.026-.338.247.247 0 00-.339.008c-.145.16-3.548 3.958-3.164 8.653.221 2.722 1.685 5.16 4.336 7.26a.25.25 0 00.186.053z" fill="#91B3FA"/><defs><linearGradient id="paint0_linear_154:996" x1="407.103" y1="468.997" x2="85.565" y2="69.669" gradientUnits="userSpaceOnUse"><stop stop-color="#6DBBF4"/><stop offset="1" stop-color="#DAF8FE"/></linearGradient><linearGradient id="paint1_linear_154:996" x1="216.233" y1="-81.634" x2="85.783" y2="381.462" gradientUnits="userSpaceOnUse"><stop stop-color="#0487FF"/><stop offset="1" stop-color="#0076B8"/></linearGradient><linearGradient id="paint2_linear_154:996" x1="321.355" y1="-1.103" x2="-98.695" y2="433.296" gradientUnits="userSpaceOnUse"><stop stop-color="#FFA28E"/><stop offset="1" stop-color="#FE9A62"/></linearGradient><linearGradient id="paint3_linear_154:996" x1="48494.9" y1="-13765.3" x2="43988.5" y2="5453.27" gradientUnits="userSpaceOnUse"><stop stop-color="#0065C2"/><stop offset="1" stop-color="#0050C9"/></linearGradient><linearGradient id="paint4_linear_154:996" x1="136051" y1="-8943.93" x2="135335" y2="4226.77" gradientUnits="userSpaceOnUse"><stop stop-color="#024B8D"/><stop offset=".984" stop-color="#0248B1"/></linearGradient><linearGradient id="paint5_linear_154:996" x1="227719" y1="-9537.74" x2="227231" y2="4545.46" gradientUnits="userSpaceOnUse"><stop stop-color="#0065C2"/><stop offset="1" stop-color="#0050C9"/></linearGradient><linearGradient id="paint6_linear_154:996" x1="228.658" y1="-40.574" x2="208.709" y2="138.965" gradientUnits="userSpaceOnUse"><stop stop-color="#E1473D"/><stop offset="1" stop-color="#E9605A"/></linearGradient><linearGradient id="paint7_linear_154:996" x1="125.48" y1="275.765" x2="153.393" y2="275.765" gradientUnits="userSpaceOnUse"><stop stop-color="#53D8FF"/><stop offset="1" stop-color="#3840F7"/></linearGradient><linearGradient id="paint8_linear_154:996" x1="24647.5" y1="126568" x2="28251.2" y2="126568" gradientUnits="userSpaceOnUse"><stop stop-color="#53D8FF"/><stop offset="1" stop-color="#3840F7"/></linearGradient><linearGradient id="paint9_linear_154:996" x1="56350.7" y1="294014" x2="62359.9" y2="294014" gradientUnits="userSpaceOnUse"><stop stop-color="#53D8FF"/><stop offset="1" stop-color="#3840F7"/></linearGradient><linearGradient id="paint10_linear_154:996" x1="37280.1" y1="127292" x2="40883.3" y2="127292" gradientUnits="userSpaceOnUse"><stop stop-color="#53D8FF"/><stop offset="1" stop-color="#3840F7"/></linearGradient><linearGradient id="paint11_linear_154:996" x1="72649.3" y1="292167" x2="78658.9" y2="292167" gradientUnits="userSpaceOnUse"><stop stop-color="#53D8FF"/><stop offset="1" stop-color="#3840F7"/></linearGradient><linearGradient id="paint12_linear_154:996" x1="49916.2" y1="126568" x2="53519.4" y2="126568" gradientUnits="userSpaceOnUse"><stop stop-color="#53D8FF"/><stop offset="1" stop-color="#3840F7"/></linearGradient><linearGradient id="paint13_linear_154:996" x1="124.942" y1="251.318" x2="92.999" y2="270.075" gradientUnits="userSpaceOnUse"><stop stop-color="#4F52FF"/><stop offset="1" stop-color="#4042E2"/></linearGradient><linearGradient id="paint14_linear_154:996" x1="17641.1" y1="35943.7" x2="15853.2" y2="37446" gradientUnits="userSpaceOnUse"><stop stop-color="#53D8FF"/><stop offset="1" stop-color="#3840F7"/></linearGradient><linearGradient id="paint15_linear_154:996" x1="40236.7" y1="58696.9" x2="35655.4" y2="60403" gradientUnits="userSpaceOnUse"><stop stop-color="#4F52FF"/><stop offset="1" stop-color="#4042E2"/></linearGradient><linearGradient id="paint16_linear_154:996" x1="23556.1" y1="34490" x2="21927.8" y2="35811" gradientUnits="userSpaceOnUse"><stop stop-color="#53D8FF"/><stop offset="1" stop-color="#3840F7"/></linearGradient><linearGradient id="paint17_linear_154:996" x1="48914" y1="56230.3" x2="45441.5" y2="57198.6" gradientUnits="userSpaceOnUse"><stop stop-color="#4F52FF"/><stop offset="1" stop-color="#4042E2"/></linearGradient><linearGradient id="paint18_linear_154:996" x1="28037.5" y1="33188.6" x2="26545.2" y2="34361.4" gradientUnits="userSpaceOnUse"><stop stop-color="#53D8FF"/><stop offset="1" stop-color="#3840F7"/></linearGradient><linearGradient id="paint19_linear_154:996" x1="16895.7" y1="32277.3" x2="15765.1" y2="40964.8" gradientUnits="userSpaceOnUse"><stop stop-color="#4F52FF"/><stop offset="1" stop-color="#4042E2"/></linearGradient><linearGradient id="paint20_linear_154:996" x1="23484.5" y1="28557" x2="20364" y2="43615.7" gradientUnits="userSpaceOnUse"><stop stop-color="#4F52FF"/><stop offset="1" stop-color="#4042E2"/></linearGradient><linearGradient id="paint21_linear_154:996" x1="28175.8" y1="30275.6" x2="23507.3" y2="41582.6" gradientUnits="userSpaceOnUse"><stop stop-color="#4F52FF"/><stop offset="1" stop-color="#4042E2"/></linearGradient><linearGradient id="paint22_linear_154:996" x1="106690" y1="-41214.7" x2="89006.7" y2="14014.4" gradientUnits="userSpaceOnUse"><stop stop-color="#024B8D"/><stop offset=".984" stop-color="#0248B1"/></linearGradient><linearGradient id="paint23_linear_154:996" x1="302.144" y1="13.603" x2="225.621" y2="131.865" gradientUnits="userSpaceOnUse"><stop stop-color="#FEBBBA"/><stop offset="1" stop-color="#FF928E"/></linearGradient><linearGradient id="paint24_linear_154:996" x1="348.062" y1="147.835" x2="347.619" y2="147.835" gradientUnits="userSpaceOnUse"><stop stop-color="#09005D"/><stop offset="1" stop-color="#1A0F91"/></linearGradient><linearGradient id="paint25_linear_154:996" x1="195.95" y1="164.168" x2="195.944" y2="164.176" gradientUnits="userSpaceOnUse"><stop stop-color="#53EAC9"/><stop offset="1" stop-color="#45AED8"/></linearGradient><linearGradient id="paint26_linear_154:996" x1="119964" y1="49759.8" x2="128902" y2="70235.3" gradientUnits="userSpaceOnUse"><stop stop-color="#09005D"/><stop offset="1" stop-color="#1A0F91"/></linearGradient><linearGradient id="paint27_linear_154:996" x1="31894.7" y1="27448.2" x2="31322.5" y2="27448.2" gradientUnits="userSpaceOnUse"><stop stop-color="#FEBBBA"/><stop offset="1" stop-color="#FF928E"/></linearGradient><linearGradient id="paint28_linear_154:996" x1="98117.5" y1="277527" x2="145414" y2="291506" gradientUnits="userSpaceOnUse"><stop stop-color="#09005D"/><stop offset="1" stop-color="#1A0F91"/></linearGradient><linearGradient id="paint29_linear_154:996" x1="50417.1" y1="40419.2" x2="60795.2" y2="51662.7" gradientUnits="userSpaceOnUse"><stop stop-color="#09005D"/><stop offset="1" stop-color="#1A0F91"/></linearGradient><linearGradient id="paint30_linear_154:996" x1="29210.7" y1="35776.7" x2="28784.1" y2="35776.7" gradientUnits="userSpaceOnUse"><stop stop-color="#FEBBBA"/><stop offset="1" stop-color="#FF928E"/></linearGradient><linearGradient id="paint31_linear_154:996" x1="144087" y1="271509" x2="206500" y2="297222" gradientUnits="userSpaceOnUse"><stop stop-color="#09005D"/><stop offset="1" stop-color="#1A0F91"/></linearGradient><linearGradient id="paint32_linear_154:996" x1="89205.9" y1="36276.9" x2="87368.7" y2="35375.3" gradientUnits="userSpaceOnUse"><stop stop-color="#FEBBBA"/><stop offset="1" stop-color="#FF928E"/></linearGradient><linearGradient id="paint33_linear_154:996" x1="297.062" y1="163.042" x2="256.971" y2="134.191" gradientUnits="userSpaceOnUse"><stop stop-color="#9CFFFB"/><stop offset="1" stop-color="#9BFFFA"/></linearGradient><linearGradient id="paint34_linear_154:996" x1="75972.1" y1="46505.8" x2="75014.1" y2="46030.7" gradientUnits="userSpaceOnUse"><stop stop-color="#DAE3FE"/><stop offset="1" stop-color="#E9EFFD"/></linearGradient><linearGradient id="paint35_linear_154:996" x1="34078.9" y1="50561.1" x2="33431" y2="50561.1" gradientUnits="userSpaceOnUse"><stop stop-color="#DAE3FE"/><stop offset="1" stop-color="#E9EFFD"/></linearGradient><linearGradient id="paint36_linear_154:996" x1="298.605" y1="125.12" x2="283.599" y2="205.345" gradientUnits="userSpaceOnUse"><stop stop-color="#0487FF"/><stop offset="1" stop-color="#0076B8"/></linearGradient><linearGradient id="paint37_linear_154:996" x1="19981.3" y1="-2276.15" x2="19625.4" y2="1247.15" gradientUnits="userSpaceOnUse"><stop stop-color="#0065C2"/><stop offset="1" stop-color="#0050C9"/></linearGradient><linearGradient id="paint38_linear_154:996" x1="37905.7" y1="-3373.74" x2="37509.3" y2="1775.66" gradientUnits="userSpaceOnUse"><stop stop-color="#0065C2"/><stop offset="1" stop-color="#0050C9"/></linearGradient><linearGradient id="paint39_linear_154:996" x1="66008.9" y1="28248.1" x2="63687.8" y2="28248.1" gradientUnits="userSpaceOnUse"><stop stop-color="#FEBBBA"/><stop offset="1" stop-color="#FF928E"/></linearGradient><linearGradient id="paint40_linear_154:996" x1="110505" y1="14170.3" x2="104701" y2="14170.3" gradientUnits="userSpaceOnUse"><stop stop-color="#DAE3FE"/><stop offset="1" stop-color="#E9EFFD"/></linearGradient><linearGradient id="paint41_linear_154:996" x1="118890" y1="18348.4" x2="112251" y2="18348.4" gradientUnits="userSpaceOnUse"><stop stop-color="#DAE3FE"/><stop offset="1" stop-color="#E9EFFD"/></linearGradient><linearGradient id="paint42_linear_154:996" x1="200395" y1="25997.2" x2="207459" y2="29271.8" gradientUnits="userSpaceOnUse"><stop stop-color="#FEBBBA"/><stop offset="1" stop-color="#FF928E"/></linearGradient><linearGradient id="paint43_linear_154:996" x1="194930" y1="33988.1" x2="214386" y2="53549.7" gradientUnits="userSpaceOnUse"><stop stop-color="#080148"/><stop offset="1" stop-color="#13088E"/></linearGradient><linearGradient id="paint44_linear_154:996" x1="48203.9" y1="10555.5" x2="50125.4" y2="11162.8" gradientUnits="userSpaceOnUse"><stop stop-color="#FEBBBA"/><stop offset="1" stop-color="#FF928E"/></linearGradient></defs></svg>