<svg width="108" height="28" viewBox="0 0 108 28" fill="none" xmlns="http://www.w3.org/2000/svg">
<rect width="108" height="28" rx="4" fill="#F5F5F5"/>
<path d="M38.3794 11.8843C38.3794 12.299 38.299 12.6587 38.1382 12.9634C37.9774 13.2681 37.7531 13.5177 37.4653 13.7124C37.1776 13.9028 36.839 14.0361 36.4497 14.1123V14.1631C37.186 14.2562 37.7383 14.4932 38.1064 14.874C38.4788 15.2549 38.665 15.7542 38.665 16.3721C38.665 16.9095 38.5381 17.3856 38.2842 17.8003C38.0345 18.215 37.6494 18.5409 37.1289 18.7778C36.6126 19.0106 35.9504 19.127 35.1421 19.127C34.6512 19.127 34.1963 19.0868 33.7773 19.0063C33.3626 18.9302 32.9648 18.8011 32.584 18.6191V17.6289C32.9691 17.8193 33.388 17.9696 33.8408 18.0796C34.2936 18.1854 34.7316 18.2383 35.1548 18.2383C36.0011 18.2383 36.6126 18.0711 36.9893 17.7368C37.3659 17.3983 37.5542 16.937 37.5542 16.353C37.5542 15.951 37.4484 15.6273 37.2368 15.3818C37.0295 15.1322 36.729 14.9502 36.3354 14.8359C35.9461 14.7174 35.4764 14.6582 34.9263 14.6582H33.9995V13.7568H34.9326C35.4362 13.7568 35.8636 13.6828 36.2148 13.5347C36.5661 13.3866 36.8327 13.1792 37.0146 12.9126C37.2008 12.6418 37.2939 12.3223 37.2939 11.9541C37.2939 11.4844 37.1374 11.1226 36.8242 10.8687C36.5111 10.6105 36.0858 10.4814 35.5483 10.4814C35.2183 10.4814 34.9178 10.5153 34.647 10.583C34.3761 10.6507 34.1222 10.7438 33.8853 10.8623C33.6483 10.9808 33.4113 11.1183 33.1743 11.2749L32.6411 10.5513C32.9797 10.2889 33.3923 10.0625 33.8789 9.87207C34.3656 9.68164 34.9178 9.58643 35.5356 9.58643C36.4836 9.58643 37.1945 9.80225 37.6685 10.2339C38.1424 10.6655 38.3794 11.2157 38.3794 11.8843ZM48.0786 14.271C48.0786 15.3162 47.8882 16.1901 47.5073 16.8926C47.1265 17.5908 46.5742 18.1177 45.8506 18.4731C45.1312 18.8244 44.2573 19 43.229 19H40.709V9.71973H43.5083C44.452 9.71973 45.2645 9.89323 45.9458 10.2402C46.6271 10.583 47.1519 11.0929 47.52 11.77C47.8924 12.4429 48.0786 13.2765 48.0786 14.271ZM46.9424 14.3091C46.9424 13.4754 46.8027 12.7878 46.5234 12.2461C46.2484 11.7044 45.8421 11.3024 45.3047 11.04C44.7715 10.7734 44.1177 10.6401 43.3433 10.6401H41.7881V18.0732H43.1021C44.38 18.0732 45.3385 17.758 45.9775 17.1274C46.6208 16.4969 46.9424 15.5575 46.9424 14.3091ZM60.7041 12.043V19H59.752V14.4678C59.752 14.2816 59.7562 14.0933 59.7646 13.9028C59.7773 13.7082 59.7922 13.5135 59.8091 13.3188H59.771L57.4604 19H56.5654L54.312 13.3188H54.2739C54.2866 13.5135 54.2951 13.7082 54.2993 13.9028C54.3078 14.0933 54.312 14.2943 54.312 14.5059V19H53.3535V12.043H54.769L57.0161 17.7305L59.2949 12.043H60.7041ZM68.8926 15.5088C68.8926 16.0801 68.8185 16.59 68.6704 17.0386C68.5223 17.4871 68.3086 17.8659 68.0293 18.1748C67.75 18.4837 67.4115 18.7207 67.0137 18.8857C66.6201 19.0465 66.1737 19.127 65.6743 19.127C65.2088 19.127 64.7814 19.0465 64.3921 18.8857C64.007 18.7207 63.6727 18.4837 63.3892 18.1748C63.1099 17.8659 62.8919 17.4871 62.7354 17.0386C62.583 16.59 62.5068 16.0801 62.5068 15.5088C62.5068 14.7471 62.6359 14.0996 62.894 13.5664C63.1522 13.029 63.5203 12.6206 63.9985 12.3413C64.481 12.0578 65.0544 11.916 65.7188 11.916C66.3535 11.916 66.9079 12.0578 67.3818 12.3413C67.86 12.6248 68.2303 13.0353 68.4927 13.5728C68.7593 14.106 68.8926 14.7513 68.8926 15.5088ZM63.5986 15.5088C63.5986 16.0674 63.6727 16.5519 63.8208 16.9624C63.9689 17.3729 64.1974 17.6903 64.5063 17.9146C64.8153 18.1388 65.2131 18.251 65.6997 18.251C66.1821 18.251 66.5778 18.1388 66.8867 17.9146C67.1999 17.6903 67.4305 17.3729 67.5786 16.9624C67.7267 16.5519 67.8008 16.0674 67.8008 15.5088C67.8008 14.9544 67.7267 14.4762 67.5786 14.0742C67.4305 13.668 67.202 13.3548 66.8931 13.1348C66.5841 12.9147 66.1842 12.8047 65.6934 12.8047C64.9697 12.8047 64.4386 13.0438 64.1001 13.522C63.7658 14.0002 63.5986 14.6624 63.5986 15.5088ZM75.8115 12.043V18.105H76.8081V21.4058H75.7861V19H70.8604V21.4058H69.8511V18.105H70.397C70.7948 17.5549 71.1248 16.9518 71.3872 16.2959C71.6496 15.64 71.8485 14.9523 71.9839 14.2329C72.1193 13.5093 72.1912 12.7793 72.1997 12.043H75.8115ZM74.7896 12.8809H73.1392C73.1011 13.4987 73.0101 14.1271 72.8662 14.7661C72.7266 15.4051 72.5404 16.0145 72.3076 16.5942C72.0749 17.1698 71.804 17.6733 71.4951 18.105H74.7896V12.8809ZM80.8706 11.916C81.4631 11.916 81.9709 12.0472 82.394 12.3096C82.8172 12.5719 83.141 12.9401 83.3652 13.4141C83.5895 13.8838 83.7017 14.4339 83.7017 15.0645V15.7183H78.8965C78.9092 16.535 79.1123 17.1571 79.5059 17.5845C79.8994 18.0119 80.4538 18.2256 81.1689 18.2256C81.609 18.2256 81.9984 18.1854 82.3369 18.105C82.6755 18.0246 83.0267 17.9061 83.3906 17.7495V18.6763C83.0394 18.8328 82.6903 18.9471 82.3433 19.019C82.0005 19.091 81.5942 19.127 81.1245 19.127C80.4559 19.127 79.8719 18.9915 79.3726 18.7207C78.8774 18.4456 78.4924 18.0436 78.2173 17.5146C77.9422 16.9857 77.8047 16.3382 77.8047 15.5723C77.8047 14.8232 77.9295 14.1758 78.1792 13.6299C78.4331 13.0798 78.7886 12.6566 79.2456 12.3604C79.7069 12.0641 80.2485 11.916 80.8706 11.916ZM80.8579 12.7793C80.2951 12.7793 79.8465 12.9634 79.5122 13.3315C79.1779 13.6997 78.979 14.2139 78.9155 14.874H82.5972C82.5929 14.4593 82.5273 14.0954 82.4004 13.7822C82.2777 13.4648 82.0894 13.2194 81.8354 13.0459C81.5815 12.8682 81.2557 12.7793 80.8579 12.7793ZM90.7095 19H89.6367V12.9253H87.5229C87.4383 14.0213 87.3304 14.9608 87.1992 15.7437C87.0723 16.5223 86.9115 17.1592 86.7168 17.6543C86.5264 18.1452 86.2936 18.507 86.0186 18.7397C85.7477 18.9683 85.424 19.0825 85.0474 19.0825C84.9331 19.0825 84.8252 19.0762 84.7236 19.0635C84.6221 19.0508 84.5353 19.0296 84.4634 19V18.2002C84.5184 18.2171 84.5755 18.2298 84.6348 18.2383C84.6982 18.2467 84.7638 18.251 84.8315 18.251C85.022 18.251 85.1955 18.1727 85.3521 18.0161C85.5129 17.8553 85.6567 17.6141 85.7837 17.2925C85.9149 16.9709 86.0312 16.5646 86.1328 16.0737C86.2344 15.5786 86.3232 14.9967 86.3994 14.3281C86.4798 13.6553 86.5496 12.8936 86.6089 12.043H90.7095V19ZM93.9912 14.9121H96.124C96.7165 14.9121 97.2095 14.9862 97.603 15.1343C97.9966 15.2824 98.2907 15.5024 98.4854 15.7944C98.6842 16.0864 98.7837 16.4482 98.7837 16.8799C98.7837 17.3115 98.6864 17.686 98.4917 18.0034C98.3013 18.3208 98.005 18.5662 97.603 18.7397C97.2052 18.9132 96.6911 19 96.0605 19H92.9312V12.043H93.9912V14.9121ZM97.7236 16.9307C97.7236 16.5033 97.5713 16.207 97.2666 16.042C96.9661 15.8727 96.5451 15.7881 96.0034 15.7881H93.9912V18.1431H96.0098C96.5176 18.1431 96.9302 18.05 97.2476 17.8638C97.5649 17.6733 97.7236 17.3623 97.7236 16.9307Z" fill="#111111"/>
<path d="M20.25 15.5293V9.97069C20.2498 9.78876 20.2019 9.61006 20.1112 9.45237C20.0204 9.29469 19.8899 9.16352 19.7327 9.07193L14.7848 6.19237C14.5464 6.05359 14.2755 5.98047 13.9997 5.98047C13.7238 5.98047 13.4529 6.05359 13.2145 6.19237L8.26725 9.07193C8.11006 9.16352 7.97959 9.29469 7.88884 9.45237C7.79809 9.61006 7.75022 9.78876 7.75 9.97069V15.5293C7.75011 15.7113 7.79792 15.8902 7.88868 16.048C7.97943 16.2058 8.10996 16.3371 8.26725 16.4287L13.2152 19.3083C13.4536 19.4468 13.7245 19.5199 14.0003 19.5199C14.2761 19.5199 14.547 19.4468 14.7855 19.3083L19.7334 16.4287C19.8906 16.337 20.021 16.2057 20.1116 16.0479C20.2022 15.8901 20.25 15.7113 20.25 15.5293Z" stroke="#111111" stroke-linecap="round" stroke-linejoin="round"/>
<path d="M7.91309 9.42969L14.0003 13.0104M14.0003 13.0104L20.0876 9.42969M14.0003 13.0104V19.5208" stroke="#111111" stroke-linecap="round" stroke-linejoin="round"/>
<path d="M16.0466 21.003C15.7721 21.0333 15.5742 21.2804 15.6045 21.5549C15.6348 21.8293 15.8819 22.0273 16.1563 21.997L16.0466 21.003ZM5.33301 17.3005C5.33301 16.8266 5.54985 16.3388 6.01627 15.8584C6.48503 15.3756 7.18528 14.9242 8.08263 14.5462L7.69449 13.6246C6.7165 14.0365 5.88897 14.5539 5.29879 15.1618C4.70628 15.7721 4.33301 16.4969 4.33301 17.3005H5.33301ZM19.7174 14.4648C20.675 14.8444 21.4266 15.3067 21.9309 15.8058C22.4333 16.3029 22.6663 16.8096 22.6663 17.3005H23.6663C23.6663 16.4671 23.2652 15.7192 22.6343 15.0949C22.0054 14.4726 21.1246 13.9469 20.0859 13.5352L19.7174 14.4648ZM11.7681 20.9817C9.83943 20.7481 8.19305 20.2221 7.04477 19.5344C5.8785 18.836 5.33301 18.0436 5.33301 17.3005H4.33301C4.33301 18.5674 5.24819 19.6242 6.53101 20.3924C7.83182 21.1713 9.62293 21.7292 11.6479 21.9744L11.7681 20.9817ZM22.6663 17.3005C22.6663 18.0555 22.1026 18.8617 20.8996 19.567C19.7163 20.2608 18.0227 20.7849 16.0466 21.003L16.1563 21.997C18.2299 21.7681 20.0687 21.2134 21.4054 20.4297C22.7225 19.6574 23.6663 18.5874 23.6663 17.3005H22.6663Z" fill="black"/>
<path d="M13.55 21.2415C13.75 21.357 13.75 21.6456 13.55 21.7611L11.325 23.0457C11.125 23.1612 10.875 23.0168 10.875 22.7859L10.875 20.2167C10.875 19.9858 11.125 19.8414 11.325 19.9569L13.55 21.2415Z" fill="#111111"/>
</svg>
