<svg width="21" height="10" fill="none" xmlns="http://www.w3.org/2000/svg"><path d="M7.108 7.12l.878.895c-.84.961-1.878 1.442-3.115 1.442-1.226 0-2.247-.392-3.065-1.177C1 7.485.596 6.486.596 5.282c0-1.215.415-2.22 1.243-3.016.829-.806 1.873-1.21 3.132-1.21 1.237 0 2.28.465 3.131 1.392l-.861.945c-.387-.376-.751-.635-1.094-.779-.342-.144-.745-.215-1.21-.215-.828 0-1.524.265-2.087.795-.552.53-.828 1.204-.828 2.021 0 .807.276 1.491.828 2.055.552.563 1.21.845 1.972.845.464 0 .861-.078 1.193-.232.342-.155.706-.409 1.093-.762z" fill="#fff"/><path d="M20.25 5h-4.5" stroke="#fff" stroke-width="1.5" stroke-linecap="square" stroke-linejoin="round"/><path d="M14.091.482L10.55 10H9.104L12.653.482h1.438z" fill="#fff"/></svg>