<svg width="13" height="14" fill="none" xmlns="http://www.w3.org/2000/svg"><path d="M11.057 10.02l1.366 1.392c-1.306 1.495-2.921 2.242-4.846 2.242-1.907 0-3.496-.61-4.768-1.83C1.555 10.588.928 9.033.928 7.16c0-1.89.644-3.454 1.933-4.691C4.149 1.215 5.773.587 7.73.587c1.925 0 3.549.722 4.872 2.165l-1.34 1.47c-.602-.585-1.169-.989-1.701-1.212-.533-.223-1.16-.335-1.882-.335-1.288 0-2.37.412-3.247 1.237-.86.825-1.289 1.873-1.289 3.144 0 1.255.43 2.32 1.289 3.196.859.877 1.881 1.315 3.067 1.315.722 0 1.34-.12 1.856-.361.532-.24 1.1-.636 1.7-1.186z" fill="#fff"/></svg>