<svg width="24" height="24" fill="none" xmlns="http://www.w3.org/2000/svg"><path d="M2.834 18.242c0 .004 0 .01-.004.018l.004-.018zm17.787.77a1.255 1.255 0 01-.45-.093l-2.661-.944-.02-.008a.482.482 0 00-.353-.005c-.064.025-.647.244-1.258.412-.332.09-1.485.387-2.411.387-2.366 0-4.579-.91-6.23-2.56a8.597 8.597 0 01-2.536-6.118c0-.592.064-1.183.19-1.762.413-1.904 1.504-3.636 3.073-4.875A9.13 9.13 0 0113.608 1.5c2.448 0 4.728.938 6.422 2.633 1.602 1.607 2.48 3.719 2.472 5.948a8.337 8.337 0 01-1.42 4.647l-.01.013-.034.047-.023.032-.007.013a1.03 1.03 0 00-.05.098l.737 2.622a1.126 1.126 0 01-1.074 1.46z" fill="#115DA3"/><path d="M14.056 19.94a.737.737 0 00-.482-.38c-.27-.071-.587-.06-.828-.077a9.458 9.458 0 01-6.039-2.754 9.338 9.338 0 01-2.657-5.284c-.066-.457-.066-.57-.066-.57a.75.75 0 00-1.312-.496s-.37.402-.544.806a7.598 7.598 0 00.516 7.034c.122.203.122.297.094.508L2.27 21.16a1.125 1.125 0 00.375 1.074l.021.018c.202.16.452.248.709.248.145 0 .288-.028.422-.084l2.508-.968a.378.378 0 01.268 0 8.665 8.665 0 002.99.563 8.25 8.25 0 003.511-.781c.256-.12.657-.25.891-.522a.703.703 0 00.091-.768z" fill="#115DA3"/></svg>