<svg width="24" height="24" viewBox="0 0 24 24" fill="none" xmlns="http://www.w3.org/2000/svg">
<path fill-rule="evenodd" clip-rule="evenodd" d="M12 24C18.6274 24 24 18.6274 24 12C24 5.37258 18.6274 0 12 0C5.37258 0 0 5.37258 0 12C0 18.6274 5.37258 24 12 24ZM18.7526 8.1585C19.1163 7.74287 19.0741 7.11111 18.6585 6.74742C18.2429 6.38374 17.6111 6.42586 17.2474 6.8415L9.98438 15.1421L6.76429 11.3257C6.40814 10.9036 5.77724 10.8501 5.35513 11.2063C4.93302 11.5624 4.87956 12.1934 5.23571 12.6155L9.2063 17.3213C9.39428 17.5441 9.67011 17.6738 9.9616 17.6764C10.2531 17.6791 10.5312 17.5544 10.7232 17.335L18.7526 8.1585Z" fill="#80C9F9"/>
</svg>
