<svg width="147" height="44" fill="none" xmlns="http://www.w3.org/2000/svg"><g clip-path="url(#clip0_221:2694)" fill="#115DA3"><path d="M141.058 8.961h-1.023v-.695h2.822v.695h-1.019v2.77h-.78v-2.77zm2.524-.695h.82l.899 1.46.899-1.46h.8v3.466h-.731V9.389l-.943 1.511h-.08l-.944-1.51v2.342h-.73l.01-3.466zM0 16.794v-.09C0 7.52 7.148 0 16.97 0c9.82 0 16.889 7.43 16.889 16.623v.095c0 9.178-7.144 16.699-16.97 16.699C7.065 33.417 0 25.972 0 16.794zm26.522 0v-.09c0-5.542-4.004-10.15-9.642-10.15s-9.558 4.533-9.558 10.074v.096c0 5.54 4.004 10.145 9.647 10.145 5.643 0 9.553-4.54 9.553-10.075zM52.423 8.84l-1.67 6.513a5.429 5.429 0 00-3.71-1.642c-2.484 0-4.128 1.114-4.128 5.5v13.707h-6.403V7.581h6.403v1.693a6.656 6.656 0 012.268-1.657 6.573 6.573 0 012.74-.565 6.054 6.054 0 012.43.425 6.123 6.123 0 012.07 1.363zm37.048 24.078h-6.398V19.212c0-4.534-1.252-5.884-3.9-5.884-2.648 0-3.939 1.35-3.939 5.743v13.847h-6.403V19.212c0-4.534-1.252-5.884-3.895-5.884s-3.944 1.35-3.944 5.743v13.847h-6.398V7.581h6.398v1.692a6.953 6.953 0 012.43-1.697 6.869 6.869 0 012.905-.524c3.105 0 4.918.917 6.726 3.234 1.67-1.783 3.711-3.234 7.745-3.234 6.214 0 8.673 4.443 8.673 11.586v14.28zm2.464-12.84v-.09a12.855 12.855 0 01.928-4.975 12.715 12.715 0 012.771-4.212 12.51 12.51 0 014.174-2.779 12.37 12.37 0 014.913-.904c4.595 0 7.452 1.566 9.737 4.15l-4.233 4.614c-1.545-1.662-3.094-2.725-5.548-2.725-3.478 0-5.917 3.093-5.917 6.735v.096c0 3.783 2.409 6.825 6.19 6.825 2.32 0 3.909-1.007 5.593-2.63l4.049 4.151c-2.365 2.63-5.097 4.534-9.965 4.534a12.303 12.303 0 01-4.876-.906 12.441 12.441 0 01-4.142-2.763 12.642 12.642 0 01-2.75-4.182 12.784 12.784 0 01-.924-4.939zm22.716.036v-.091c0-7.103 5.644-12.87 13.239-12.87 7.595 0 13.149 5.682 13.149 12.78v.09c0 7.102-5.643 12.87-13.238 12.87-7.596 0-13.15-5.672-13.15-12.78zm19.563 0v-.091c0-3.642-2.593-6.825-6.413-6.825-3.975 0-6.324 3.087-6.324 6.734v.09c0 3.648 2.593 6.826 6.413 6.826 3.944 0 6.324-3.087 6.324-6.734zM5.787 41.607l-2.275-3.526h1.197l1.594 2.57 1.625-2.57h1.157l-2.28 3.501V43.9h-.993l-.025-2.292zm3.349-.599c0-.807.316-1.58.879-2.151a2.98 2.98 0 012.121-.892c.796 0 1.56.321 2.122.892.562.57.879 1.344.879 2.15 0 .808-.317 1.582-.88 2.152a2.98 2.98 0 01-2.12.891 2.98 2.98 0 01-2.123-.89 3.065 3.065 0 01-.878-2.152zm4.967 0a2.04 2.04 0 00-.556-1.47 1.986 1.986 0 00-1.43-.615 1.916 1.916 0 00-1.398.607 1.969 1.969 0 00-.535 1.443 2.01 2.01 0 00.54 1.472 1.958 1.958 0 001.427.613 1.91 1.91 0 001.412-.598 1.962 1.962 0 00.54-1.452zm2.087.423v-3.35h.993v3.31c0 1.078.551 1.652 1.45 1.652.9 0 1.446-.539 1.446-1.612v-3.35h.994v3.3c0 1.737-.964 2.609-2.484 2.609s-2.4-.872-2.4-2.559zm6.214-3.35h2.559a2.28 2.28 0 011.654.585 1.761 1.761 0 01.496 1.254c.013.409-.116.81-.365 1.131a1.721 1.721 0 01-.996.632l1.545 2.201h-1.192l-1.41-2.015h-1.282v2.015h-.994l-.015-5.803zm2.484 2.887c.72 0 1.177-.383 1.177-.973 0-.624-.442-.967-1.187-.967h-1.465v1.955l1.475-.015zm5.737-2.887h2.26c1.346 0 2.181.776 2.181 1.95 0 1.304-1.033 1.984-2.295 1.984h-1.138v1.87h-.993l-.015-5.804zm2.18 3.023c.76 0 1.238-.434 1.238-1.038 0-.68-.497-1.038-1.237-1.038h-1.173v2.096l1.173-.02zm3.215-3.023h2.553a2.28 2.28 0 011.654.585 1.74 1.74 0 01.497 1.254c.012.409-.117.81-.366 1.131a1.721 1.721 0 01-.995.632l1.55 2.201h-1.217L38.29 41.87h-1.262v2.015h-.994l-.014-5.803zm2.483 2.887c.726 0 1.183-.383 1.183-.973 0-.624-.443-.967-1.188-.967h-1.47v1.955l1.475-.015zm5.405-2.948h.934l2.524 5.86h-1.078l-.581-1.406h-2.712l-.577 1.425H41.37l2.538-5.878zm1.446 3.527l-.993-2.327-.994 2.327h1.987zm2.285-.539a2.982 2.982 0 01.85-2.16 2.87 2.87 0 012.13-.862 2.94 2.94 0 011.218.212c.386.156.736.392 1.027.694l-.65.756a2.27 2.27 0 00-1.605-.726 1.91 1.91 0 00-1.373.62 1.964 1.964 0 00-.52 1.43 1.984 1.984 0 00.5 1.447 1.934 1.934 0 001.373.639 2.209 2.209 0 001.65-.75l.645.664a2.948 2.948 0 01-1.047.784 2.91 2.91 0 01-1.277.249 2.85 2.85 0 01-2.089-.87 2.963 2.963 0 01-.832-2.128zm7.631-1.98h-1.82v-.947h4.655v.947h-1.818v4.866h-.994l-.025-4.866zm3.878-.947h.994V43.9h-.994v-5.818zm2.207 2.927a2.98 2.98 0 01.202-1.164 2.935 2.935 0 011.608-1.643c.363-.15.753-.223 1.145-.215.416-.017.831.056 1.218.212.386.156.737.392 1.028.694l-.646.756a2.244 2.244 0 00-1.605-.725 1.904 1.904 0 00-1.374.618 1.958 1.958 0 00-.518 1.432 1.986 1.986 0 00.506 1.453 1.932 1.932 0 001.386.632 2.237 2.237 0 001.644-.75l.646.664a2.95 2.95 0 01-1.045.78 2.912 2.912 0 01-1.275.248 2.852 2.852 0 01-2.086-.867 2.964 2.964 0 01-.834-2.125zm6.218-2.927h4.253v.917h-3.244v1.511h2.876v.917h-2.876v1.561h3.283v.912h-4.292v-5.818zm5.232 4.675h1.088v1.143h-1.088v-1.143zm4.425-1.748c0-.806.316-1.58.879-2.15a2.977 2.977 0 012.12-.89c.794 0 1.557.32 2.12.89.561.57.877 1.344.877 2.15 0 .806-.316 1.58-.878 2.15-.562.57-1.325.89-2.12.89-.795 0-1.557-.32-2.12-.89a3.062 3.062 0 01-.877-2.15zm4.938 0a2.04 2.04 0 00-.548-1.447 1.987 1.987 0 00-1.4-.623 1.914 1.914 0 00-1.397.607 1.97 1.97 0 00-.534 1.443 2.01 2.01 0 00.539 1.455 1.959 1.959 0 001.408.615 1.91 1.91 0 001.392-.61 1.964 1.964 0 00.53-1.44h.01zm2.112.423v-3.35h.993v3.31c0 1.078.546 1.652 1.45 1.652.904 0 1.44-.539 1.44-1.612v-3.35h.994v3.3c0 1.737-.993 2.609-2.483 2.609-1.49 0-2.395-.872-2.395-2.559zm6.21-3.35h2.558a2.28 2.28 0 011.654.585 1.76 1.76 0 01.496 1.254c.013.409-.116.81-.365 1.131a1.721 1.721 0 01-.996.632l1.55 2.201H94.19l-1.41-2.015h-1.282v2.015h-.994l-.015-5.803zm2.483 2.887c.72 0 1.182-.383 1.182-.973 0-.624-.442-.967-1.187-.967h-1.49v1.955l1.495-.015zm5.737-2.887h2.265c1.341 0 2.176.776 2.176 1.95 0 1.304-1.028 1.984-2.29 1.984h-1.143v1.87h-.993l-.015-5.804zm2.181 3.023c.765 0 1.237-.434 1.237-1.038 0-.68-.497-1.038-1.237-1.038h-1.173v2.096l1.173-.02zm3.213-3.023h2.559a2.28 2.28 0 011.654.585 1.761 1.761 0 01.497 1.254c.012.409-.117.81-.366 1.131a1.722 1.722 0 01-.995.632l1.53 2.216h-1.193l-1.41-2.015h-1.262V43.9h-.994l-.02-5.818zm2.484 2.887c.721 0 1.178-.383 1.178-.973 0-.624-.443-.967-1.188-.967h-1.465v1.955l1.475-.015zm3.419-2.887H111V43.9h-.993v-5.818zm2.205 2.927c0-.806.316-1.58.878-2.15a2.977 2.977 0 012.12-.89c.795 0 1.557.32 2.12.89.562.57.878 1.344.878 2.15 0 .806-.316 1.58-.878 2.15-.563.57-1.325.89-2.12.89-.795 0-1.558-.32-2.12-.89a3.063 3.063 0 01-.878-2.15zm4.938 0a2.048 2.048 0 00-.549-1.447 1.988 1.988 0 00-1.399-.623 1.92 1.92 0 00-1.397.607 1.963 1.963 0 00-.413.666 1.996 1.996 0 00-.122.777 1.992 1.992 0 00.539 1.455 1.959 1.959 0 001.408.615 1.908 1.908 0 001.399-.605 1.965 1.965 0 00.534-1.445zm2.201-2.927h2.548a2.28 2.28 0 011.654.585 1.761 1.761 0 01.497 1.254c.014.408-.115.809-.363 1.131a1.715 1.715 0 01-.993.632l1.545 2.201h-1.193l-1.41-2.015h-1.277v2.015h-.994l-.014-5.803zm2.483 2.887c.721 0 1.178-.383 1.178-.973 0-.624-.442-.967-1.188-.967h-1.465v1.955l1.475-.015zm3.418-2.887h.993V43.9h-.993v-5.818zm3.87.947h-1.823v-.947h4.654v.947h-1.818v4.866h-.993l-.02-4.866zm5.504 2.579l-2.275-3.526h1.197l1.594 2.57 1.625-2.57h1.152l-2.275 3.501V43.9h-1.018v-2.292zm2.856 1.149h1.088v1.143h-1.088v-1.143z"/></g><defs><clipPath id="clip0_221:2694"><path fill="#fff" d="M0 0h147v44H0z"/></clipPath></defs></svg>