<svg width="22" height="22" fill="none" xmlns="http://www.w3.org/2000/svg"><path d="M17.328 21.5c-.915 0-2.2-.33-4.125-1.406-2.34-1.313-4.15-2.524-6.478-4.846C4.48 13.005 3.388 11.553 1.86 8.77.133 5.631.427 3.984.756 3.281c.392-.841.97-1.344 1.718-1.843A8.264 8.264 0 013.817.725l.13-.057c.23-.104.583-.262 1.027-.093.297.111.562.34.978.75.851.84 2.015 2.71 2.445 3.63.288.618.479 1.027.48 1.486 0 .536-.27.95-.598 1.397l-.182.242c-.356.468-.435.604-.383.846.104.486.884 1.933 2.165 3.211 1.281 1.278 2.686 2.009 3.174 2.113.252.054.39-.028.875-.397.069-.053.14-.108.215-.163.5-.371.894-.634 1.418-.634h.003c.456 0 .847.197 1.493.524.844.425 2.771 1.574 3.616 2.427.411.414.64.678.753.975.168.447.01.797-.094 1.032l-.057.128a8.27 8.27 0 01-.716 1.34c-.499.745-1.004 1.322-1.846 1.715a3.161 3.161 0 01-1.386.303z" fill="#115DA3"/></svg>