<svg width="16" height="16" viewBox="0 0 16 16" fill="none" xmlns="http://www.w3.org/2000/svg">
<path d="M8 1.5C4.41031 1.5 1.5 4.41031 1.5 8C1.5 11.5897 4.41031 14.5 8 14.5C11.5897 14.5 14.5 11.5897 14.5 8C14.5 4.41031 11.5897 1.5 8 1.5Z" stroke="#000000" stroke-miterlimit="10"/>
<path d="M7.99945 1.5C6.18476 1.5 4.47852 4.41031 4.47852 8C4.47852 11.5897 6.18476 14.5 7.99945 14.5C9.81413 14.5 11.5204 11.5897 11.5204 8C11.5204 4.41031 9.81413 1.5 7.99945 1.5Z" stroke="#000000" stroke-miterlimit="10"/>
<path d="M3.66602 3.66656C4.86102 4.515 6.36539 5.02094 7.99945 5.02094C9.63351 5.02094 11.1379 4.515 12.3329 3.66656M12.3329 12.3334C11.1379 11.485 9.63351 10.9791 7.99945 10.9791C6.36539 10.9791 4.86102 11.485 3.66602 12.3334" stroke="#000000" stroke-linecap="round" stroke-linejoin="round"/>
<path d="M8 1.5V14.5M14.5 8H1.5" stroke="#000000" stroke-miterlimit="10"/>
</svg>
