<svg width="16" height="16" fill="none" xmlns="http://www.w3.org/2000/svg"><path d="M8 1.5a6.5 6.5 0 100 13 6.5 6.5 0 000-13z" stroke="#000" stroke-miterlimit="10"/><path d="M8 1.5C6.184 1.5 4.478 4.41 4.478 8s1.706 6.5 3.52 6.5c1.815 0 3.521-2.91 3.521-6.5S9.814 1.5 8 1.5z" stroke="#000" stroke-miterlimit="10"/><path d="M3.666 3.667A7.475 7.475 0 007.999 5.02a7.475 7.475 0 004.334-1.354m0 8.666a7.475 7.475 0 00-4.334-1.354 7.475 7.475 0 00-4.333 1.354" stroke="#000" stroke-linecap="round" stroke-linejoin="round"/><path d="M8 1.5v13M14.5 8h-13" stroke="#000" stroke-miterlimit="10"/></svg>