<svg width="18" height="18" fill="none" xmlns="http://www.w3.org/2000/svg"><path d="M12.541 1.583c-1.013 0-1.578.242-2.068.454l-.008.003c-.414.18-.757.328-1.465.328-.708 0-1.052-.149-1.466-.328l-.008-.003c-.49-.212-1.054-.454-2.068-.454-2.097 0-3.875 1.61-3.875 3.692 0 1.85.354 4.512.93 6.719.288 1.1.642 2.132 1.058 2.905.207.384.45.742.735 1.012.286.27.674.506 1.152.506.839 0 1.332-.605 1.614-1.117.278-.507.482-1.158.66-1.729l.014-.044c.217-.691.407-1.285.656-1.714.243-.416.43-.494.598-.494.167 0 .355.078.597.494.25.429.44 1.023.656 1.713l.014.045c.178.571.382 1.222.66 1.729.282.512.776 1.117 1.614 1.117.478 0 .866-.236 1.152-.506.286-.27.528-.628.735-1.012.416-.773.77-1.804 1.058-2.905.576-2.207.93-4.87.93-6.72 0-2.08-1.778-3.69-3.875-3.69z" stroke="#115DA3" stroke-width="1.5"/></svg>