<svg width="56" height="60" fill="none" xmlns="http://www.w3.org/2000/svg"><g filter="url(#filter0_d_394_6531)" stroke="#fff" stroke-width="2"><path d="M16.313 53c3.066 0 4.723-.779 6.27-1.507l.008-.004c1.446-.682 2.785-1.313 5.409-1.313 2.624 0 3.963.631 5.41 1.313l.007.004C34.964 52.22 36.62 53 39.687 53 45.96 53 51 47.788 51 41.412c0-6.489-1.146-15.92-3.018-23.74-.935-3.905-2.065-7.464-3.35-10.07-.641-1.298-1.347-2.413-2.125-3.216C41.732 3.587 40.787 3 39.687 3c-2.08 0-3.34 1.676-4.18 3.438-.777 1.634-1.381 3.74-1.968 5.788l-.193.673c-.668 2.314-1.34 4.493-2.246 6.094-.903 1.597-1.884 2.36-3.1 2.36-1.216 0-2.197-.763-3.1-2.36-.906-1.601-1.578-3.78-2.245-6.094a337.49 337.49 0 01-.193-.672c-.587-2.048-1.192-4.155-1.97-5.79C19.655 4.678 18.395 3 16.313 3c-1.099 0-2.044.587-2.819 1.386-.778.803-1.484 1.917-2.125 3.217-1.286 2.605-2.415 6.164-3.35 10.07C6.146 25.492 5 34.923 5 41.412 5 47.788 10.04 53 16.313 53z" fill="#fff"/><path d="M20.834 47.797h0l-.017.008h0l-.011.005c-1.334.63-2.34 1.103-4.494 1.103-3.903 0-7.217-3.275-7.217-7.501 0-6.13 1.099-15.241 2.906-22.79.907-3.786 1.951-7.006 3.04-9.213.495-1.002.936-1.665 1.283-2.06.123.18.282.448.47.842.617 1.298 1.125 3.055 1.742 5.203l.183.636c.645 2.236 1.434 4.884 2.614 6.972 1.185 2.094 3.249 4.438 6.667 4.438 3.418 0 5.482-2.344 6.667-4.438 1.18-2.088 1.969-4.736 2.614-6.972l.183-.635v-.002c.617-2.147 1.125-3.904 1.743-5.202a6.23 6.23 0 01.469-.84c.347.394.788 1.056 1.282 2.058 1.09 2.207 2.134 5.427 3.04 9.213 1.808 7.549 2.907 16.66 2.907 22.79 0 4.226-3.313 7.501-7.218 7.501-2.153 0-3.159-.474-4.492-1.102l-.011-.005h0l-.018-.009C33.52 47.021 31.528 46.09 28 46.09c-3.527 0-5.518.93-7.166 1.707zM16.22 7.08a.54.54 0 01-.135-.036c-.023-.01-.035-.018-.036-.018 0-.001.011.007.037.03 0 0 0 0 0 0a1.001 1.001 0 01-.535-.341 4.48 4.48 0 01.167-.183c.293-.301.478-.4.56-.432l.037.279-.016.707a.773.773 0 01-.018-.001h0a.487.487 0 01-.06-.005zm23.56 0l-.057.005h-.001a1.075 1.075 0 01-.02 0l-.017-.712.036-.273c.082.032.268.13.56.432.056.057.111.118.168.184a1.001 1.001 0 01-.535.34s0 0 0 0a.356.356 0 01.037-.03c-.001 0-.013.008-.036.018a.54.54 0 01-.135.036zM16.312 53c3.067 0 4.724-.779 6.27-1.507l.008-.004c1.447-.682 2.786-1.313 5.41-1.313s3.963.631 5.41 1.313l.007.004C34.964 52.22 36.62 53 39.687 53 45.96 53 51 47.788 51 41.412c0-6.489-1.146-15.92-3.018-23.74-.935-3.905-2.065-7.464-3.35-10.07-.641-1.298-1.347-2.413-2.125-3.216C41.732 3.587 40.787 3 39.687 3c-1.981 0-3.219 1.524-4.05 3.172-.84 1.668-1.47 3.869-2.081 5.996l-.02.068c-.697 2.43-1.375 4.777-2.308 6.525-.936 1.753-1.955 2.592-3.228 2.592-1.273 0-2.292-.84-3.227-2.592-.933-1.747-1.611-4.094-2.309-6.525l-.02-.068c-.61-2.127-1.241-4.328-2.081-5.996C19.533 4.524 18.295 3 16.313 3c-1.1 0-2.045.587-2.82 1.386-.778.803-1.484 1.917-2.125 3.217-1.286 2.605-2.415 6.164-3.35 10.07C6.146 25.492 5 34.923 5 41.412 5 47.788 10.04 53 16.313 53z" fill="#2CA5F5"/></g><defs><filter id="filter0_d_394_6531" x="0" y="0" width="56" height="60" filterUnits="userSpaceOnUse" color-interpolation-filters="sRGB"><feFlood flood-opacity="0" result="BackgroundImageFix"/><feColorMatrix in="SourceAlpha" values="0 0 0 0 0 0 0 0 0 0 0 0 0 0 0 0 0 0 127 0" result="hardAlpha"/><feOffset dy="2"/><feGaussianBlur stdDeviation="2"/><feColorMatrix values="0 0 0 0 0.0666667 0 0 0 0 0.0666667 0 0 0 0 0.0666667 0 0 0 0.12 0"/><feBlend in2="BackgroundImageFix" result="effect1_dropShadow_394_6531"/><feBlend in="SourceGraphic" in2="effect1_dropShadow_394_6531" result="shape"/></filter></defs></svg>