<svg width="56" height="60" fill="none" xmlns="http://www.w3.org/2000/svg"><g filter="url(#filter0_d_515_9583)" stroke="#fff" stroke-width="2"><path d="M39.688 3c-3.067 0-4.724.779-6.27 1.507l-.008.004c-1.447.682-2.786 1.312-5.41 1.312s-3.963-.63-5.41-1.312l-.007-.004C21.037 3.78 19.38 3 16.313 3 10.04 3 5 8.212 5 14.588c0 6.489 1.146 15.92 3.018 23.74.935 3.905 2.064 7.464 3.35 10.07.641 1.298 1.347 2.413 2.125 3.216.775.799 1.72 1.386 2.82 1.386 2.08 0 3.34-1.676 4.18-3.438.777-1.634 1.381-3.74 1.968-5.788l.193-.673c.668-2.314 1.34-4.493 2.246-6.094.903-1.597 1.884-2.36 3.1-2.36 1.216 0 2.197.763 3.1 2.36.906 1.601 1.578 3.78 2.245 6.094l.193.672c.587 2.048 1.192 4.155 1.97 5.79.838 1.76 2.098 3.437 4.18 3.437 1.099 0 2.044-.587 2.819-1.386.778-.803 1.484-1.917 2.125-3.217 1.286-2.605 2.415-6.164 3.35-10.07C49.854 30.508 51 21.077 51 14.588 51 8.212 45.96 3 39.687 3z" fill="#fff"/><path d="M35.166 8.203h0l.017-.008.011-.005c1.334-.63 2.34-1.103 4.493-1.103 3.904 0 7.218 3.275 7.218 7.501 0 6.13-1.099 15.241-2.906 22.79-.907 3.785-1.951 7.006-3.04 9.213-.495 1.002-.936 1.665-1.283 2.06a6.235 6.235 0 01-.47-.842c-.617-1.298-1.125-3.055-1.742-5.203l-.183-.636c-.645-2.236-1.434-4.884-2.614-6.972-1.185-2.094-3.249-4.438-6.667-4.438-3.418 0-5.482 2.344-6.667 4.438-1.18 2.088-1.969 4.736-2.614 6.972l-.183.634v.003c-.617 2.147-1.125 3.904-1.743 5.202a6.228 6.228 0 01-.469.84c-.347-.394-.788-1.056-1.282-2.058-1.09-2.207-2.134-5.428-3.04-9.213-1.808-7.549-2.907-16.66-2.907-22.79 0-4.226 3.313-7.501 7.217-7.501 2.154 0 3.16.474 4.493 1.102l.011.005h0l.018.009.426-.905-.426.905C22.48 8.979 24.473 9.91 28 9.91c3.527 0 5.518-.93 7.166-1.707zM39.78 48.92c.05.007.096.02.135.036.024.01.036.018.036.018s-.013-.008-.037-.03c0 0 0 0 0 0a1.003 1.003 0 01.535.341 4.503 4.503 0 01-.167.183c-.292.301-.478.4-.56.432l-.037-.279.016-.707h.01l.008.001h0c.01 0 .03.001.06.005zm-23.56 0a.909.909 0 01.057-.005h.021l.017.712-.036.273c-.082-.032-.268-.13-.56-.432a4.411 4.411 0 01-.168-.184 1 1 0 01.535-.34s0 0 0 0a.356.356 0 01-.037.03c.001 0 .013-.008.036-.018a.538.538 0 01.135-.036zM39.688 3c-3.067 0-4.724.779-6.27 1.507l-.008.004c-1.447.682-2.786 1.312-5.41 1.312s-3.963-.63-5.41-1.312l-.007-.004C21.036 3.78 19.38 3 16.313 3 10.04 3 5 8.212 5 14.588c0 6.489 1.146 15.92 3.018 23.74.935 3.905 2.064 7.464 3.35 10.07.641 1.298 1.347 2.413 2.125 3.216.775.799 1.72 1.386 2.82 1.386 1.981 0 3.219-1.524 4.05-3.172.84-1.668 1.47-3.869 2.081-5.995l.02-.069c.697-2.43 1.375-4.777 2.308-6.525.936-1.752 1.955-2.592 3.228-2.592 1.273 0 2.292.84 3.227 2.592.933 1.748 1.611 4.094 2.309 6.525l.02.068c.61 2.127 1.241 4.328 2.081 5.996.83 1.648 2.068 3.172 4.05 3.172 1.1 0 2.045-.587 2.82-1.386.778-.803 1.484-1.917 2.125-3.217 1.286-2.605 2.415-6.164 3.35-10.07C49.854 30.508 51 21.077 51 14.588 51 8.212 45.96 3 39.687 3z" fill="#2CA5F5"/></g><defs><filter id="filter0_d_515_9583" x="0" y="0" width="56" height="60" filterUnits="userSpaceOnUse" color-interpolation-filters="sRGB"><feFlood flood-opacity="0" result="BackgroundImageFix"/><feColorMatrix in="SourceAlpha" values="0 0 0 0 0 0 0 0 0 0 0 0 0 0 0 0 0 0 127 0" result="hardAlpha"/><feOffset dy="2"/><feGaussianBlur stdDeviation="2"/><feColorMatrix values="0 0 0 0 0.0666667 0 0 0 0 0.0666667 0 0 0 0 0.0666667 0 0 0 0.12 0"/><feBlend in2="BackgroundImageFix" result="effect1_dropShadow_515_9583"/><feBlend in="SourceGraphic" in2="effect1_dropShadow_515_9583" result="shape"/></filter></defs></svg>