<svg width="48" height="52" fill="none" xmlns="http://www.w3.org/2000/svg"><path d="M12.313 51c3.066 0 4.723-.779 6.27-1.507l.008-.004c1.446-.682 2.785-1.313 5.409-1.313 2.624 0 3.963.631 5.41 1.313l.007.004C30.964 50.22 32.62 51 35.687 51 41.96 51 47 45.788 47 39.412c0-6.489-1.146-15.92-3.018-23.74-.935-3.905-2.065-7.464-3.35-10.07-.641-1.298-1.347-2.413-2.125-3.216C37.732 1.587 36.787 1 35.687 1c-2.08 0-3.34 1.676-4.18 3.438-.777 1.634-1.381 3.74-1.968 5.788l-.193.673c-.668 2.314-1.34 4.493-2.246 6.094-.903 1.597-1.884 2.36-3.1 2.36-1.216 0-2.197-.763-3.1-2.36-.906-1.601-1.578-3.78-2.245-6.094a337.49 337.49 0 01-.193-.672c-.587-2.048-1.192-4.155-1.97-5.79C15.655 2.678 14.395 1 12.313 1c-1.099 0-2.044.587-2.819 1.386-.778.803-1.484 1.917-2.125 3.217-1.286 2.605-2.415 6.164-3.35 10.07C2.146 23.492 1 32.923 1 39.412 1 45.788 6.04 51 12.313 51z" fill="#2CA5F5" stroke="#fff" stroke-width="2"/></svg>