<svg width="56" height="60" fill="none" xmlns="http://www.w3.org/2000/svg"><g filter="url(#filter0_d_515_9593)"><path d="M39.688 3c-3.067 0-4.724.779-6.27 1.507l-.008.004c-1.447.682-2.786 1.312-5.41 1.312s-3.963-.63-5.41-1.312l-.007-.004C21.036 3.78 19.38 3 16.313 3 10.04 3 5 8.212 5 14.588c0 6.489 1.146 15.92 3.018 23.74.935 3.905 2.064 7.464 3.35 10.07.641 1.298 1.347 2.413 2.125 3.216.775.799 1.72 1.386 2.82 1.386 2.08 0 3.34-1.676 4.18-3.438.777-1.634 1.381-3.74 1.968-5.788l.193-.673c.668-2.314 1.34-4.493 2.246-6.094.903-1.597 1.884-2.36 3.1-2.36 1.216 0 2.197.763 3.1 2.36.906 1.601 1.578 3.78 2.245 6.094l.193.672c.587 2.048 1.192 4.155 1.97 5.79.838 1.76 2.098 3.437 4.18 3.437 1.099 0 2.044-.587 2.819-1.386.778-.803 1.484-1.917 2.125-3.217 1.286-2.605 2.415-6.164 3.35-10.07C49.854 30.508 51 21.077 51 14.588 51 8.212 45.96 3 39.687 3z" fill="#2CA5F5" stroke="#fff" stroke-width="2"/></g><defs><filter id="filter0_d_515_9593" x="0" y="0" width="56" height="60" filterUnits="userSpaceOnUse" color-interpolation-filters="sRGB"><feFlood flood-opacity="0" result="BackgroundImageFix"/><feColorMatrix in="SourceAlpha" values="0 0 0 0 0 0 0 0 0 0 0 0 0 0 0 0 0 0 127 0" result="hardAlpha"/><feOffset dy="2"/><feGaussianBlur stdDeviation="2"/><feColorMatrix values="0 0 0 0 0.0666667 0 0 0 0 0.0666667 0 0 0 0 0.0666667 0 0 0 0.12 0"/><feBlend in2="BackgroundImageFix" result="effect1_dropShadow_515_9593"/><feBlend in="SourceGraphic" in2="effect1_dropShadow_515_9593" result="shape"/></filter></defs></svg>