<svg width="24" height="18" fill="none" xmlns="http://www.w3.org/2000/svg"><path d="M23.842 3.975c0-2.11-1.552-3.807-3.469-3.807A170.478 170.478 0 0012.421 0h-.844c-2.7 0-5.353.047-7.95.169C1.715.169.163 1.875.163 3.984A69.731 69.731 0 000 8.99a72.583 72.583 0 00.16 5.011c0 2.11 1.551 3.82 3.464 3.82 2.728.127 5.526.183 8.372.178 2.85.01 5.64-.05 8.371-.178 1.918 0 3.47-1.71 3.47-3.82a72.41 72.41 0 00.159-5.016 68.19 68.19 0 00-.153-5.01zm-14.14 9.614V4.378L16.5 8.98l-6.797 4.608z" fill="#115DA3"/></svg>