<svg width="32" height="32" viewBox="0 0 32 32" fill="none" xmlns="http://www.w3.org/2000/svg">
<path d="M28 16C28 9.375 22.625 4 16 4C9.375 4 4 9.375 4 16C4 22.625 9.375 28 16 28C22.625 28 28 22.625 28 16Z" stroke="white" stroke-width="2" stroke-miterlimit="10"/>
<path d="M15.641 10.3781L15.9998 18L16.3579 10.3781C16.3601 10.3293 16.3523 10.2807 16.3351 10.235C16.3179 10.1894 16.2915 10.1478 16.2577 10.1127C16.2238 10.0776 16.1831 10.0498 16.1381 10.0309C16.0931 10.0121 16.0448 10.0026 15.996 10.0031V10.0031C15.9478 10.0035 15.9002 10.0137 15.856 10.0329C15.8118 10.0522 15.772 10.0802 15.7389 10.1152C15.7057 10.1502 15.68 10.1915 15.6632 10.2367C15.6463 10.2818 15.6388 10.3299 15.641 10.3781V10.3781Z" stroke="white" stroke-width="2" stroke-linecap="round" stroke-linejoin="round"/>
<path d="M16 21.9944C15.9506 21.9944 15.9022 21.9797 15.8611 21.9522C15.82 21.9248 15.788 21.8857 15.769 21.84C15.7501 21.7944 15.7452 21.7441 15.7548 21.6956C15.7644 21.6471 15.7883 21.6026 15.8232 21.5676C15.8582 21.5326 15.9027 21.5088 15.9512 21.4992C15.9997 21.4895 16.05 21.4945 16.0957 21.5134C16.1414 21.5323 16.1804 21.5644 16.2079 21.6055C16.2353 21.6466 16.25 21.6949 16.25 21.7444C16.25 21.8107 16.2237 21.8743 16.1768 21.9211C16.1299 21.968 16.0663 21.9944 16 21.9944Z" fill="white" stroke="white" stroke-width="2"/>
</svg>
