<svg width="24" height="24" viewBox="0 0 24 24" fill="none" xmlns="http://www.w3.org/2000/svg">
<circle cx="12" cy="12" r="12" fill="#FFB322"/>
<path d="M8.10809 14.1207L8.98624 15.0154C8.14673 15.9764 7.10846 16.4568 5.87135 16.4568C4.64528 16.4568 3.62356 16.0648 2.80618 15.2805C1.99984 14.4852 1.59668 13.4856 1.59668 12.2816C1.59668 11.0666 2.01089 10.0614 2.83931 9.26614C3.66774 8.45981 4.71156 8.05664 5.97076 8.05664C7.20787 8.05664 8.25171 8.52056 9.10221 9.4484L8.24065 10.3928C7.85404 10.0172 7.48954 9.75767 7.14713 9.61408C6.80471 9.47048 6.40154 9.39869 5.93762 9.39869C5.1092 9.39869 4.41332 9.66378 3.84999 10.194C3.29771 10.7242 3.02157 11.3979 3.02157 12.2153C3.02157 13.0217 3.29771 13.7065 3.84999 14.2698C4.40228 14.8332 5.05949 15.1148 5.82164 15.1148C6.28556 15.1148 6.68321 15.0375 7.01457 14.8829C7.35699 14.7282 7.72148 14.4741 8.10809 14.1207Z" fill="white"/>
<path d="M21.25 12H16.75" stroke="white" stroke-width="1.5" stroke-linecap="square" stroke-linejoin="round"/>
<path d="M15.0915 7.48193L11.5498 17.0002H10.1045L13.6527 7.48193H15.0915Z" fill="white"/>
</svg>
