<svg width="24" height="24" viewBox="0 0 24 24" fill="none" xmlns="http://www.w3.org/2000/svg">
<circle cx="12" cy="12" r="12" fill="#80C9F9"/>
<rect x="5.53857" y="7.38574" width="12.9231" height="6.46154" rx="3.23077" fill="white"/>
<path fill-rule="evenodd" clip-rule="evenodd" d="M15.0309 15.9127C15.7417 14.9174 16.0054 13.664 16.0356 12.6348C16.0457 12.2914 15.7345 12.0402 15.3943 12.0886C15.0879 12.1322 14.8703 12.4054 14.8512 12.7143C14.8117 13.3493 14.6329 14.0929 14.2121 14.6822C13.7656 15.3075 12.9696 15.8649 11.5747 15.8259C11.075 15.8119 10.6107 16.1544 10.5672 16.6524C10.5292 17.088 10.8287 17.4882 11.2646 17.5207C13.0437 17.653 14.2582 16.9949 15.0309 15.9127Z" fill="white"/>
</svg>
