<svg width="24" height="24" viewBox="0 0 24 24" fill="none" xmlns="http://www.w3.org/2000/svg">
<circle cx="12" cy="12" r="12" fill="#6A7FEC"/>
<g clip-path="url(#clip0_2970_6059)">
<path d="M16.0566 15.0206L17.4226 16.4124C16.1167 17.9072 14.5016 18.6546 12.5772 18.6546C10.67 18.6546 9.08066 18.0447 7.80918 16.8247C6.55488 15.5876 5.92773 14.0327 5.92773 12.1598C5.92773 10.2698 6.57206 8.70621 7.86072 7.46909C9.14938 6.21479 10.7731 5.58765 12.7319 5.58765C14.6563 5.58765 16.28 6.3093 17.603 7.7526L16.2628 9.22167C15.6614 8.63748 15.0944 8.2337 14.5618 8.01033C14.0291 7.78696 13.402 7.67528 12.6803 7.67528C11.3916 7.67528 10.3092 8.08765 9.43289 8.91239C8.57378 9.73713 8.14423 10.7852 8.14423 12.0567C8.14423 13.311 8.57378 14.3763 9.43289 15.2526C10.292 16.1289 11.3143 16.567 12.4999 16.567C13.2215 16.567 13.8401 16.4467 14.3556 16.2062C14.8882 15.9656 15.4552 15.5704 16.0566 15.0206Z" fill="white"/>
</g>
<defs>
<clipPath id="clip0_2970_6059">
<rect width="13" height="14" fill="white" transform="translate(5 5.5)"/>
</clipPath>
</defs>
</svg>
