<svg width="361" height="363" viewBox="0 0 361 363" fill="none" xmlns="http://www.w3.org/2000/svg">
<path d="M318.646 311.517C311.256 319.296 304.271 324.306 298.751 328.268C233.85 374.834 157.054 361.261 140.734 357.946C116.632 353.05 70.0451 343.588 36.366 303.979C-14.5862 244.055 -6.65558 149.644 32.8655 87.323C40.0961 75.9242 78.2869 12.6539 155.903 2.50622C202.879 -3.63398 257.638 8.75144 297.294 41.9741C380.539 111.711 374.613 252.595 318.646 311.517Z" fill="url(#paint0_linear_154:996)"/>
<path d="M222.103 37.7943L38.1304 45.7574C33.2429 45.969 28.6234 48.0499 25.2264 51.5703C21.8294 55.0906 19.9143 59.7813 19.877 64.6733L17.8402 331.994C17.8259 333.88 18.191 335.75 18.9138 337.492C19.6367 339.234 20.7024 340.813 22.0478 342.135C23.3931 343.457 24.9906 344.495 26.7452 345.187C28.4997 345.88 30.3756 346.212 32.2612 346.165L243.288 340.868C245.061 340.824 246.808 340.426 248.426 339.699C250.045 338.972 251.502 337.93 252.713 336.633C253.924 335.337 254.864 333.812 255.479 332.148C256.094 330.484 256.371 328.714 256.294 326.941L244.677 58.4916C244.554 55.6502 243.873 52.8608 242.672 50.2828C241.471 47.7048 239.774 45.3886 237.678 43.4666C235.581 41.5446 233.127 40.0544 230.455 39.0811C227.782 38.1078 224.945 37.6706 222.103 37.7943Z" fill="url(#paint1_linear_154:996)"/>
<path d="M212.278 337.674C212.143 337.681 212.011 337.634 211.91 337.544C211.81 337.454 211.749 337.327 211.742 337.192C211.735 337.057 211.781 336.925 211.872 336.824C211.962 336.724 212.089 336.663 212.224 336.656L235.804 335.33C243.137 334.917 248.846 328.611 248.528 321.272L246.987 285.649C246.981 285.515 247.028 285.384 247.118 285.284C247.208 285.185 247.335 285.125 247.469 285.118C247.536 285.115 247.603 285.125 247.666 285.148C247.728 285.171 247.786 285.206 247.836 285.251C247.885 285.296 247.925 285.351 247.953 285.412C247.982 285.473 247.998 285.538 248 285.605L249.543 321.228C249.884 329.121 243.745 335.903 235.857 336.347L212.277 337.674H212.278Z" fill="white"/>
<path d="M247.046 275.102C246.911 275.108 246.779 275.06 246.68 274.968C246.58 274.877 246.521 274.75 246.515 274.615L246.265 268.847C246.259 268.712 246.306 268.581 246.397 268.482C246.487 268.382 246.613 268.322 246.747 268.315C246.882 268.309 247.014 268.357 247.114 268.448C247.214 268.539 247.273 268.666 247.279 268.801L247.529 274.571C247.535 274.705 247.487 274.837 247.397 274.936C247.306 275.036 247.18 275.095 247.046 275.102Z" fill="white"/>
<path d="M221.443 35.6563C196.467 40.1513 110.529 54.4283 38.8627 52.0363C38.0873 52.0091 37.3142 52.1373 36.589 52.4134C35.8638 52.6895 35.2012 53.1079 34.6402 53.6439C34.0791 54.1799 33.631 54.8228 33.3222 55.5346C33.0133 56.2465 32.85 57.0129 32.8418 57.7888L30.1996 326.326C30.1819 328.094 30.8647 329.798 32.099 331.065C33.3332 332.332 35.0186 333.058 36.7871 333.087C66.906 333.564 190.925 335.081 234.855 328.549C236.146 328.356 237.32 327.694 238.153 326.689C238.985 325.684 239.418 324.408 239.368 323.104L228.842 41.615C228.809 40.7149 228.583 39.8323 228.179 39.0271C227.775 38.2219 227.204 37.5128 226.502 36.9478C225.8 36.3828 224.986 35.9751 224.113 35.7523C223.24 35.5295 222.33 35.4968 221.443 35.6563Z" fill="url(#paint2_linear_154:996)"/>
<path opacity="0.24" d="M219.054 42.7222C195.02 47.0473 112.316 60.7876 43.3472 58.4863C42.601 58.46 41.8571 58.5832 41.1592 58.8488C40.4614 59.1144 39.8237 59.5169 39.2838 60.0326C38.7439 60.5484 38.3126 61.167 38.0154 61.8519C37.7182 62.5369 37.561 63.2744 37.5532 64.0211L35.0121 322.448C34.9947 324.15 35.6516 325.789 36.8393 327.008C38.027 328.227 39.6489 328.927 41.3506 328.954C70.3351 329.413 189.684 330.872 231.96 324.586C233.203 324.4 234.333 323.762 235.134 322.794C235.935 321.827 236.352 320.598 236.303 319.343L226.174 48.4566C226.142 47.5904 225.924 46.7412 225.536 45.9664C225.147 45.1915 224.597 44.5092 223.922 43.9655C223.246 43.4218 222.462 43.0295 221.623 42.815C220.783 42.6005 219.907 42.5689 219.054 42.7222Z" fill="white"/>
<path d="M117.89 32.1168L138.684 29.3605L139.609 10.1373C139.702 8.26094 139.142 6.41013 138.024 4.90021C136.906 3.3903 135.299 2.31469 133.477 1.85663C129.357 0.832402 123.575 0.991872 117.13 5.9017C104.489 15.5334 117.89 32.1168 117.89 32.1168ZM121.548 15.9716C121.505 14.9424 121.768 13.9235 122.303 13.0436C122.839 12.1637 123.623 11.4624 124.557 11.0282C125.491 10.594 126.533 10.4465 127.551 10.6043C128.569 10.7621 129.517 11.2182 130.276 11.9148C131.035 12.6114 131.57 13.5174 131.814 14.5181C132.058 15.5189 132 16.5695 131.647 17.5372C131.294 18.5049 130.662 19.3463 129.831 19.9549C129 20.5635 128.007 20.9121 126.978 20.9566C126.294 20.9862 125.611 20.8807 124.968 20.6461C124.325 20.4115 123.734 20.0525 123.23 19.5895C122.726 19.1265 122.318 18.5687 122.029 17.9479C121.741 17.3271 121.577 16.6555 121.548 15.9716Z" fill="url(#paint3_linear_154:996)"/>
<path d="M136.178 21.9265C135.904 21.9127 135.647 21.7911 135.463 21.5882C135.278 21.3854 135.182 21.1178 135.194 20.8439L135.342 17.7816C135.373 17.5214 135.502 17.2827 135.702 17.1135C135.902 16.9444 136.159 16.8573 136.421 16.8697C136.683 16.8822 136.93 16.9934 137.113 17.1808C137.296 17.3682 137.402 17.6181 137.408 17.8801L137.262 20.9424C137.248 21.2165 137.126 21.4739 136.923 21.6583C136.72 21.8427 136.452 21.9392 136.178 21.9265ZM136.466 15.9276C136.192 15.9135 135.935 15.7917 135.751 15.5889C135.567 15.3861 135.471 15.1187 135.483 14.845L135.595 12.5204C135.665 11.0888 135.237 9.67715 134.385 8.52488C133.532 7.37262 132.307 6.55073 130.918 6.19869C128.653 5.63313 126.283 5.63892 124.021 6.21554C123.761 6.26436 123.493 6.2122 123.27 6.06971C123.047 5.92721 122.888 5.70514 122.823 5.44882C122.759 5.19251 122.795 4.92129 122.924 4.69055C123.052 4.45981 123.264 4.28695 123.516 4.20727C126.108 3.54767 128.823 3.54188 131.417 4.19041C133.271 4.65865 134.905 5.75367 136.043 7.28969C137.181 8.82571 137.753 10.7081 137.661 12.6176L137.55 14.9423C137.54 15.1383 137.475 15.3276 137.363 15.4882C137.25 15.6489 137.094 15.7742 136.913 15.8498C136.771 15.908 136.619 15.9345 136.466 15.9276Z" fill="#BDD0FB"/>
<path d="M167.709 40.5014L167.293 30.8749C167.259 30.0866 167.066 29.3132 166.727 28.6009C166.388 27.8885 165.908 27.2517 165.318 26.7285C164.727 26.2053 164.037 25.8063 163.289 25.5553C162.541 25.3043 161.75 25.2064 160.963 25.2675L94.6905 30.4133C93.271 30.5238 91.9438 31.1597 90.9682 32.1967C89.9926 33.2336 89.4388 34.5971 89.415 36.0207L89.2607 45.2945L167.709 40.5014Z" fill="url(#paint4_linear_154:996)"/>
<path d="M145.307 29.5836L142.455 29.7133C142.321 29.7171 142.192 29.6685 142.094 29.5777C141.996 29.4869 141.938 29.3613 141.931 29.2279C141.925 29.0945 141.971 28.964 142.06 28.8644C142.149 28.7649 142.274 28.7042 142.407 28.6955L145.259 28.5658C145.393 28.5613 145.523 28.6096 145.622 28.7003C145.72 28.7909 145.779 28.9167 145.786 29.0504C145.792 29.1842 145.746 29.315 145.656 29.4148C145.567 29.5146 145.442 29.5752 145.309 29.5836H145.307Z" fill="#BDD0FB"/>
<path d="M164.361 38.0859C164.557 38.0041 164.723 37.8644 164.837 37.6854C164.95 37.5064 165.007 37.2969 164.998 37.085L164.829 33.1955C164.761 31.608 164.066 30.1125 162.896 29.0375C161.726 27.9625 160.177 27.396 158.589 27.4624L148.088 27.9175C147.812 27.9295 147.553 28.0503 147.367 28.2533C147.181 28.4564 147.084 28.725 147.096 29C147.108 29.2751 147.229 29.5342 147.432 29.7202C147.635 29.9062 147.903 30.0039 148.178 29.9919L158.672 29.5368C159.711 29.4932 160.725 29.8635 161.491 30.5664C162.258 31.2693 162.714 32.2474 162.76 33.2862L162.928 37.1757C162.941 37.4497 163.061 37.7077 163.264 37.8931C163.466 38.0785 163.733 38.1762 164.007 38.165C164.129 38.1591 164.249 38.1324 164.361 38.0859Z" fill="#BDD0FB"/>
<path d="M188.353 36.0776L72.2909 41.099C70.2694 41.1865 68.3438 41.985 66.8535 43.3536C65.3632 44.7222 64.404 46.573 64.145 48.5798L64.0711 49.1515C63.9339 50.2176 64.0313 51.3008 64.3567 52.3253C64.682 53.3498 65.2274 54.2908 65.9546 55.0823C66.6818 55.8739 67.5733 56.4969 68.5666 56.9078C69.5599 57.3186 70.631 57.5073 71.7049 57.4608L190.778 52.3072C191.426 52.2788 192.062 52.1192 192.647 51.838C193.232 51.5567 193.753 51.1598 194.18 50.6711C194.607 50.1824 194.931 49.6121 195.131 48.9948C195.331 48.3775 195.404 47.726 195.345 47.0797L194.858 41.7641C194.712 40.162 193.955 38.6775 192.744 37.6187C191.533 36.5599 189.96 36.008 188.353 36.0776Z" fill="url(#paint5_linear_154:996)"/>
<g opacity="0.61">
<path opacity="0.61" d="M137.056 291.665L231.7 290.429C233.572 290.405 234.965 289.146 234.812 287.62L234.782 287.328C234.628 285.806 232.99 284.594 231.124 284.619L136.795 285.888C134.953 285.912 133.512 287.158 133.577 288.671L133.589 288.961C133.658 290.474 135.208 291.686 137.056 291.665Z" fill="white"/>
<path opacity="0.61" d="M232.637 299.803L137.474 300.986C135.616 301.009 134.163 302.274 134.233 303.814L134.245 304.109C134.311 305.653 135.874 306.887 137.739 306.865L233.232 305.716C235.121 305.694 236.525 304.42 236.368 302.864L236.338 302.567C236.173 301.015 234.519 299.78 232.637 299.803Z" fill="white"/>
<path opacity="0.61" d="M136.38 260.611L231.024 259.376C232.896 259.351 234.289 258.092 234.136 256.566L234.106 256.276C233.952 254.752 232.314 253.54 230.449 253.565L136.118 254.834C134.277 254.86 132.837 256.105 132.902 257.619L132.913 257.907C132.982 259.424 134.531 260.636 136.38 260.611Z" fill="white"/>
<path opacity="0.61" d="M231.962 268.753L136.799 269.937C134.941 269.96 133.489 271.226 133.558 272.766L133.571 273.059C133.637 274.603 135.201 275.839 137.072 275.815L232.565 274.667C234.454 274.645 235.858 273.37 235.701 271.814L235.67 271.519C235.498 269.966 233.845 268.73 231.962 268.753Z" fill="white"/>
</g>
<path d="M155.766 73.033C155.787 74.6536 154.945 75.9877 153.886 76.015L49.7659 78.4783C48.5991 78.5055 47.6319 77.1481 47.5995 75.4471V75.1878C47.5671 73.4855 48.4863 72.0853 49.6518 72.0606L153.816 69.8942C154.875 69.8722 155.749 71.1687 155.769 72.7906L155.766 73.033Z" fill="white"/>
<path d="M217.266 87.38C217.286 88.9981 215.95 90.3412 214.284 90.3801L50.0616 94.1957C48.2245 94.2385 46.7037 92.8992 46.6648 91.1956V90.9363C46.6259 89.2366 48.091 87.8247 49.9229 87.7871L214.208 84.2685C215.88 84.2321 217.249 85.517 217.268 87.135L217.266 87.38Z" fill="white"/>
<path d="M102.695 164.601C102.695 164.601 103.704 161.201 106.057 160.852C108.41 160.504 110.414 160.157 111.083 162.524C111.752 164.89 111.083 167.601 106.727 167.969C102.371 168.337 102.695 164.601 102.695 164.601Z" fill="white"/>
<path d="M107.063 153.053C107.063 153.053 109.41 152.035 110.08 154.065C110.75 156.096 110.749 158.464 108.405 159.827C106.061 161.189 103.368 160.864 102.7 157.811C102.032 154.758 105.044 153.395 107.063 153.053Z" fill="white"/>
<path d="M101.011 151.362C100.346 150.25 99.6623 147.286 101.685 145.929C104.326 144.158 105.721 143.561 107.063 144.92C108.405 146.279 109.923 150.138 107.734 152.036C105.385 154.073 102.505 153.863 101.011 151.362Z" fill="white"/>
<path d="M101.294 144.827C101.015 144.869 100.73 144.852 100.458 144.775C100.186 144.699 99.9329 144.566 99.7164 144.385C99.3548 144.079 99.0993 143.666 98.9865 143.206C98.6494 141.846 101.01 139.475 103.03 138.798C105.05 138.121 107.358 140.476 105.72 142.538C104.485 144.099 103.532 144.513 101.294 144.827Z" fill="white"/>
<path d="M96.9614 139.456C96.9614 139.456 95.9463 137.071 97.2985 135.376C98.6508 133.682 99.662 132.669 101.347 133.359C103.033 134.049 104.718 136.432 102.694 138.12C100.671 139.808 98.3124 141.165 96.9614 139.456Z" fill="white"/>
<path d="M94.7839 135.066C94.6005 135.019 94.431 134.928 94.2895 134.802C94.1479 134.676 94.0383 134.518 93.9697 134.342C93.7213 133.731 93.6169 133.072 93.6646 132.415C93.7122 131.757 93.9107 131.12 94.2445 130.552C95.5735 128.218 96.2373 127.56 97.8955 128.574C99.5537 129.587 100.215 130.592 99.8843 131.59C99.5537 132.589 97.8955 134.248 96.9024 134.911C96.2645 135.335 95.3569 135.21 94.7839 135.066Z" fill="white"/>
<path d="M90.3214 125.833C90.3214 125.833 91.028 124.064 93.1464 125.502C95.2649 126.94 95.965 127.297 95.2597 128.355C94.5544 129.412 93.1464 131.884 91.028 131.515C88.9095 131.147 88.9082 127.95 90.3214 125.833Z" fill="white"/>
<path d="M85.7644 129.862C84.7414 129.862 84.4004 129.17 84.0594 127.801C83.7185 126.432 83.7185 123.696 84.0594 123.016C84.4004 122.335 85.7644 122.69 87.1257 123.045C88.487 123.401 89.8483 123.753 89.8483 124.435C89.8483 125.117 89.2338 129.881 85.7644 129.862Z" fill="white"/>
<path d="M64.7961 164.805C64.7961 164.805 63.7589 161.368 61.3332 161.035C58.9074 160.702 56.8188 160.362 56.1225 162.782C55.4263 165.201 56.1225 167.96 60.6395 168.275C65.1565 168.59 64.7961 164.805 64.7961 164.805Z" fill="white"/>
<path d="M60.2913 153.112C60.2913 153.112 57.8604 152.075 57.1654 154.15C56.4705 156.224 56.4705 158.637 58.9027 160.009C61.3349 161.38 64.103 161.022 64.7953 157.922C65.4876 154.823 62.3721 153.459 60.2913 153.112Z" fill="white"/>
<path d="M66.5234 151.384C67.2041 150.257 67.9042 147.259 65.8324 145.882C63.1162 144.076 61.6836 143.465 60.2912 144.845C58.8987 146.224 57.3287 150.152 59.5975 152.083C62.0259 154.143 64.9897 153.921 66.5234 151.384Z" fill="white"/>
<path d="M66.2317 144.772C66.5171 144.816 66.8086 144.799 67.0871 144.723C67.3656 144.647 67.625 144.513 67.8484 144.33C68.2171 144.023 68.4783 143.606 68.5939 143.141C68.9388 141.768 66.5195 139.354 64.4451 138.658C62.3707 137.961 59.9826 140.33 61.6745 142.437C62.9529 144.017 63.933 144.437 66.2317 144.772Z" fill="white"/>
<path d="M70.6623 139.364C70.6623 139.364 71.6995 136.965 70.3187 135.242C68.938 133.518 67.9047 132.48 66.1777 133.157C64.4508 133.834 62.7187 136.236 64.7957 137.965C66.8727 139.695 69.2841 141.077 70.6623 139.364Z" fill="white"/>
<path d="M72.8784 134.952C73.0639 134.907 73.2358 134.817 73.3797 134.692C73.5236 134.566 73.6353 134.408 73.7056 134.23C73.9573 133.615 74.0632 132.95 74.0148 132.286C73.9665 131.623 73.7652 130.98 73.4268 130.408C72.0759 128.041 71.4004 127.361 69.7098 128.36C68.0191 129.358 67.3398 130.367 67.6782 131.382C68.0165 132.397 69.7098 134.093 70.7249 134.772C71.3732 135.206 72.2963 135.091 72.8784 134.952Z" fill="white"/>
<path d="M77.3959 125.721C77.3959 125.721 76.6829 123.934 74.5436 125.34C72.4044 126.747 71.6809 127.102 72.3979 128.178C73.1149 129.254 74.5436 131.763 76.6868 131.419C78.8299 131.076 78.8221 127.872 77.3959 125.721Z" fill="white"/>
<path d="M81.982 129.83C83.0063 129.83 83.3473 129.156 83.6895 127.79C84.0318 126.425 84.0305 123.692 83.6895 123.006C83.3486 122.321 81.982 122.647 80.6142 122.977C79.2464 123.306 77.876 123.635 77.876 124.32C77.876 125.004 78.4931 129.805 81.982 129.83Z" fill="white"/>
<path d="M102.695 174.752C102.695 174.752 103.704 178.137 106.057 178.451C108.41 178.765 110.414 179.082 111.083 176.707C111.752 174.332 111.083 171.63 106.727 171.327C102.371 171.023 102.695 174.752 102.695 174.752Z" fill="white"/>
<path d="M107.063 186.237C107.063 186.237 109.41 187.221 110.08 185.18C110.75 183.139 110.749 180.772 108.405 179.443C106.061 178.114 103.368 178.48 102.7 181.542C102.032 184.604 105.044 185.924 107.063 186.237Z" fill="white"/>
<path d="M101.011 188.014C100.346 189.137 99.6623 192.111 101.685 193.439C104.326 195.172 105.721 195.748 107.063 194.37C108.405 192.991 109.923 189.11 107.734 187.239C105.385 185.241 102.505 185.492 101.011 188.014Z" fill="white"/>
<path d="M101.294 194.547C101.013 194.509 100.727 194.53 100.455 194.61C100.183 194.691 99.9315 194.828 99.7164 195.013C99.3552 195.323 99.0999 195.738 98.9865 196.2C98.6494 197.565 101.01 199.903 103.03 200.545C105.05 201.186 107.358 198.803 105.72 196.765C104.485 195.228 103.532 194.83 101.294 194.547Z" fill="white"/>
<path d="M96.9614 199.977C96.9614 199.977 95.9463 202.377 97.2985 204.052C98.6508 205.727 99.662 206.724 101.347 206.009C103.033 205.295 104.718 202.887 102.694 201.229C100.671 199.571 98.3124 198.251 96.9614 199.977Z" fill="white"/>
<path d="M94.7831 204.402C94.5993 204.452 94.4298 204.545 94.2884 204.673C94.147 204.801 94.0376 204.96 93.9689 205.138C93.7204 205.748 93.6159 206.407 93.6636 207.063C93.7112 207.72 93.9098 208.357 94.2438 208.924C95.5727 211.234 96.2365 211.888 97.8947 210.849C99.5529 209.811 100.214 208.797 99.8835 207.802C99.5529 206.808 97.8947 205.174 96.9016 204.526C96.2637 204.111 95.3562 204.249 94.7831 204.402Z" fill="white"/>
<path d="M90.3214 213.7C90.3214 213.7 91.028 215.457 93.1464 213.989C95.2649 212.522 95.965 212.154 95.2597 211.107C94.5544 210.061 93.1464 207.607 91.028 208.009C88.9095 208.411 88.9082 211.603 90.3214 213.7Z" fill="white"/>
<path d="M85.7644 209.742C84.7414 209.764 84.4004 210.455 84.0594 211.829C83.7185 213.204 83.7185 215.939 84.0594 216.613C84.4004 217.288 85.7644 216.914 87.1257 216.541C88.487 216.167 89.8483 215.793 89.8483 215.115C89.8483 214.437 89.2338 209.668 85.7644 209.742Z" fill="white"/>
<path d="M64.7961 175.097C64.7961 175.097 63.7589 178.55 61.3332 178.919C58.9074 179.289 56.8188 179.656 56.1225 177.248C55.4263 174.84 56.1225 172.07 60.6395 171.69C65.1565 171.31 64.7961 175.097 64.7961 175.097Z" fill="white"/>
<path d="M60.2913 186.856C60.2913 186.856 57.8604 187.923 57.1654 185.863C56.4705 183.803 56.4705 181.385 58.9027 179.978C61.3349 178.572 64.103 178.889 64.7953 181.98C65.4876 185.071 62.3721 186.484 60.2913 186.856Z" fill="white"/>
<path d="M66.5234 188.494C67.2041 189.61 67.9042 192.599 65.8324 194.007C63.1162 195.851 61.6836 196.484 60.2912 195.128C58.8987 193.772 57.3287 189.863 59.5975 187.9C62.0259 185.801 64.9897 185.979 66.5234 188.494Z" fill="white"/>
<path d="M66.2317 195.116C66.5155 195.067 66.8064 195.079 67.0851 195.152C67.3638 195.224 67.624 195.355 67.8484 195.535C68.2177 195.836 68.4792 196.249 68.5939 196.712C68.9388 198.08 66.5195 200.529 64.4451 201.25C62.3707 201.971 59.9826 199.643 61.6745 197.512C62.9529 195.912 63.933 195.478 66.2317 195.116Z" fill="white"/>
<path d="M70.6623 200.454C70.6623 200.454 71.6995 202.838 70.3187 204.582C68.938 206.326 67.9047 207.378 66.1777 206.726C64.4508 206.074 62.7187 203.698 64.7957 201.937C66.8727 200.176 69.2841 198.762 70.6623 200.454Z" fill="white"/>
<path d="M72.8784 204.834C73.0637 204.876 73.2359 204.962 73.3801 205.086C73.5243 205.21 73.636 205.367 73.7056 205.544C73.9575 206.16 74.0634 206.826 74.0151 207.489C73.9667 208.153 73.7654 208.796 73.4268 209.369C72.0759 211.757 71.4004 212.445 69.7098 211.472C68.0191 210.498 67.3398 209.5 67.6782 208.479C68.0165 207.459 69.7098 205.74 70.7249 205.045C71.3732 204.601 72.2963 204.703 72.8784 204.834Z" fill="white"/>
<path d="M77.3959 214.005C77.3959 214.005 76.6829 215.804 74.5436 214.428C72.4044 213.051 71.6809 212.708 72.3979 211.621C73.1149 210.533 74.5436 208.005 76.6868 208.316C78.8299 208.627 78.8221 211.828 77.3959 214.005Z" fill="white"/>
<path d="M81.982 209.824C83.0063 209.802 83.3473 210.478 83.6895 211.839C84.0318 213.199 84.0305 215.931 83.6895 216.623C83.3486 217.314 81.982 217.011 80.6142 216.696C79.2464 216.381 77.876 216.078 77.876 215.393C77.876 214.709 78.4931 209.9 81.982 209.824Z" fill="white"/>
<path opacity="0.86" d="M50.5835 226.629C49.3534 226.627 48.1742 226.138 47.3049 225.267C46.4356 224.397 45.9473 223.217 45.9473 221.987V115.73C45.9502 114.733 46.33 113.773 47.0106 113.043C47.6913 112.313 48.6224 111.868 49.6176 111.796H49.6358L115.878 109.967C116.763 109.943 117.643 110.096 118.468 110.418C119.293 110.739 120.045 111.223 120.68 111.84C121.314 112.457 121.819 113.195 122.164 114.011C122.508 114.826 122.686 115.702 122.687 116.587L122.736 216.344C122.745 218.455 121.929 220.486 120.462 222.004C118.995 223.522 116.992 224.407 114.882 224.47L50.7443 226.625L50.5835 226.629ZM49.6682 112.667C48.8941 112.725 48.1703 113.073 47.6416 113.641C47.1128 114.21 46.818 114.957 46.8159 115.733V221.989C46.8161 222.495 46.9183 222.996 47.1164 223.462C47.3144 223.928 47.6043 224.35 47.9688 224.701C48.3332 225.053 48.7647 225.327 49.2375 225.509C49.7104 225.69 50.2149 225.774 50.721 225.756L114.859 223.601C116.744 223.545 118.532 222.755 119.843 221.398C121.153 220.042 121.882 218.227 121.873 216.341L121.823 116.586C121.823 115.817 121.669 115.056 121.369 114.347C121.07 113.639 120.631 112.997 120.08 112.461C119.528 111.925 118.875 111.505 118.158 111.226C117.442 110.946 116.676 110.813 115.907 110.835L49.6682 112.667Z" fill="white"/>
<g opacity="0.9">
<path opacity="0.9" d="M134.266 159.499L217.39 158.472C219.034 158.451 220.254 157.195 220.112 155.669L220.085 155.379C219.946 153.855 218.505 152.639 216.867 152.656L134.021 153.718C132.403 153.738 131.142 154.981 131.201 156.494L131.213 156.783C131.279 158.303 132.643 159.52 134.266 159.499Z" fill="white"/>
<path opacity="0.9" d="M218.228 167.85L134.649 168.823C133.018 168.841 131.745 170.104 131.806 171.644L131.817 171.939C131.878 173.483 133.255 174.721 134.891 174.703L218.757 173.764C220.416 173.746 221.645 172.468 221.504 170.912L221.477 170.616C221.339 169.071 219.882 167.833 218.228 167.85Z" fill="white"/>
<path opacity="0.9" d="M134.536 192.624L217.659 191.596C219.303 191.575 220.523 190.32 220.382 188.794L220.355 188.503C220.216 186.981 218.774 185.764 217.137 185.78L134.291 186.841C132.673 186.861 131.411 188.103 131.471 189.618L131.482 189.907C131.549 191.429 132.918 192.644 134.536 192.624Z" fill="white"/>
<path opacity="0.9" d="M218.499 200.976L134.921 201.949C133.29 201.968 132.016 203.231 132.077 204.771L132.089 205.066C132.15 206.608 133.527 207.847 135.163 207.828L219.028 206.891C220.688 206.873 221.917 205.594 221.775 204.039L221.748 203.743C221.607 202.196 220.152 200.957 218.499 200.976Z" fill="white"/>
<path opacity="0.9" d="M133.604 128.449L216.728 127.422C218.371 127.401 219.591 126.145 219.45 124.619L219.423 124.329C219.284 122.805 217.844 121.589 216.205 121.606L133.359 122.668C131.742 122.689 130.479 123.931 130.539 125.444L130.551 125.733C130.617 127.254 131.981 128.47 133.604 128.449Z" fill="white"/>
<path opacity="0.9" d="M217.567 136.801L133.989 137.771C132.357 137.79 131.084 139.052 131.145 140.592L131.156 140.886C131.217 142.43 132.594 143.669 134.232 143.65L218.096 142.712C219.755 142.694 220.985 141.415 220.843 139.86L220.817 139.564C220.676 138.021 219.22 136.783 217.567 136.801Z" fill="white"/>
</g>
<path d="M300.332 353.591H78.2063C74.7745 353.591 71.9922 349.233 71.9922 343.859V303.447C71.9922 293.833 76.9694 286.039 83.1083 286.039C102.491 281.281 121.614 281.891 140.438 288.361C163.457 284.03 186.515 284.03 209.613 288.361C234.701 281.026 263.56 281.6 294.261 286.039C299.681 286.039 304.077 292.921 304.077 301.411V347.736C304.071 350.969 302.398 353.591 300.332 353.591Z" fill="url(#paint6_linear_154:996)"/>
<path d="M145.884 275.935C145.884 275.935 146.599 328.169 135.296 332.213C134.375 332.544 133.564 332.541 132.849 332.262C124.799 329.151 128.7 290.855 117.995 288.264H106.403C94.7447 291.071 100.409 336.252 89.1037 332.216C88.4372 331.966 87.8275 331.586 87.3106 331.097C87.2743 331.062 87.2341 331.027 87.1965 330.992C77.8812 322.095 78.5165 275.935 78.5165 275.935C68.8005 260.268 71.2976 239.022 71.2976 239.022C70.4134 225.885 86.5327 214.894 95.8934 220.62C101.641 224.137 108.08 225.585 112.198 226.183C115.607 225.689 120.601 224.613 125.477 222.264C126.516 221.768 127.528 221.218 128.511 220.617C137.871 214.892 153.991 225.882 153.106 239.021C153.106 239.018 155.607 260.269 145.884 275.935Z" fill="white"/>
<path opacity="0.2" d="M145.883 275.935C145.883 275.935 146.599 328.169 135.296 332.213C134.374 332.544 133.564 332.544 132.848 332.265C141.951 324.6 136.585 284.673 133.934 279.531C131.259 274.345 138.899 264.785 142.048 246.489C145.198 228.193 125.477 222.258 125.477 222.258C126.515 221.764 127.528 221.216 128.51 220.617C137.871 214.892 153.99 225.882 153.106 239.021C153.106 239.018 155.607 260.269 145.883 275.935Z" fill="url(#paint7_linear_154:996)"/>
<path opacity="0.3" d="M108.934 288.264H106.411C94.7525 291.071 100.417 336.251 89.1114 332.215C88.4449 331.966 87.8353 331.586 87.3184 331.097C96.6311 334.779 95.7611 298.465 97.2897 292.461C98.8183 286.457 108.934 288.264 108.934 288.264Z" fill="url(#paint8_linear_154:996)"/>
<path d="M221.219 278.044C221.219 278.044 221.935 330.279 210.632 334.322C209.71 334.653 208.9 334.65 208.184 334.372C200.134 331.26 204.036 292.964 193.33 290.374H181.738C170.082 293.181 175.745 338.361 164.439 334.325C163.773 334.076 163.164 333.696 162.648 333.207C162.61 333.171 162.57 333.136 162.532 333.101C153.217 324.204 153.853 278.044 153.853 278.044C144.137 262.377 146.634 241.133 146.634 241.133C145.749 227.994 161.868 217.004 171.229 222.73C176.976 226.246 183.416 227.695 187.535 228.292C190.942 227.798 195.936 226.722 200.814 224.374C201.851 223.878 202.862 223.329 203.844 222.73C213.204 217.004 229.324 227.994 228.438 241.133C228.438 241.128 230.934 262.378 221.219 278.044Z" fill="white"/>
<path opacity="0.2" d="M221.219 278.044C221.219 278.044 221.935 330.279 210.632 334.322C209.71 334.653 208.9 334.653 208.184 334.374C217.287 326.709 211.921 286.782 209.269 281.64C206.595 276.454 214.235 266.894 217.385 248.598C220.536 230.302 200.813 224.369 200.813 224.369C201.851 223.873 202.862 223.324 203.843 222.725C213.204 216.998 229.323 227.99 228.438 241.128C228.438 241.128 230.934 262.378 221.219 278.044Z" fill="url(#paint9_linear_154:996)"/>
<path opacity="0.3" d="M184.26 290.368H181.737C170.081 293.175 175.744 338.356 164.438 334.32C163.772 334.071 163.163 333.691 162.646 333.202C171.959 336.883 171.088 300.569 172.618 294.567C174.148 288.564 184.26 290.368 184.26 290.368Z" fill="url(#paint10_linear_154:996)"/>
<path d="M296.565 275.935C296.565 275.935 297.281 328.169 285.978 332.213C285.056 332.544 284.246 332.541 283.53 332.262C275.48 329.151 279.382 290.855 268.676 288.264H257.084C245.426 291.071 251.091 336.252 239.785 332.216C239.119 331.966 238.51 331.586 237.993 331.097L237.878 330.992C228.563 322.095 229.199 275.935 229.199 275.935C219.482 260.268 221.979 239.023 221.979 239.023C221.095 225.885 237.214 214.894 246.575 220.62C252.322 224.137 258.762 225.585 262.881 226.183C266.288 225.689 271.282 224.613 276.158 222.264C277.196 221.768 278.207 221.22 279.188 220.621C288.55 214.894 304.67 225.885 303.784 239.023C303.784 239.018 306.279 260.269 296.565 275.935Z" fill="white"/>
<path opacity="0.2" d="M296.565 275.935C296.565 275.935 297.281 328.169 285.978 332.213C285.056 332.544 284.246 332.543 283.53 332.265C292.633 324.6 287.267 284.673 284.615 279.531C281.941 274.345 289.581 264.785 292.73 246.489C295.879 228.192 276.158 222.258 276.158 222.258C277.196 221.763 278.207 221.215 279.188 220.616C288.55 214.889 304.669 225.879 303.784 239.018C303.784 239.018 306.278 260.269 296.565 275.935Z" fill="url(#paint11_linear_154:996)"/>
<path opacity="0.3" d="M259.607 288.264H257.084C245.426 291.071 251.09 336.251 239.785 332.215C239.119 331.966 238.509 331.586 237.993 331.097C247.305 334.779 246.435 298.465 247.963 292.461C249.492 286.457 259.607 288.264 259.607 288.264Z" fill="url(#paint12_linear_154:996)"/>
<path d="M109.756 250.429L100.277 250.688C96.9894 250.78 94.3135 253.332 94.3135 256.393V270.46C94.3135 273.515 96.9843 275.888 100.277 275.76L109.756 275.39C113.005 275.261 115.633 272.706 115.633 269.686V255.752C115.633 252.718 113.005 250.338 109.756 250.429Z" fill="url(#paint13_linear_154:996)"/>
<path d="M108.131 255.537L101.908 255.723C100.119 255.778 98.667 257.17 98.667 258.835V267.728C98.667 269.391 100.119 270.686 101.908 270.62L108.131 270.392C109.908 270.327 111.345 268.932 111.345 267.28V258.436C111.345 256.78 109.908 255.482 108.131 255.537Z" fill="url(#paint14_linear_154:996)"/>
<path d="M187.313 248.265L178.479 248.511C175.415 248.597 172.926 251.057 172.926 254.007V267.585C172.926 270.535 175.415 272.828 178.479 272.709L187.313 272.364C190.343 272.246 192.793 269.781 192.793 266.858V253.404C192.793 250.48 190.343 248.179 187.313 248.265Z" fill="url(#paint15_linear_154:996)"/>
<path d="M185.799 253.194L180.004 253.369C178.335 253.42 176.981 254.761 176.981 256.368V264.957C176.981 266.564 178.335 267.816 180.004 267.754L185.799 267.541C187.456 267.48 188.796 266.136 188.796 264.538V256.001C188.798 254.398 187.456 253.145 185.799 253.194Z" fill="url(#paint16_linear_154:996)"/>
<path d="M256.532 246.333L248.253 246.564C245.382 246.644 243.05 249.027 243.05 251.879V265.022C243.047 265.695 243.182 266.362 243.445 266.981C243.709 267.601 244.096 268.16 244.583 268.625C245.07 269.09 245.646 269.45 246.277 269.685C246.908 269.92 247.58 270.023 248.253 269.989L256.532 269.666C257.907 269.604 259.206 269.017 260.161 268.027C261.117 267.037 261.656 265.718 261.669 264.341V251.313C261.672 250.645 261.54 249.983 261.281 249.367C261.022 248.751 260.641 248.194 260.161 247.729C259.682 247.264 259.113 246.9 258.489 246.66C257.866 246.421 257.2 246.309 256.532 246.333Z" fill="url(#paint17_linear_154:996)"/>
<path d="M255.112 251.104L249.681 251.268C248.926 251.293 248.21 251.608 247.683 252.149C247.155 252.689 246.857 253.413 246.85 254.168V262.477C246.848 262.844 246.921 263.207 247.064 263.545C247.208 263.882 247.418 264.187 247.683 264.441C247.948 264.694 248.262 264.892 248.605 265.02C248.949 265.148 249.315 265.206 249.681 265.188L255.112 264.988C255.864 264.957 256.574 264.638 257.097 264.097C257.62 263.557 257.915 262.836 257.922 262.084V253.819C257.924 253.454 257.851 253.092 257.71 252.756C257.568 252.419 257.36 252.115 257.097 251.861C256.834 251.608 256.523 251.41 256.182 251.28C255.841 251.149 255.477 251.09 255.112 251.104Z" fill="url(#paint18_linear_154:996)"/>
<path d="M111.46 250.429L101.981 250.688C98.6948 250.78 96.0176 253.332 96.0176 256.393V270.46C96.0176 273.515 98.6897 275.888 101.981 275.76L111.46 275.39C114.71 275.261 117.338 272.706 117.338 269.686V255.752C117.338 252.718 114.71 250.338 111.46 250.429Z" fill="#7D97F4"/>
<path d="M189.019 248.265L180.184 248.511C177.121 248.597 174.631 251.057 174.631 254.007V267.585C174.631 270.535 177.121 272.828 180.184 272.709L189.019 272.364C192.049 272.246 194.498 269.781 194.498 266.858V253.404C194.502 250.48 192.049 248.179 189.019 248.265Z" fill="#7D97F4"/>
<path d="M258.236 246.333L249.957 246.564C247.088 246.644 244.754 249.027 244.754 251.88V265.022C244.751 265.695 244.886 266.362 245.149 266.981C245.413 267.601 245.8 268.16 246.287 268.625C246.774 269.09 247.35 269.451 247.981 269.685C248.612 269.92 249.284 270.023 249.957 269.989L258.236 269.666C259.611 269.604 260.91 269.018 261.866 268.027C262.821 267.037 263.361 265.718 263.373 264.341V251.313C263.376 250.645 263.244 249.983 262.985 249.367C262.726 248.751 262.345 248.194 261.866 247.728C261.386 247.263 260.817 246.9 260.193 246.66C259.57 246.42 258.904 246.309 258.236 246.333Z" fill="#7D97F4"/>
<path d="M106.761 264.69L106.666 261.467C107.458 261.444 186.633 259.125 254.03 256.54L254.159 259.762C186.742 262.347 107.553 264.667 106.761 264.69Z" fill="#7D97F4"/>
<path d="M109.841 255.537L103.618 255.723C101.828 255.778 100.377 257.17 100.377 258.835V267.728C100.377 269.391 101.829 270.686 103.618 270.62L109.841 270.392C111.618 270.327 113.057 268.932 113.057 267.28V258.436C113.052 256.78 111.612 255.482 109.841 255.537Z" fill="url(#paint19_linear_154:996)"/>
<path d="M187.501 253.194L181.704 253.369C180.037 253.42 178.684 254.761 178.684 256.368V264.957C178.684 266.564 180.037 267.816 181.704 267.754L187.501 267.541C189.157 267.48 190.497 266.136 190.497 264.538V256.001C190.501 254.398 189.161 253.145 187.501 253.194Z" fill="url(#paint20_linear_154:996)"/>
<path d="M256.819 251.104L251.386 251.267C250.631 251.292 249.915 251.608 249.388 252.149C248.86 252.689 248.562 253.412 248.555 254.168V262.477C248.553 262.844 248.626 263.207 248.77 263.544C248.913 263.882 249.124 264.187 249.388 264.44C249.653 264.694 249.967 264.891 250.311 265.02C250.654 265.148 251.02 265.205 251.386 265.188L256.819 264.988C257.57 264.956 258.28 264.637 258.802 264.097C259.325 263.556 259.62 262.836 259.627 262.084V253.819C259.629 253.454 259.556 253.092 259.415 252.756C259.273 252.42 259.065 252.115 258.802 251.862C258.54 251.608 258.229 251.41 257.888 251.28C257.547 251.15 257.183 251.09 256.819 251.104Z" fill="url(#paint21_linear_154:996)"/>
<path d="M280.211 154.34C280.238 154.361 280.261 154.386 280.279 154.415L280.565 154.427C280.596 154.47 280.906 154.545 280.906 154.631L280.633 154.723C280.633 154.816 280.503 154.933 280.53 155.062L280.467 155.118C280.787 157.017 282.528 162.216 284.434 168.947C284.453 169.002 284.448 169.063 284.466 169.119C288.745 184.218 294.912 206.944 296.775 217.467C296.775 217.467 300.072 219.103 305.202 219.913H305.215C312.629 221.534 323.818 223.025 334.228 220.292C334.228 220.292 339.823 174.625 333.045 135.052C333.045 135.052 315.262 130.618 296.067 129.409C295.969 129.409 295.87 129.747 295.772 129.74C294.224 129.654 292.669 129.948 291.115 129.948H289.339C288.542 129.948 287.106 130.228 285.428 130.937C285.379 130.955 285.28 130.78 285.28 130.807C285.277 130.758 285.271 130.709 285.261 130.661C285.261 130.661 284.972 130.791 284.842 130.846C284.65 130.927 284.453 131.007 284.25 131.106C284.208 131.129 284.165 131.15 284.12 131.168C284.101 131.181 284.076 131.183 284.058 131.196C283.928 131.264 283.799 131.326 283.651 131.399C283.623 131.409 283.596 131.421 283.57 131.435C283.411 131.515 283.25 131.601 283.083 131.688C283.058 131.699 283.188 131.712 283.163 131.731C282.973 131.829 282.725 131.934 282.528 132.039C282.331 132.144 282.214 132.23 282.201 132.335L282.177 132.174C282.085 132.223 281.986 132.279 281.893 132.335C281.884 132.338 281.876 132.342 281.868 132.346C280.805 132.96 279.798 133.666 278.859 134.456C278.859 134.456 278.859 134.469 278.846 134.475C278.833 134.482 278.815 134.518 278.803 134.536C274.496 141.684 272.501 153.385 280.211 154.34Z" fill="url(#paint22_linear_154:996)"/>
<path d="M235.292 166.178C254.638 164.131 263.719 149.227 270.909 139.749C280.402 127.237 290.883 129.398 290.883 129.398L284.468 157.013C270.116 179.885 249.585 180.971 235.783 178.358C234.596 174.404 234.427 170.215 235.292 166.178Z" fill="#7D97F4"/>
<path d="M206.236 161.874L213.273 163.591C221.851 166.175 229.09 166.832 235.293 166.184C234.428 170.219 234.597 174.407 235.784 178.359C226.999 176.696 220.939 173.532 220.939 173.532C204.784 168.822 206.236 161.874 206.236 161.874Z" fill="#7D97F4"/>
<path d="M190.307 175.305C190.334 174.599 190.519 173.909 190.849 173.285C191.179 172.661 191.644 172.119 192.212 171.699L203.433 163.401C203.433 163.401 203.205 161.745 200.084 161.391C196.963 161.037 196.8 157.687 196.8 157.687C196.8 157.687 201.135 158.446 207.539 159.775C211.2 160.535 213.762 162.887 215.276 164.773L213.154 169.854C206.034 174.183 198.334 176.658 190.206 177.787L190.307 175.305Z" fill="url(#paint23_linear_154:996)"/>
<path d="M289.146 129.249C289.214 129.249 289.275 129.249 289.336 129.249C289.354 129.249 289.367 129.249 289.385 129.236L289.146 129.249Z" fill="url(#paint24_linear_154:996)"/>
<path d="M285.257 129.04L285.281 129.052V129.027C285.278 129.031 285.275 129.034 285.27 129.036C285.266 129.039 285.262 129.04 285.257 129.04Z" fill="url(#paint25_linear_154:996)"/>
<path d="M296.601 344.405C296.601 344.405 297.606 350.09 298.099 355.718C298.143 356.24 298.081 356.766 297.916 357.263C297.751 357.76 297.488 358.219 297.141 358.612C296.795 359.004 296.372 359.323 295.899 359.547C295.426 359.772 294.913 359.899 294.389 359.92C286.894 360.231 270.863 360.838 265.111 360.582C264.91 360.572 264.714 360.515 264.54 360.414C264.366 360.314 264.219 360.173 264.11 360.004C264.001 359.835 263.935 359.642 263.916 359.442C263.897 359.242 263.926 359.04 264.001 358.853C264.269 358.18 264.786 357.635 265.445 357.333L291.926 345.162L296.601 344.405Z" fill="url(#paint26_linear_154:996)"/>
<path d="M297.424 341.062L296.617 347.862C296.617 347.862 291.979 350.022 288.811 347.589L290.732 340.011L297.424 341.062Z" fill="url(#paint27_linear_154:996)"/>
<path d="M296.818 213.218C297.166 214.993 298.689 301.837 289.406 340.754C289.33 341.061 289.367 341.385 289.51 341.667C289.652 341.949 289.891 342.17 290.184 342.291C291.61 342.873 294.398 343.717 297.743 343.827C298.247 343.843 298.742 343.692 299.151 343.397C299.56 343.101 299.858 342.678 300.001 342.195C302.653 333.165 315.368 287.925 317.027 244.709C318.88 196.418 317.027 243.065 317.027 243.065L315.94 213.214L296.818 213.218Z" fill="url(#paint28_linear_154:996)"/>
<path d="M327.062 347.372C327.062 347.372 328.661 350.242 330.209 357.873C330.276 358.198 330.274 358.533 330.204 358.857C330.133 359.181 329.995 359.486 329.799 359.753C329.602 360.02 329.352 360.243 329.064 360.407C328.776 360.572 328.457 360.673 328.127 360.706C325.653 360.95 321.843 361.262 318.792 361.241C318.46 361.24 318.132 361.169 317.83 361.032C317.527 360.896 317.257 360.696 317.037 360.448C316.816 360.2 316.651 359.908 316.551 359.591C316.452 359.275 316.42 358.941 316.458 358.611C316.797 355.827 317.849 351.26 321.104 347.7L327.062 347.372Z" fill="url(#paint29_linear_154:996)"/>
<path d="M328.466 338.625L326.581 348.909C326.581 348.909 324.717 350.295 321.029 349.29L321.929 338.225L328.466 338.625Z" fill="url(#paint30_linear_154:996)"/>
<path d="M333.56 215.882C341.151 261.702 331.912 329.129 328.797 342.326C328.705 342.721 328.498 343.081 328.203 343.359C327.907 343.637 327.535 343.822 327.135 343.889C325.744 344.12 323.454 344.308 321.197 343.652C320.817 343.541 320.482 343.314 320.239 343.002C319.995 342.69 319.856 342.31 319.841 341.915C319.422 331.246 320.175 265.746 313.099 239.86C312.74 238.55 311.939 237.404 310.831 236.619L297.102 226.857L296.049 211.079L333.56 215.882Z" fill="url(#paint31_linear_154:996)"/>
<path d="M324.312 157.068L333.039 135.038C333.039 135.038 354.291 149.477 357.787 167.785C353.768 168.082 346.463 169.125 339.312 172.737C337.74 164.09 324.312 157.068 324.312 157.068Z" fill="#91B3FA"/>
<path d="M308.228 110.592L315.465 131.528C315.524 131.696 315.522 131.879 315.459 132.045C315.396 132.211 315.277 132.349 315.122 132.436C313.149 133.526 306.039 136.681 297.47 131.248C297.028 130.971 296.653 130.6 296.37 130.162C296.087 129.723 295.905 129.228 295.835 128.711L293.491 110.591L308.228 110.592Z" fill="url(#paint32_linear_154:996)"/>
<path d="M321.968 132.681L313.33 125.344L300.406 156.894L309.83 282.266L339.254 283.146C339.358 283.149 339.46 283.132 339.556 283.094C339.652 283.056 339.739 282.999 339.812 282.926C339.885 282.853 339.942 282.766 339.98 282.67C340.018 282.574 340.036 282.471 340.032 282.368L335.921 161.756C335.921 161.756 335.808 135.697 333.039 135.041C330.27 134.385 321.968 132.681 321.968 132.681Z" fill="#91B3FA"/>
<path d="M280.849 154.427L280.902 154.631L280.629 154.723L280.526 155.062L281.129 155.118L284.144 180.011V180.022L293.753 283.885C293.778 284.095 293.519 284.274 293.679 284.403C293.84 284.533 293.87 284.582 294.068 284.552L309.91 282.258L305.243 219.912L305.215 219.82L300.531 155.254L296.297 129.324V129.313L295.519 125.322L291.173 129.082H291.076L289.834 129.149L289.315 129.174C288.526 129.384 285.282 130.6 285.282 130.6C285.282 130.6 284.149 131.106 283.607 131.365C283.585 131.376 283.564 131.388 283.543 131.401C283.383 131.482 283.23 131.568 283.064 131.654C283.039 131.667 283.183 131.679 283.158 131.698C282.825 131.882 282.519 132.087 282.519 132.302V132.314L280.898 154.302V154.378L280.849 154.427Z" fill="#7D97F4"/>
<path d="M295.494 156.639V159.708L284.147 159.026V155.616L295.494 156.639Z" fill="url(#paint33_linear_154:996)"/>
<path d="M301.104 164.155C301.155 164.154 301.205 164.142 301.25 164.118L311.178 158.786C311.221 158.763 311.257 158.731 311.285 158.691C311.313 158.652 311.331 158.607 311.338 158.559L312.699 149.402L316.32 148.754C316.376 148.744 316.428 148.719 316.471 148.681C316.513 148.644 316.544 148.595 316.561 148.541L320.392 136.095C320.416 136.016 320.408 135.932 320.37 135.859C320.332 135.787 320.266 135.733 320.188 135.709C320.11 135.685 320.025 135.693 319.953 135.731C319.881 135.769 319.826 135.835 319.802 135.913L316.027 148.178L312.372 148.826C312.308 148.837 312.25 148.869 312.204 148.915C312.159 148.962 312.13 149.021 312.121 149.085L310.75 158.309L300.958 163.571C300.898 163.604 300.85 163.656 300.823 163.719C300.795 163.781 300.79 163.851 300.806 163.918C300.823 163.984 300.861 164.043 300.915 164.085C300.969 164.127 301.036 164.15 301.104 164.151V164.155Z" fill="url(#paint34_linear_154:996)"/>
<path d="M298.74 161.09C298.781 161.089 298.82 161.079 298.856 161.059C298.882 161.043 298.905 161.023 298.924 160.999C298.942 160.975 298.956 160.948 298.964 160.919C298.972 160.889 298.974 160.859 298.97 160.829C298.966 160.799 298.956 160.77 298.941 160.743L293.731 151.61L294.59 146.447C294.598 146.399 294.591 146.35 294.57 146.307C294.548 146.264 294.514 146.228 294.471 146.206L290.279 143.975L291.344 129.126C291.348 129.065 291.328 129.004 291.288 128.958C291.248 128.911 291.191 128.883 291.13 128.878C291.069 128.874 291.008 128.894 290.962 128.934C290.915 128.974 290.887 129.031 290.882 129.092L289.807 144.091C289.804 144.136 289.813 144.181 289.835 144.22C289.857 144.26 289.889 144.292 289.929 144.313L294.107 146.536L293.26 151.615C293.252 151.667 293.262 151.721 293.288 151.767L298.539 160.972C298.56 161.007 298.589 161.037 298.624 161.058C298.659 161.078 298.699 161.089 298.74 161.09Z" fill="url(#paint35_linear_154:996)"/>
<path d="M305.714 177.153C305.714 177.153 329.569 190.637 337.625 179.124C339.297 176.733 339.699 174.357 339.284 172.092C346.437 168.48 353.744 167.436 357.759 167.14C358.813 172.66 358.256 178.53 355.013 184.463C340.91 210.263 302.556 183.037 302.556 183.037L305.714 177.153Z" fill="#91B3FA"/>
<path d="M308.581 194.214L295.559 148.737C295.487 148.485 295.343 148.259 295.143 148.09C294.943 147.92 294.698 147.813 294.438 147.782C292.078 147.506 285.242 146.734 277.347 146.066C267.84 145.262 256.798 144.61 250.2 145.158C249.983 145.175 249.774 145.245 249.591 145.362C249.407 145.479 249.256 145.638 249.148 145.827C249.041 146.016 248.981 146.229 248.975 146.446C248.969 146.663 249.016 146.878 249.112 147.073C252.864 154.664 268.3 185.543 276.027 195.658C276.153 195.823 276.315 195.957 276.502 196.048C276.688 196.14 276.893 196.186 277.101 196.185L307.309 195.905C307.514 195.903 307.715 195.854 307.898 195.762C308.081 195.67 308.24 195.537 308.363 195.374C308.486 195.21 308.57 195.02 308.607 194.819C308.645 194.618 308.636 194.411 308.581 194.214Z" fill="url(#paint36_linear_154:996)"/>
<path d="M275.998 142.123L266.556 140.551C266.44 140.531 266.322 140.542 266.213 140.582C266.103 140.622 266.005 140.689 265.93 140.778C265.854 140.866 265.802 140.973 265.779 141.087C265.757 141.202 265.764 141.32 265.801 141.431L266.736 144.264C266.776 144.384 266.849 144.491 266.947 144.573C267.045 144.654 267.163 144.706 267.289 144.723L276.375 145.936C276.484 145.951 276.594 145.938 276.697 145.901C276.8 145.863 276.893 145.801 276.966 145.72C277.04 145.639 277.093 145.541 277.12 145.435C277.148 145.328 277.149 145.217 277.125 145.11L276.546 142.638C276.516 142.508 276.448 142.389 276.35 142.298C276.252 142.206 276.13 142.145 275.998 142.123Z" fill="url(#paint37_linear_154:996)"/>
<path d="M283.066 150.116L282.288 146.065C282.25 145.867 282.149 145.687 282 145.551C281.852 145.415 281.663 145.33 281.463 145.31L262.394 143.374C262.245 143.359 262.095 143.38 261.956 143.435C261.816 143.49 261.692 143.577 261.594 143.69C261.495 143.803 261.425 143.938 261.389 144.083C261.354 144.228 261.353 144.38 261.388 144.526L262.602 149.574C262.649 149.771 262.758 149.947 262.914 150.076C263.07 150.205 263.263 150.28 263.465 150.29L282.1 151.229C282.241 151.236 282.383 151.21 282.514 151.155C282.644 151.099 282.76 151.015 282.853 150.907C282.946 150.8 283.014 150.673 283.051 150.536C283.087 150.399 283.093 150.256 283.066 150.116Z" fill="url(#paint38_linear_154:996)"/>
<path d="M305.434 183.226C305.434 183.226 307.249 175.767 306.516 173.121C305.784 170.475 304.367 167.072 299.645 167.828C294.923 168.583 289.346 170.575 289.346 170.575C289.346 170.575 289.627 174.022 293.218 172.909L290.991 174.632C290.991 174.632 291.31 177.392 294.344 175.918L292.269 178.202C292.269 178.202 293.572 180.47 295.804 179.015C298.035 177.56 299.104 184.125 305.434 183.226Z" fill="url(#paint39_linear_154:996)"/>
<path d="M328.171 183.85C330.388 183.85 332.423 183.522 333.971 182.671C334.008 182.653 334.041 182.627 334.068 182.595C334.094 182.563 334.114 182.527 334.126 182.487C334.139 182.448 334.143 182.406 334.139 182.365C334.134 182.324 334.122 182.284 334.102 182.247C334.082 182.211 334.055 182.179 334.023 182.154C333.99 182.128 333.953 182.109 333.913 182.098C333.873 182.087 333.831 182.085 333.79 182.09C333.749 182.096 333.71 182.109 333.674 182.131C327.321 185.621 311.623 179.645 311.465 179.584C311.423 179.569 308.373 178.509 307.283 176.382C307.243 176.313 307.179 176.263 307.103 176.24C307.027 176.218 306.945 176.225 306.875 176.262C306.804 176.298 306.75 176.36 306.724 176.434C306.698 176.509 306.702 176.591 306.734 176.663C307.939 179.015 311.12 180.118 311.255 180.164C311.752 180.353 320.934 183.85 328.171 183.85Z" fill="url(#paint40_linear_154:996)"/>
<path d="M336.781 195.605C336.947 195.605 337.083 195.605 337.089 195.436C337.096 195.268 336.96 195.189 336.791 195.177C318.67 194.554 308.356 186.291 308.254 186.207C308.221 186.182 308.185 186.164 308.145 186.154C308.106 186.143 308.065 186.141 308.024 186.146C307.984 186.152 307.945 186.165 307.91 186.186C307.875 186.207 307.844 186.234 307.82 186.266C307.712 186.396 307.731 186.471 307.862 186.579C307.966 186.664 318.443 195.6 336.774 195.6L336.781 195.605Z" fill="url(#paint41_linear_154:996)"/>
<path d="M289.114 90.7471C289.114 90.7471 285.622 103.445 286.165 109.767C286.708 116.088 285.944 120.355 293.378 120.581C300.813 120.806 306.408 116.318 308.824 109.594C308.824 109.594 312.633 99.2223 310.905 95.4456C309.176 91.6689 289.114 90.7471 289.114 90.7471Z" fill="url(#paint42_linear_154:996)"/>
<path d="M318.743 91.4523C317.16 90.467 316.129 90.8041 315.526 91.3045C315.451 91.3675 315.359 91.4069 315.262 91.4177C315.164 91.4286 315.066 91.4104 314.979 91.3654C314.963 91.1787 313.762 78.1995 296.068 80.4827C295.169 80.5987 294.256 80.4445 293.445 80.0398C292.634 79.635 291.962 78.998 291.514 78.2099C289.421 74.5253 285.454 69.1085 282.456 74.4008C278.194 81.9295 276.929 91.8075 289.004 93.8482C289.718 93.9701 290.439 94.066 291.162 94.1438C296.146 95.3729 301.823 95.7606 303.928 96.2908C307.442 97.1763 304.757 105.355 304.757 105.355L305.674 105.225L307.629 104.945C307.913 104.905 308.189 105.225 308.213 105.512L308.666 111.098C308.675 111.218 308.725 111.331 308.806 111.419C308.888 111.507 308.997 111.565 309.116 111.583C310.009 111.68 312.328 111.592 315.892 108.977C319.375 106.42 317.707 105.123 316.637 104.627C316.569 104.593 316.509 104.543 316.463 104.481C316.417 104.42 316.386 104.348 316.373 104.273C316.36 104.197 316.365 104.119 316.387 104.046C316.409 103.972 316.448 103.905 316.501 103.849C321.258 98.6686 321.496 93.1715 318.743 91.4523Z" fill="url(#paint43_linear_154:996)"/>
<path d="M305.646 106.637C305.646 106.637 306.537 98.7166 310.267 100.367C313.998 102.017 309.715 109.183 307.004 109.857L305.646 106.637Z" fill="url(#paint44_linear_154:996)"/>
<path d="M285.869 91.4601C285.916 91.4533 285.961 91.4326 285.997 91.4007C286.033 91.3688 286.059 91.327 286.071 91.2805C286.084 91.234 286.083 91.1849 286.068 91.1391C286.053 91.0934 286.024 91.0531 285.987 91.0232C283.443 89.011 282.047 86.6851 281.838 84.1103C281.468 79.6309 284.842 75.8619 284.876 75.8243C284.915 75.7755 284.935 75.7132 284.93 75.6503C284.925 75.5874 284.897 75.5288 284.85 75.4864C284.803 75.444 284.742 75.4212 284.679 75.4225C284.616 75.4239 284.556 75.4494 284.511 75.4937C284.366 75.6532 280.963 79.452 281.347 84.1466C281.568 86.8692 283.032 89.3079 285.683 91.407C285.709 91.4279 285.739 91.4434 285.771 91.4525C285.802 91.4617 285.836 91.4643 285.869 91.4601Z" fill="#91B3FA"/>
<defs>
<linearGradient id="paint0_linear_154:996" x1="407.103" y1="468.997" x2="85.5654" y2="69.6687" gradientUnits="userSpaceOnUse">
<stop stop-color="#6DBBF4"/>
<stop offset="1" stop-color="#DAF8FE"/>
</linearGradient>
<linearGradient id="paint1_linear_154:996" x1="216.233" y1="-81.6337" x2="85.7831" y2="381.462" gradientUnits="userSpaceOnUse">
<stop stop-color="#0487FF"/>
<stop offset="1" stop-color="#0076B8"/>
</linearGradient>
<linearGradient id="paint2_linear_154:996" x1="321.355" y1="-1.1032" x2="-98.6955" y2="433.296" gradientUnits="userSpaceOnUse">
<stop stop-color="#FFA28E"/>
<stop offset="1" stop-color="#FE9A62"/>
</linearGradient>
<linearGradient id="paint3_linear_154:996" x1="48494.9" y1="-13765.3" x2="43988.5" y2="5453.27" gradientUnits="userSpaceOnUse">
<stop stop-color="#0065C2"/>
<stop offset="1" stop-color="#0050C9"/>
</linearGradient>
<linearGradient id="paint4_linear_154:996" x1="136051" y1="-8943.93" x2="135335" y2="4226.77" gradientUnits="userSpaceOnUse">
<stop stop-color="#024B8D"/>
<stop offset="0.984375" stop-color="#0248B1"/>
</linearGradient>
<linearGradient id="paint5_linear_154:996" x1="227719" y1="-9537.74" x2="227231" y2="4545.46" gradientUnits="userSpaceOnUse">
<stop stop-color="#0065C2"/>
<stop offset="1" stop-color="#0050C9"/>
</linearGradient>
<linearGradient id="paint6_linear_154:996" x1="228.658" y1="-40.5737" x2="208.709" y2="138.965" gradientUnits="userSpaceOnUse">
<stop stop-color="#E1473D"/>
<stop offset="1" stop-color="#E9605A"/>
</linearGradient>
<linearGradient id="paint7_linear_154:996" x1="125.48" y1="275.765" x2="153.393" y2="275.765" gradientUnits="userSpaceOnUse">
<stop stop-color="#53D8FF"/>
<stop offset="1" stop-color="#3840F7"/>
</linearGradient>
<linearGradient id="paint8_linear_154:996" x1="24647.5" y1="126568" x2="28251.2" y2="126568" gradientUnits="userSpaceOnUse">
<stop stop-color="#53D8FF"/>
<stop offset="1" stop-color="#3840F7"/>
</linearGradient>
<linearGradient id="paint9_linear_154:996" x1="56350.7" y1="294014" x2="62359.9" y2="294014" gradientUnits="userSpaceOnUse">
<stop stop-color="#53D8FF"/>
<stop offset="1" stop-color="#3840F7"/>
</linearGradient>
<linearGradient id="paint10_linear_154:996" x1="37280.1" y1="127292" x2="40883.3" y2="127292" gradientUnits="userSpaceOnUse">
<stop stop-color="#53D8FF"/>
<stop offset="1" stop-color="#3840F7"/>
</linearGradient>
<linearGradient id="paint11_linear_154:996" x1="72649.3" y1="292167" x2="78658.9" y2="292167" gradientUnits="userSpaceOnUse">
<stop stop-color="#53D8FF"/>
<stop offset="1" stop-color="#3840F7"/>
</linearGradient>
<linearGradient id="paint12_linear_154:996" x1="49916.2" y1="126568" x2="53519.4" y2="126568" gradientUnits="userSpaceOnUse">
<stop stop-color="#53D8FF"/>
<stop offset="1" stop-color="#3840F7"/>
</linearGradient>
<linearGradient id="paint13_linear_154:996" x1="124.942" y1="251.318" x2="92.9989" y2="270.075" gradientUnits="userSpaceOnUse">
<stop stop-color="#4F52FF"/>
<stop offset="1" stop-color="#4042E2"/>
</linearGradient>
<linearGradient id="paint14_linear_154:996" x1="17641.1" y1="35943.7" x2="15853.2" y2="37446" gradientUnits="userSpaceOnUse">
<stop stop-color="#53D8FF"/>
<stop offset="1" stop-color="#3840F7"/>
</linearGradient>
<linearGradient id="paint15_linear_154:996" x1="40236.7" y1="58696.9" x2="35655.4" y2="60403" gradientUnits="userSpaceOnUse">
<stop stop-color="#4F52FF"/>
<stop offset="1" stop-color="#4042E2"/>
</linearGradient>
<linearGradient id="paint16_linear_154:996" x1="23556.1" y1="34490" x2="21927.8" y2="35811" gradientUnits="userSpaceOnUse">
<stop stop-color="#53D8FF"/>
<stop offset="1" stop-color="#3840F7"/>
</linearGradient>
<linearGradient id="paint17_linear_154:996" x1="48914" y1="56230.3" x2="45441.5" y2="57198.6" gradientUnits="userSpaceOnUse">
<stop stop-color="#4F52FF"/>
<stop offset="1" stop-color="#4042E2"/>
</linearGradient>
<linearGradient id="paint18_linear_154:996" x1="28037.5" y1="33188.6" x2="26545.2" y2="34361.4" gradientUnits="userSpaceOnUse">
<stop stop-color="#53D8FF"/>
<stop offset="1" stop-color="#3840F7"/>
</linearGradient>
<linearGradient id="paint19_linear_154:996" x1="16895.7" y1="32277.3" x2="15765.1" y2="40964.8" gradientUnits="userSpaceOnUse">
<stop stop-color="#4F52FF"/>
<stop offset="1" stop-color="#4042E2"/>
</linearGradient>
<linearGradient id="paint20_linear_154:996" x1="23484.5" y1="28557" x2="20364" y2="43615.7" gradientUnits="userSpaceOnUse">
<stop stop-color="#4F52FF"/>
<stop offset="1" stop-color="#4042E2"/>
</linearGradient>
<linearGradient id="paint21_linear_154:996" x1="28175.8" y1="30275.6" x2="23507.3" y2="41582.6" gradientUnits="userSpaceOnUse">
<stop stop-color="#4F52FF"/>
<stop offset="1" stop-color="#4042E2"/>
</linearGradient>
<linearGradient id="paint22_linear_154:996" x1="106690" y1="-41214.7" x2="89006.7" y2="14014.4" gradientUnits="userSpaceOnUse">
<stop stop-color="#024B8D"/>
<stop offset="0.984375" stop-color="#0248B1"/>
</linearGradient>
<linearGradient id="paint23_linear_154:996" x1="302.144" y1="13.6031" x2="225.621" y2="131.865" gradientUnits="userSpaceOnUse">
<stop stop-color="#FEBBBA"/>
<stop offset="1" stop-color="#FF928E"/>
</linearGradient>
<linearGradient id="paint24_linear_154:996" x1="348.062" y1="147.835" x2="347.619" y2="147.835" gradientUnits="userSpaceOnUse">
<stop stop-color="#09005D"/>
<stop offset="1" stop-color="#1A0F91"/>
</linearGradient>
<linearGradient id="paint25_linear_154:996" x1="195.95" y1="164.168" x2="195.944" y2="164.176" gradientUnits="userSpaceOnUse">
<stop stop-color="#53EAC9"/>
<stop offset="1" stop-color="#45AED8"/>
</linearGradient>
<linearGradient id="paint26_linear_154:996" x1="119964" y1="49759.8" x2="128902" y2="70235.3" gradientUnits="userSpaceOnUse">
<stop stop-color="#09005D"/>
<stop offset="1" stop-color="#1A0F91"/>
</linearGradient>
<linearGradient id="paint27_linear_154:996" x1="31894.7" y1="27448.2" x2="31322.5" y2="27448.2" gradientUnits="userSpaceOnUse">
<stop stop-color="#FEBBBA"/>
<stop offset="1" stop-color="#FF928E"/>
</linearGradient>
<linearGradient id="paint28_linear_154:996" x1="98117.5" y1="277527" x2="145414" y2="291506" gradientUnits="userSpaceOnUse">
<stop stop-color="#09005D"/>
<stop offset="1" stop-color="#1A0F91"/>
</linearGradient>
<linearGradient id="paint29_linear_154:996" x1="50417.1" y1="40419.2" x2="60795.2" y2="51662.7" gradientUnits="userSpaceOnUse">
<stop stop-color="#09005D"/>
<stop offset="1" stop-color="#1A0F91"/>
</linearGradient>
<linearGradient id="paint30_linear_154:996" x1="29210.7" y1="35776.7" x2="28784.1" y2="35776.7" gradientUnits="userSpaceOnUse">
<stop stop-color="#FEBBBA"/>
<stop offset="1" stop-color="#FF928E"/>
</linearGradient>
<linearGradient id="paint31_linear_154:996" x1="144087" y1="271509" x2="206500" y2="297222" gradientUnits="userSpaceOnUse">
<stop stop-color="#09005D"/>
<stop offset="1" stop-color="#1A0F91"/>
</linearGradient>
<linearGradient id="paint32_linear_154:996" x1="89205.9" y1="36276.9" x2="87368.7" y2="35375.3" gradientUnits="userSpaceOnUse">
<stop stop-color="#FEBBBA"/>
<stop offset="1" stop-color="#FF928E"/>
</linearGradient>
<linearGradient id="paint33_linear_154:996" x1="297.062" y1="163.042" x2="256.971" y2="134.191" gradientUnits="userSpaceOnUse">
<stop stop-color="#9CFFFB"/>
<stop offset="1" stop-color="#9BFFFA"/>
</linearGradient>
<linearGradient id="paint34_linear_154:996" x1="75972.1" y1="46505.8" x2="75014.1" y2="46030.7" gradientUnits="userSpaceOnUse">
<stop stop-color="#DAE3FE"/>
<stop offset="1" stop-color="#E9EFFD"/>
</linearGradient>
<linearGradient id="paint35_linear_154:996" x1="34078.9" y1="50561.1" x2="33431" y2="50561.1" gradientUnits="userSpaceOnUse">
<stop stop-color="#DAE3FE"/>
<stop offset="1" stop-color="#E9EFFD"/>
</linearGradient>
<linearGradient id="paint36_linear_154:996" x1="298.605" y1="125.12" x2="283.599" y2="205.345" gradientUnits="userSpaceOnUse">
<stop stop-color="#0487FF"/>
<stop offset="1" stop-color="#0076B8"/>
</linearGradient>
<linearGradient id="paint37_linear_154:996" x1="19981.3" y1="-2276.15" x2="19625.4" y2="1247.15" gradientUnits="userSpaceOnUse">
<stop stop-color="#0065C2"/>
<stop offset="1" stop-color="#0050C9"/>
</linearGradient>
<linearGradient id="paint38_linear_154:996" x1="37905.7" y1="-3373.74" x2="37509.3" y2="1775.66" gradientUnits="userSpaceOnUse">
<stop stop-color="#0065C2"/>
<stop offset="1" stop-color="#0050C9"/>
</linearGradient>
<linearGradient id="paint39_linear_154:996" x1="66008.9" y1="28248.1" x2="63687.8" y2="28248.1" gradientUnits="userSpaceOnUse">
<stop stop-color="#FEBBBA"/>
<stop offset="1" stop-color="#FF928E"/>
</linearGradient>
<linearGradient id="paint40_linear_154:996" x1="110505" y1="14170.3" x2="104701" y2="14170.3" gradientUnits="userSpaceOnUse">
<stop stop-color="#DAE3FE"/>
<stop offset="1" stop-color="#E9EFFD"/>
</linearGradient>
<linearGradient id="paint41_linear_154:996" x1="118890" y1="18348.4" x2="112251" y2="18348.4" gradientUnits="userSpaceOnUse">
<stop stop-color="#DAE3FE"/>
<stop offset="1" stop-color="#E9EFFD"/>
</linearGradient>
<linearGradient id="paint42_linear_154:996" x1="200395" y1="25997.2" x2="207459" y2="29271.8" gradientUnits="userSpaceOnUse">
<stop stop-color="#FEBBBA"/>
<stop offset="1" stop-color="#FF928E"/>
</linearGradient>
<linearGradient id="paint43_linear_154:996" x1="194930" y1="33988.1" x2="214386" y2="53549.7" gradientUnits="userSpaceOnUse">
<stop stop-color="#080148"/>
<stop offset="1" stop-color="#13088E"/>
</linearGradient>
<linearGradient id="paint44_linear_154:996" x1="48203.9" y1="10555.5" x2="50125.4" y2="11162.8" gradientUnits="userSpaceOnUse">
<stop stop-color="#FEBBBA"/>
<stop offset="1" stop-color="#FF928E"/>
</linearGradient>
</defs>
</svg>
