<svg width="28" height="20" viewBox="0 0 28 20" fill="none" xmlns="http://www.w3.org/2000/svg">
<rect width="28" height="20" rx="2" fill="white"/>
<mask id="mask0_509_444" style="mask-type:alpha" maskUnits="userSpaceOnUse" x="0" y="0" width="28" height="20">
<rect width="28" height="20" rx="2" fill="white"/>
</mask>
<g mask="url(#mask0_509_444)">
<path fill-rule="evenodd" clip-rule="evenodd" d="M28 0H0V1.33333H28V0ZM28 2.66667H0V4H28V2.66667ZM0 5.33333H28V6.66667H0V5.33333ZM28 8H0V9.33333H28V8ZM0 10.6667H28V12H0V10.6667ZM28 13.3333H0V14.6667H28V13.3333ZM0 16H28V17.3333H0V16ZM28 18.6667H0V20H28V18.6667Z" fill="#D02F44"/>
<rect width="12" height="9.33333" fill="#46467F"/>
<g filter="url(#filter0_d_509_444)">
<path fill-rule="evenodd" clip-rule="evenodd" d="M2.66732 2.00004C2.66732 2.36823 2.36884 2.66671 2.00065 2.66671C1.63246 2.66671 1.33398 2.36823 1.33398 2.00004C1.33398 1.63185 1.63246 1.33337 2.00065 1.33337C2.36884 1.33337 2.66732 1.63185 2.66732 2.00004ZM5.33398 2.00004C5.33398 2.36823 5.03551 2.66671 4.66732 2.66671C4.29913 2.66671 4.00065 2.36823 4.00065 2.00004C4.00065 1.63185 4.29913 1.33337 4.66732 1.33337C5.03551 1.33337 5.33398 1.63185 5.33398 2.00004ZM7.33398 2.66671C7.70217 2.66671 8.00065 2.36823 8.00065 2.00004C8.00065 1.63185 7.70217 1.33337 7.33398 1.33337C6.96579 1.33337 6.66732 1.63185 6.66732 2.00004C6.66732 2.36823 6.96579 2.66671 7.33398 2.66671ZM10.6673 2.00004C10.6673 2.36823 10.3688 2.66671 10.0007 2.66671C9.63246 2.66671 9.33398 2.36823 9.33398 2.00004C9.33398 1.63185 9.63246 1.33337 10.0007 1.33337C10.3688 1.33337 10.6673 1.63185 10.6673 2.00004ZM3.33398 4.00004C3.70217 4.00004 4.00065 3.70156 4.00065 3.33337C4.00065 2.96518 3.70217 2.66671 3.33398 2.66671C2.96579 2.66671 2.66732 2.96518 2.66732 3.33337C2.66732 3.70156 2.96579 4.00004 3.33398 4.00004ZM6.66732 3.33337C6.66732 3.70156 6.36884 4.00004 6.00065 4.00004C5.63246 4.00004 5.33398 3.70156 5.33398 3.33337C5.33398 2.96518 5.63246 2.66671 6.00065 2.66671C6.36884 2.66671 6.66732 2.96518 6.66732 3.33337ZM8.66732 4.00004C9.03551 4.00004 9.33398 3.70156 9.33398 3.33337C9.33398 2.96518 9.03551 2.66671 8.66732 2.66671C8.29913 2.66671 8.00065 2.96518 8.00065 3.33337C8.00065 3.70156 8.29913 4.00004 8.66732 4.00004ZM10.6673 4.66671C10.6673 5.0349 10.3688 5.33337 10.0007 5.33337C9.63246 5.33337 9.33398 5.0349 9.33398 4.66671C9.33398 4.29852 9.63246 4.00004 10.0007 4.00004C10.3688 4.00004 10.6673 4.29852 10.6673 4.66671ZM7.33398 5.33337C7.70217 5.33337 8.00065 5.0349 8.00065 4.66671C8.00065 4.29852 7.70217 4.00004 7.33398 4.00004C6.96579 4.00004 6.66732 4.29852 6.66732 4.66671C6.66732 5.0349 6.96579 5.33337 7.33398 5.33337ZM5.33398 4.66671C5.33398 5.0349 5.03551 5.33337 4.66732 5.33337C4.29913 5.33337 4.00065 5.0349 4.00065 4.66671C4.00065 4.29852 4.29913 4.00004 4.66732 4.00004C5.03551 4.00004 5.33398 4.29852 5.33398 4.66671ZM2.00065 5.33337C2.36884 5.33337 2.66732 5.0349 2.66732 4.66671C2.66732 4.29852 2.36884 4.00004 2.00065 4.00004C1.63246 4.00004 1.33398 4.29852 1.33398 4.66671C1.33398 5.0349 1.63246 5.33337 2.00065 5.33337ZM4.00065 6.00004C4.00065 6.36823 3.70217 6.66671 3.33398 6.66671C2.96579 6.66671 2.66732 6.36823 2.66732 6.00004C2.66732 5.63185 2.96579 5.33337 3.33398 5.33337C3.70217 5.33337 4.00065 5.63185 4.00065 6.00004ZM6.00065 6.66671C6.36884 6.66671 6.66732 6.36823 6.66732 6.00004C6.66732 5.63185 6.36884 5.33337 6.00065 5.33337C5.63246 5.33337 5.33398 5.63185 5.33398 6.00004C5.33398 6.36823 5.63246 6.66671 6.00065 6.66671ZM9.33398 6.00004C9.33398 6.36823 9.03551 6.66671 8.66732 6.66671C8.29913 6.66671 8.00065 6.36823 8.00065 6.00004C8.00065 5.63185 8.29913 5.33337 8.66732 5.33337C9.03551 5.33337 9.33398 5.63185 9.33398 6.00004ZM10.0007 8.00004C10.3688 8.00004 10.6673 7.70156 10.6673 7.33337C10.6673 6.96518 10.3688 6.66671 10.0007 6.66671C9.63246 6.66671 9.33398 6.96518 9.33398 7.33337C9.33398 7.70156 9.63246 8.00004 10.0007 8.00004ZM8.00065 7.33337C8.00065 7.70156 7.70217 8.00004 7.33398 8.00004C6.96579 8.00004 6.66732 7.70156 6.66732 7.33337C6.66732 6.96518 6.96579 6.66671 7.33398 6.66671C7.70217 6.66671 8.00065 6.96518 8.00065 7.33337ZM4.66732 8.00004C5.03551 8.00004 5.33398 7.70156 5.33398 7.33337C5.33398 6.96518 5.03551 6.66671 4.66732 6.66671C4.29913 6.66671 4.00065 6.96518 4.00065 7.33337C4.00065 7.70156 4.29913 8.00004 4.66732 8.00004ZM2.66732 7.33337C2.66732 7.70156 2.36884 8.00004 2.00065 8.00004C1.63246 8.00004 1.33398 7.70156 1.33398 7.33337C1.33398 6.96518 1.63246 6.66671 2.00065 6.66671C2.36884 6.66671 2.66732 6.96518 2.66732 7.33337Z" fill="url(#paint0_linear_509_444)"/>
</g>
</g>
<defs>
<filter id="filter0_d_509_444" x="1.33398" y="1.33337" width="9.33398" height="7.66663" filterUnits="userSpaceOnUse" color-interpolation-filters="sRGB">
<feFlood flood-opacity="0" result="BackgroundImageFix"/>
<feColorMatrix in="SourceAlpha" type="matrix" values="0 0 0 0 0 0 0 0 0 0 0 0 0 0 0 0 0 0 127 0" result="hardAlpha"/>
<feOffset dy="1"/>
<feColorMatrix type="matrix" values="0 0 0 0 0 0 0 0 0 0 0 0 0 0 0 0 0 0 0.06 0"/>
<feBlend mode="normal" in2="BackgroundImageFix" result="effect1_dropShadow_509_444"/>
<feBlend mode="normal" in="SourceGraphic" in2="effect1_dropShadow_509_444" result="shape"/>
</filter>
<linearGradient id="paint0_linear_509_444" x1="1.33398" y1="1.33337" x2="1.33398" y2="8.00004" gradientUnits="userSpaceOnUse">
<stop stop-color="white"/>
<stop offset="1" stop-color="#F0F0F0"/>
</linearGradient>
</defs>
</svg>
